<svg width="569" height="50" viewBox="0 0 569 50" fill="none" xmlns="http://www.w3.org/2000/svg">
<path d="M31.1914 2.35016e-06L-3.53906 49.0312L65.9219 49.0312L31.1914 2.35016e-06Z" fill="#FF6DA3"/>
<path d="M103.652 2.35016e-06L68.9219 49.0312L138.383 49.0312L103.652 2.35016e-06Z" fill="#FF6DA3"/>
<path d="M176.113 2.35016e-06L141.383 49.0312L210.844 49.0312L176.113 2.35016e-06Z" fill="#FF6DA3"/>
<path d="M248.574 2.34671e-06L213.844 49.0312L283.305 49.0312L248.574 2.34671e-06Z" fill="#FF6DA3"/>
<path d="M321.035 2.34671e-06L286.305 49.0312L355.766 49.0312L321.035 2.34671e-06Z" fill="#FF6DA3"/>
<path d="M393.496 2.34671e-06L358.766 49.0312L428.227 49.0312L393.496 2.34671e-06Z" fill="#FF6DA3"/>
<path d="M465.957 2.34671e-06L431.227 49.0312L500.688 49.0312L465.957 2.34671e-06Z" fill="#FF6DA3"/>
<path d="M538.418 2.34671e-06L503.688 49.0312L573.148 49.0312L538.418 2.34671e-06Z" fill="#FF6DA3"/>
</svg>
