<svg width="365" height="103" viewBox="0 0 365 103" fill="none" xmlns="http://www.w3.org/2000/svg">
<rect x="82.9888" y="47.6407" width="197.359" height="7.04749" fill="#4BDEFF"/>
<path d="M113.467 51.2264C113.467 79.1384 89.328 101.765 59.5514 101.765C29.7749 101.765 5.63622 79.1384 5.63622 51.2264C5.63622 23.3144 29.7749 0.687326 59.5514 0.687326C89.328 0.687326 113.467 23.3144 113.467 51.2264Z" fill="#FF6DA3"/>
<path d="M87.1242 7.65113C98.4246 0.972012 102.871 0.605616 109.205 0.0651975C115.539 -0.475216 118.402 2.35464 117.39 8.15588C116.378 13.9573 111.543 22.4377 103.565 32.4018C95.5873 42.3658 84.8699 53.3113 72.9231 63.6953C60.9765 74.0793 48.4028 83.3782 36.9745 90.2816C25.5461 97.1851 15.8393 101.345 9.22194 102.175C2.6047 103.005 -0.589594 100.463 0.0896337 94.9077C0.768996 89.3523 9.3561 78.9242 12.3029 75.4682L15.6038 80.3675C14.5373 82.3776 13.7637 83.7198 13.6293 84.8187C13.1067 89.0928 15.564 91.0481 20.6551 90.4096C25.7462 89.7712 33.2142 86.571 42.0067 81.2598C50.7993 75.9485 60.473 68.7941 69.6643 60.8051C78.8556 52.8161 87.1016 44.3953 93.2392 36.7294C99.3768 29.0635 103.097 22.5389 103.875 18.0755C104.654 13.6123 102.452 11.4351 97.5787 11.8508C96.7521 11.9213 95.389 12.9313 94.8265 13.0642L87.1242 7.65113Z" fill="#4BDEFF"/>
<path d="M365 51.1641C365 79.076 340.861 101.703 311.084 101.703C281.308 101.703 257.169 79.076 257.169 51.1641C257.169 23.2521 281.308 0.625 311.084 0.625C340.861 0.625 365 23.2521 365 51.1641Z" fill="#4BDEFF"/>
<path d="M295.405 24.3474L303.266 37.1111H287.543L295.405 24.3474Z" fill="#FF6DA3"/>
<path d="M290.682 43.9341L306.34 42.5937L299.75 55.9747L290.682 43.9341Z" fill="#492DC8"/>
<path d="M326.443 56.311L342.1 54.9706L335.51 68.3516L326.443 56.311Z" fill="#9D4EDD"/>
<path d="M321.697 67.5521L336.099 73.4662L323.434 82.2001L321.697 67.5521Z" fill="#492DC8"/>
<path d="M329.878 90.3877L336.025 77.6129L344.754 88.9902L329.878 90.3877Z" fill="#9D4EDD"/>
<path d="M342.053 61.8787L356.454 67.7928L343.79 76.5268L342.053 61.8787Z" fill="#492DC8"/>
<path d="M359.893 48.5669L352.557 61.6028L344.181 49.1298L359.893 48.5669Z" fill="#FF6DA3"/>
<path d="M282.785 47.3809L295.272 56.3364L280.755 61.9958L282.785 47.3809Z" fill="#9D4EDD"/>
<path d="M328.819 32.7719L341.306 41.7274L326.788 47.3868L328.819 32.7719Z" fill="#9D4EDD"/>
<path d="M300.954 60.2273L299.456 74.8984L286.651 66.3463L300.954 60.2273Z" fill="#FF6DA3"/>
<path d="M320.337 59.1482L305.479 54.3282L317.361 44.6764L320.337 59.1482Z" fill="#FF6DA3"/>
<path d="M277.066 31.2082L287.494 42.2379L272.09 45.1889L277.066 31.2082Z" fill="#FF6DA3"/>
<path d="M286.1 64.8686L284.601 79.5398L271.796 70.9876L286.1 64.8686Z" fill="#492DC8"/>
<path d="M319.046 28.2066L310.024 40.143L303.475 27.2341L319.046 28.2066Z" fill="#9D4EDD"/>
<path d="M316.957 76.6667L307.935 88.6031L301.386 75.6942L316.957 76.6667Z" fill="#9D4EDD"/>
<path d="M310.423 10.2966L312.642 24.7765L298.413 19.6368L310.423 10.2966Z" fill="#492DC8"/>
<path d="M334.177 20.9867L322.93 31.1289L319.075 17.2989L334.177 20.9867Z" fill="#492DC8"/>
</svg>
