<svg width="349" height="62" viewBox="0 0 349 62" fill="none" xmlns="http://www.w3.org/2000/svg">
<path d="M144.068 30.7407C144.068 17.2445 133.127 6.30279 119.631 6.30256C106.135 6.30256 95.1932 17.2443 95.1932 30.7407C95.1934 44.2368 106.135 55.1776 119.631 55.1776V61.4801L118.837 61.4708C102.49 61.0565 89.3153 47.8806 88.9011 31.5337L88.8906 30.7407C88.8906 13.7633 102.654 0 119.631 0L120.424 0.0104655C137.035 0.431345 150.371 14.0286 150.371 30.7407L150.361 31.5337C149.941 48.1442 136.343 61.4799 119.631 61.4801V55.1776C133.127 55.1774 144.068 44.2367 144.068 30.7407Z" fill="#9D4EDD"/>
<path d="M133.399 6.09713C140.726 2.69477 148.416 0.50554 152.349 0.732985C156.281 0.960454 157.891 3.11206 156.951 6.88393C156.012 10.6558 152.568 15.8577 147.11 21.7571C141.651 27.6565 134.45 33.9564 126.522 39.7674C118.595 45.5784 110.34 50.6079 102.921 54.1478C95.5029 57.6876 89.2952 59.5587 85.1725 59.4979C81.0498 59.4371 79.2197 57.4477 79.941 53.8091C80.6625 50.1703 85.8252 42.7995 91.1199 36.9495L94.3506 39.7672C90.277 44.2679 89.3893 45.5426 88.8342 48.3422C88.2792 51.1417 89.6876 52.6728 92.8595 52.7196C96.0314 52.7663 100.808 51.3269 106.515 48.6035C112.222 45.8801 118.573 42.0094 124.672 37.5387C130.771 33.0679 136.311 28.2218 140.511 23.683C144.711 19.1443 147.359 15.1418 148.083 12.2398C148.806 9.33791 147.567 7.68301 144.542 7.50801C141.516 7.33305 140.332 7.69593 134.695 10.3134L133.399 6.09713Z" fill="#9D4EDD"/>
<path d="M127.164 23.387C127.164 25.1725 128.612 26.6199 130.397 26.6199C132.183 26.6199 133.63 25.1725 133.63 23.387C133.63 21.6015 132.183 20.1541 130.397 20.1541C128.612 20.1541 127.164 21.6015 127.164 23.387Z" fill="#9D4EDD"/>
<path d="M104.365 23.387C104.365 25.1725 105.812 26.6199 107.598 26.6199C109.383 26.6199 110.831 25.1725 110.831 23.387C110.831 21.6015 109.383 20.1541 107.598 20.1541C105.812 20.1541 104.365 21.6015 104.365 23.387Z" fill="#9D4EDD"/>
<path d="M117.853 35.7145C118.299 36.8522 119.909 36.8522 120.356 35.7145L124.097 26.1769C124.443 25.2951 123.793 24.3417 122.846 24.3417H115.363C114.415 24.3417 113.765 25.2951 114.111 26.1769L117.853 35.7145Z" fill="#9D4EDD"/>
<path d="M155.014 47.783V28.5936C155.014 28.3299 155.097 28.1151 155.263 27.9491C155.439 27.7733 155.654 27.6854 155.908 27.6854H158.735C158.989 27.6854 159.199 27.7733 159.365 27.9491C159.541 28.1151 159.629 28.3299 159.629 28.5936V29.033C161.172 27.9393 162.964 27.3924 165.005 27.3924C167.046 27.3924 168.75 28.1151 170.117 29.5604C171.484 30.9959 172.168 33.0565 172.168 35.742C172.168 38.4178 171.46 40.4686 170.044 41.8944C168.628 43.3201 166.719 44.033 164.316 44.033C163.076 44.033 161.665 43.784 160.083 43.286V47.783C160.083 48.0467 159.995 48.2616 159.819 48.4276C159.653 48.6033 159.443 48.6912 159.189 48.6912H155.908C155.654 48.6912 155.439 48.6033 155.263 48.4276C155.097 48.2616 155.014 48.0467 155.014 47.783ZM160.083 39.9022C161.343 40.3026 162.402 40.5028 163.261 40.5028C164.599 40.5028 165.547 40.1219 166.103 39.3602C166.67 38.5985 166.953 37.3826 166.953 35.7127C166.953 34.0428 166.684 32.8319 166.147 32.0799C165.62 31.3182 164.824 30.9373 163.76 30.9373C162.705 30.9373 161.479 31.3768 160.083 32.2557V39.9022ZM173.969 35.9471V33.8377C173.969 30.4783 174.56 27.9246 175.742 26.1766C176.924 24.4285 178.935 23.4227 181.777 23.159L189.848 22.4412C189.848 22.4412 189.897 22.4412 189.995 22.4412C190.2 22.4412 190.381 22.4901 190.537 22.5877C190.713 22.7537 190.801 22.9539 190.801 23.1883V25.1073C190.801 25.4295 190.693 25.7323 190.478 26.0155C190.273 26.2889 190.024 26.4354 189.731 26.4549L183.579 26.9676C181.538 27.1336 180.102 27.6121 179.272 28.4032C178.442 29.1844 178.027 30.4491 178.027 32.1971C179.228 30.5076 181.064 29.6629 183.535 29.6629C186.006 29.6629 187.969 30.2879 189.424 31.5379C190.888 32.7879 191.621 34.5653 191.621 36.8699C191.621 39.1746 190.869 40.9471 189.365 42.1873C187.861 43.4178 185.674 44.033 182.802 44.033C176.914 44.033 173.969 41.3377 173.969 35.9471ZM182.788 33.0028C181.596 33.0028 180.674 33.3397 180.019 34.0135C179.375 34.6776 179.052 35.6248 179.052 36.8553C179.052 38.0858 179.375 39.0379 180.019 39.7117C180.674 40.3758 181.596 40.7078 182.788 40.7078C183.989 40.7078 184.917 40.3758 185.571 39.7117C186.225 39.0379 186.552 38.0858 186.552 36.8553C186.552 35.6248 186.225 34.6776 185.571 34.0135C184.917 33.3397 183.989 33.0028 182.788 33.0028ZM194.184 42.8465V28.5936C194.184 28.3299 194.267 28.1151 194.433 27.9491C194.609 27.7733 194.824 27.6854 195.078 27.6854H198.139C198.403 27.6854 198.618 27.7733 198.784 27.9491C198.96 28.1151 199.048 28.3299 199.048 28.5936V38.2176L204.204 28.7401C204.36 28.4373 204.599 28.1883 204.922 27.993C205.244 27.7879 205.556 27.6854 205.859 27.6854H209.961C210.224 27.6854 210.439 27.7733 210.605 27.9491C210.781 28.1151 210.869 28.3299 210.869 28.5936V42.8465C210.869 43.1102 210.781 43.325 210.605 43.491C210.439 43.6571 210.224 43.7401 209.961 43.7401H206.899C206.635 43.7401 206.421 43.6571 206.255 43.491C206.089 43.3153 206.006 43.1004 206.006 42.8465V33.2371L200.849 42.6854C200.693 42.9686 200.454 43.2176 200.132 43.4324C199.809 43.6375 199.497 43.7401 199.194 43.7401H195.078C194.814 43.7401 194.599 43.6571 194.433 43.491C194.267 43.325 194.184 43.1102 194.184 42.8465ZM214.458 42.8465V28.5936C214.458 28.3299 214.541 28.1151 214.707 27.9491C214.883 27.7733 215.097 27.6854 215.351 27.6854H230.117C230.381 27.6854 230.595 27.7733 230.761 27.9491C230.927 28.1151 231.01 28.3299 231.01 28.5936V42.8465C231.01 43.1102 230.927 43.325 230.761 43.491C230.595 43.6571 230.381 43.7401 230.117 43.7401H226.85C226.587 43.7401 226.367 43.6571 226.191 43.491C226.025 43.3153 225.942 43.1004 225.942 42.8465V31.2303H219.526V42.8465C219.526 43.1102 219.438 43.325 219.262 43.491C219.096 43.6571 218.886 43.7401 218.633 43.7401H215.351C215.088 43.7401 214.873 43.6571 214.707 43.491C214.541 43.325 214.458 43.1102 214.458 42.8465ZM235.962 41.8944C234.458 40.4686 233.706 38.4178 233.706 35.742C233.706 33.0565 234.463 30.9959 235.976 29.5604C237.49 28.1151 239.59 27.3924 242.275 27.3924C244.961 27.3924 247.055 28.0955 248.559 29.5018C250.063 30.8983 250.815 32.9051 250.815 35.5223V36.3573C250.815 36.6209 250.727 36.8407 250.552 37.0164C250.385 37.1824 250.171 37.2655 249.907 37.2655H238.877C238.974 38.4666 239.316 39.3407 239.902 39.8875C240.498 40.4344 241.445 40.7078 242.744 40.7078C244.043 40.7078 244.931 40.4149 245.41 39.8289C245.888 39.243 246.479 38.9451 247.182 38.9354H249.365C249.629 38.9354 249.844 39.0233 250.01 39.1991C250.185 39.3651 250.273 39.5799 250.273 39.8436C250.273 42.6463 247.602 44.0428 242.26 44.033C239.565 44.033 237.466 43.3201 235.962 41.8944ZM238.847 34.1746H245.659C245.561 31.8699 244.428 30.7176 242.26 30.7176C240.102 30.7176 238.965 31.8699 238.847 34.1746ZM251.855 30.3367V28.5936C251.855 28.3299 251.938 28.1151 252.104 27.9491C252.28 27.7733 252.5 27.6854 252.763 27.6854H267.192C267.456 27.6854 267.671 27.7733 267.837 27.9491C268.003 28.1151 268.086 28.3299 268.086 28.5936V30.3367C268.086 30.5907 268.003 30.8055 267.837 30.9813C267.671 31.1473 267.456 31.2303 267.192 31.2303H262.519V42.8465C262.519 43.1004 262.431 43.3153 262.256 43.491C262.09 43.6571 261.875 43.7401 261.611 43.7401H258.344C258.081 43.7401 257.861 43.6571 257.685 43.491C257.519 43.3153 257.436 43.1004 257.436 42.8465V31.2303H252.763C252.5 31.2303 252.28 31.1473 252.104 30.9813C251.938 30.8055 251.855 30.5907 251.855 30.3367Z" fill="#9D4EDD"/>
</svg>
