<svg width="1359" height="819" viewBox="0 0 1359 819" fill="none" xmlns="http://www.w3.org/2000/svg">
<g clip-path="url(#clip0_5_617)">
<rect width="1358" height="819" rx="50" fill="#FF6DA3"/>
<path d="M196.452 208.215C182.866 220.136 162.886 226.097 136.513 226.097C110.206 226.097 90.226 220.136 76.5732 208.215C62.9203 196.227 56.0938 177.28 56.0938 151.372C56.0938 125.465 62.9203 106.551 76.5732 94.6296C90.226 82.7083 110.206 76.7477 136.513 76.7477C162.886 76.7477 182.866 82.7083 196.452 94.6296C210.105 106.551 216.931 125.465 216.931 151.372C216.931 177.28 210.105 196.227 196.452 208.215ZM169.18 115.708C162.453 107.716 151.564 103.72 136.513 103.72C121.528 103.72 110.639 107.716 103.846 115.708C97.1191 123.7 93.7558 135.622 93.7558 151.472C93.7558 167.256 97.1191 179.144 103.846 187.136C110.639 195.062 121.528 199.024 136.513 199.024C151.564 199.024 162.453 195.062 169.18 187.136C175.906 179.144 179.269 167.256 179.269 151.472C179.269 135.622 175.906 123.7 169.18 115.708ZM235.513 216.906V119.704C235.513 117.906 236.079 116.441 237.211 115.309C238.41 114.11 239.875 113.511 241.607 113.511H262.485C264.284 113.511 265.749 114.11 266.881 115.309C268.08 116.441 268.679 117.906 268.679 119.704V185.338L303.844 120.703C304.909 118.639 306.541 116.94 308.739 115.608C310.937 114.21 313.068 113.511 315.132 113.511H343.104C344.902 113.511 346.367 114.11 347.5 115.309C348.698 116.441 349.298 117.906 349.298 119.704V216.906C349.298 218.704 348.698 220.17 347.5 221.302C346.367 222.434 344.902 223 343.104 223H322.225C320.427 223 318.962 222.434 317.83 221.302C316.697 220.103 316.131 218.638 316.131 216.906V151.372L280.967 215.807C279.901 217.739 278.269 219.437 276.072 220.902C273.874 222.301 271.743 223 269.678 223H241.607C239.808 223 238.343 222.434 237.211 221.302C236.079 220.17 235.513 218.704 235.513 216.906ZM258.789 75.6488C258.789 72.2522 260.654 70.5539 264.384 70.5539H271.876C275.139 70.5539 277.47 72.2522 278.869 75.6488C281.067 81.1099 285.562 83.8405 292.355 83.8405C299.215 83.8405 303.71 81.1099 305.842 75.6488C307.174 72.2522 309.505 70.5539 312.835 70.5539H320.427C324.09 70.5539 325.921 72.2522 325.921 75.6488C325.921 83.4409 322.825 89.8345 316.631 94.8294C310.437 99.8244 302.345 102.322 292.355 102.322C282.432 102.322 274.34 99.8244 268.08 94.8294C261.886 89.8345 258.789 83.4409 258.789 75.6488ZM395.451 190.633C404.442 190.633 408.938 195.161 408.938 204.219V210.513C408.938 214.708 407.772 218.005 405.441 220.403C403.177 222.8 399.847 223.999 395.451 223.999H383.164C378.768 223.999 375.405 222.8 373.074 220.403C370.809 218.005 369.677 214.708 369.677 210.513V204.219C369.677 199.823 370.843 196.46 373.174 194.129C375.505 191.798 378.835 190.633 383.164 190.633H395.451ZM451.195 190.633C460.186 190.633 464.681 195.161 464.681 204.219V210.513C464.681 214.708 463.516 218.005 461.185 220.403C458.92 222.8 455.59 223.999 451.195 223.999H438.907C434.512 223.999 431.148 222.8 428.817 220.403C426.553 218.005 425.421 214.708 425.421 210.513V204.219C425.421 199.823 426.586 196.46 428.917 194.129C431.248 191.798 434.578 190.633 438.907 190.633H451.195ZM506.939 190.633C515.929 190.633 520.425 195.161 520.425 204.219V210.513C520.425 214.708 519.259 218.005 516.928 220.403C514.664 222.8 511.334 223.999 506.939 223.999H494.651C490.255 223.999 486.892 222.8 484.561 220.403C482.297 218.005 481.165 214.708 481.165 210.513V204.219C481.165 199.823 482.33 196.46 484.661 194.129C486.992 191.798 490.322 190.633 494.651 190.633H506.939Z" fill="#FFD738"/>
<path d="M103.443 287.717C103.443 288.572 102.938 289 101.927 289H95.2494C94.4913 289 93.6748 288.738 92.8 288.213C91.9252 287.668 91.2448 287.017 90.7588 286.259L85.6266 278.123C84.4019 276.14 83.1675 274.653 81.9233 273.662C80.6791 272.651 79.1823 272.145 77.4326 272.145H71.1632V286.317C71.1632 287.075 70.8911 287.717 70.3468 288.242C69.8219 288.747 69.1803 289 68.4222 289H62.9401C62.1819 289 61.5307 288.728 60.9864 288.184C60.442 287.62 60.1699 286.959 60.1699 286.201V249.955C60.1699 249.197 60.442 248.536 60.9864 247.972C61.5307 247.408 62.1819 247.126 62.9401 247.126H68.4222C69.1803 247.126 69.8219 247.408 70.3468 247.972C70.8911 248.536 71.1632 249.197 71.1632 249.955V263.922H77.4326C79.1434 263.922 80.6403 263.456 81.9233 262.523C83.2258 261.59 84.4602 260.083 85.6266 258.003L90.1464 249.955C91.1768 248.088 92.5764 247.146 94.3455 247.126H101.081C102.015 247.126 102.481 247.534 102.481 248.351C102.481 248.798 102.316 249.333 101.985 249.955L95.6577 261.415C94.744 263.086 93.7137 264.467 92.5667 265.555C91.4392 266.644 89.9618 267.412 88.1344 267.859C89.4174 268.131 90.7296 268.938 92.071 270.279C93.4318 271.621 94.6274 273.079 95.6577 274.653L102.948 286.259C103.278 286.823 103.443 287.309 103.443 287.717ZM109.1 286.9C106.534 285.112 105.251 282.585 105.251 279.319C105.251 276.053 106.534 273.545 109.1 271.796C111.686 270.046 115.01 269.171 119.073 269.171H128.725C128.725 266.897 128.249 265.312 127.296 264.418C126.344 263.524 124.672 263.077 122.281 263.077C119.909 263.077 118.237 263.67 117.265 264.855C116.313 266.022 115.137 266.605 113.737 266.605H109.392C108.867 266.605 108.43 266.44 108.08 266.109C107.749 265.759 107.584 265.332 107.584 264.826C107.584 259.247 112.882 256.457 123.476 256.457C128.103 256.457 131.816 257.497 134.616 259.577C137.415 261.638 138.815 264.836 138.815 269.171V287.221C138.815 287.746 138.649 288.174 138.319 288.504C137.988 288.835 137.561 289 137.036 289H131.408C130.883 289 130.455 288.835 130.125 288.504C129.794 288.154 129.629 287.727 129.629 287.221V286.317C126.558 288.514 123.01 289.603 118.986 289.583C114.981 289.583 111.686 288.689 109.1 286.9ZM119.773 275.79C118.412 275.79 117.333 276.121 116.536 276.782C115.759 277.443 115.37 278.298 115.37 279.348C115.37 280.398 115.778 281.263 116.595 281.943C117.411 282.624 118.568 282.964 120.065 282.964C123.058 282.964 125.945 282.089 128.725 280.339V275.79H119.773ZM143.218 288.213C143.14 288.057 143.101 287.834 143.101 287.542C143.101 287.231 143.257 286.803 143.568 286.259L147.913 278.24C149.468 275.343 151.538 273.594 154.124 272.991C152.666 272.641 151.392 271.99 150.304 271.037C149.234 270.065 148.437 268.967 147.913 267.742L144.763 259.811C144.53 259.169 144.394 258.644 144.355 258.236C144.355 257.439 144.831 257.041 145.784 257.041H151.266C152.218 257.041 153.074 257.293 153.832 257.799C154.59 258.304 155.125 258.975 155.436 259.811L157.652 265.759C158.643 268.384 160.558 269.696 163.397 269.696V258.848C163.397 258.324 163.562 257.896 163.892 257.565C164.242 257.216 164.67 257.041 165.175 257.041H171.707C172.213 257.041 172.631 257.216 172.961 257.565C173.311 257.896 173.486 258.324 173.486 258.848V269.696C176.305 269.696 178.22 268.384 179.23 265.759L181.417 259.811C181.748 258.975 182.292 258.304 183.05 257.799C183.809 257.293 184.664 257.041 185.616 257.041H191.099C192.012 257.041 192.469 257.439 192.469 258.236C192.469 258.644 192.352 259.169 192.119 259.811L188.941 267.742C188.435 268.967 187.638 270.065 186.55 271.037C185.48 271.99 184.207 272.641 182.73 272.991C185.335 273.594 187.405 275.343 188.941 278.24L193.315 286.259C193.626 286.803 193.781 287.231 193.781 287.542C193.781 287.834 193.742 288.057 193.665 288.213C193.509 288.738 193.052 289 192.294 289H186.812C184.771 289 183.274 288.086 182.321 286.259L179.23 280.223C177.909 277.637 175.994 276.345 173.486 276.345V287.221C173.486 287.727 173.311 288.154 172.961 288.504C172.631 288.835 172.213 289 171.707 289H165.175C164.67 289 164.242 288.835 163.892 288.504C163.562 288.154 163.397 287.727 163.397 287.221V276.345C160.889 276.345 158.974 277.637 157.652 280.223L154.561 286.259C153.608 288.086 152.112 289 150.07 289H144.588C143.83 289 143.373 288.738 143.218 288.213ZM200.43 285.326C197.436 282.488 195.939 278.405 195.939 273.079C195.939 267.733 197.446 263.631 200.459 260.773C203.472 257.896 207.652 256.457 212.998 256.457C218.344 256.457 222.514 257.857 225.507 260.656C228.501 263.436 229.998 267.431 229.998 272.641V274.303C229.998 274.828 229.823 275.266 229.473 275.616C229.143 275.946 228.715 276.111 228.19 276.111H206.233C206.427 278.502 207.107 280.242 208.274 281.331C209.46 282.42 211.345 282.964 213.931 282.964C216.516 282.964 218.285 282.381 219.238 281.214C220.191 280.048 221.367 279.455 222.766 279.435H227.111C227.636 279.435 228.064 279.61 228.394 279.96C228.744 280.291 228.919 280.719 228.919 281.243C228.919 286.823 223.602 289.603 212.969 289.583C207.603 289.583 203.424 288.164 200.43 285.326ZM206.174 269.958H219.734C219.539 265.371 217.284 263.077 212.969 263.077C208.672 263.077 206.408 265.371 206.174 269.958ZM232.068 262.319V258.848C232.068 258.324 232.234 257.896 232.564 257.565C232.914 257.216 233.352 257.041 233.876 257.041H262.599C263.124 257.041 263.552 257.216 263.882 257.565C264.213 257.896 264.378 258.324 264.378 258.848V262.319C264.378 262.824 264.213 263.252 263.882 263.602C263.552 263.932 263.124 264.097 262.599 264.097H253.297V287.221C253.297 287.727 253.122 288.154 252.772 288.504C252.442 288.835 252.014 289 251.489 289H244.986C244.461 289 244.024 288.835 243.674 288.504C243.344 288.154 243.178 287.727 243.178 287.221V264.097H233.876C233.352 264.097 232.914 263.932 232.564 263.602C232.234 263.252 232.068 262.824 232.068 262.319ZM283.478 289.583C278.034 289.583 273.797 288.184 270.764 285.384C267.731 282.585 266.215 278.473 266.215 273.049C266.215 267.606 267.721 263.485 270.735 260.686C273.748 257.867 277.937 256.457 283.303 256.457C288.688 256.457 292.819 257.313 295.696 259.023C298.592 260.734 300.041 263.261 300.041 266.605C300.041 267.13 299.866 267.558 299.516 267.888C299.185 268.219 298.758 268.384 298.233 268.384H293.888C292.566 268.384 291.448 267.674 290.534 266.255C289.387 264.428 287.356 263.514 284.44 263.514C281.543 263.514 279.512 264.263 278.345 265.759C277.199 267.237 276.625 269.657 276.625 273.02C276.625 276.383 277.218 278.813 278.404 280.31C279.609 281.807 281.689 282.556 284.644 282.556C287.618 282.556 289.679 281.642 290.826 279.815C291.74 278.376 292.857 277.657 294.179 277.657H298.524C299.049 277.657 299.477 277.832 299.807 278.182C300.157 278.512 300.332 278.93 300.332 279.435C300.332 282.779 298.884 285.306 295.987 287.017C293.11 288.728 288.94 289.583 283.478 289.583ZM303.686 267.334C303.686 260.491 308.021 257.06 316.691 257.041H333.895C334.42 257.041 334.848 257.216 335.178 257.565C335.509 257.896 335.674 258.324 335.674 258.848V287.221C335.674 287.746 335.509 288.174 335.178 288.504C334.848 288.835 334.42 289 333.895 289H327.393C326.868 289 326.43 288.835 326.081 288.504C325.75 288.154 325.585 287.727 325.585 287.221V277.598H319.869L314.912 286.434C313.96 288.145 312.443 289 310.363 289H305.114C304.395 289 303.929 288.738 303.715 288.213C303.637 288.038 303.598 287.814 303.598 287.542C303.598 287.25 303.744 286.881 304.036 286.434L309.897 276.636C305.756 275.1 303.686 272 303.686 267.334ZM314.796 264.681C314.115 265.322 313.775 266.207 313.775 267.334C313.775 268.442 314.105 269.327 314.766 269.988C315.447 270.649 316.39 270.979 317.595 270.979H325.585V263.689H317.595C316.409 263.689 315.476 264.02 314.796 264.681ZM349.175 279.552C351.683 279.552 352.937 280.476 352.937 282.322C352.937 282.828 352.801 283.421 352.529 284.101L349.059 292.878C348.65 293.831 348.038 294.628 347.222 295.269C346.405 295.911 345.482 296.232 344.451 296.232H343.314C342.089 296.232 341.312 295.969 340.981 295.444C340.67 294.939 340.515 294.414 340.515 293.87C340.515 293.325 340.554 292.801 340.631 292.295L342.352 282.906C342.527 281.992 343.061 281.205 343.956 280.544C344.85 279.883 345.793 279.552 346.784 279.552H349.175ZM377.081 288.213C377.004 288.057 376.965 287.834 376.965 287.542C376.965 287.231 377.12 286.803 377.431 286.259L381.776 278.24C383.331 275.343 385.402 273.594 387.987 272.991C386.529 272.641 385.256 271.99 384.167 271.037C383.098 270.065 382.301 268.967 381.776 267.742L378.627 259.811C378.394 259.169 378.258 258.644 378.219 258.236C378.219 257.439 378.695 257.041 379.648 257.041H385.13C386.082 257.041 386.938 257.293 387.696 257.799C388.454 258.304 388.988 258.975 389.3 259.811L391.516 265.759C392.507 268.384 394.422 269.696 397.26 269.696V258.848C397.26 258.324 397.425 257.896 397.756 257.565C398.106 257.216 398.534 257.041 399.039 257.041H405.571C406.076 257.041 406.494 257.216 406.825 257.565C407.175 257.896 407.35 258.324 407.35 258.848V269.696C410.168 269.696 412.083 268.384 413.094 265.759L415.281 259.811C415.612 258.975 416.156 258.304 416.914 257.799C417.672 257.293 418.528 257.041 419.48 257.041H424.962C425.876 257.041 426.333 257.439 426.333 258.236C426.333 258.644 426.216 259.169 425.983 259.811L422.804 267.742C422.299 268.967 421.502 270.065 420.413 271.037C419.344 271.99 418.071 272.641 416.593 272.991C419.198 273.594 421.269 275.343 422.804 278.24L427.178 286.259C427.489 286.803 427.645 287.231 427.645 287.542C427.645 287.834 427.606 288.057 427.528 288.213C427.373 288.738 426.916 289 426.158 289H420.676C418.635 289 417.138 288.086 416.185 286.259L413.094 280.223C411.772 277.637 409.857 276.345 407.35 276.345V287.221C407.35 287.727 407.175 288.154 406.825 288.504C406.494 288.835 406.076 289 405.571 289H399.039C398.534 289 398.106 288.835 397.756 288.504C397.425 288.154 397.26 287.727 397.26 287.221V276.345C394.752 276.345 392.838 277.637 391.516 280.223L388.425 286.259C387.472 288.086 385.975 289 383.934 289H378.452C377.694 289 377.237 288.738 377.081 288.213ZM431.902 287.221V258.848C431.902 258.324 432.068 257.896 432.398 257.565C432.748 257.216 433.176 257.041 433.681 257.041H439.776C440.3 257.041 440.728 257.216 441.059 257.565C441.409 257.896 441.584 258.324 441.584 258.848V278.007L451.848 259.14C452.159 258.537 452.635 258.042 453.277 257.653C453.918 257.245 454.54 257.041 455.143 257.041H463.308C463.833 257.041 464.26 257.216 464.591 257.565C464.941 257.896 465.116 258.324 465.116 258.848V287.221C465.116 287.746 464.941 288.174 464.591 288.504C464.26 288.835 463.833 289 463.308 289H457.213C456.688 289 456.261 288.835 455.93 288.504C455.6 288.154 455.435 287.727 455.435 287.221V268.092L445.17 286.9C444.859 287.464 444.383 287.96 443.741 288.388C443.1 288.796 442.478 289 441.875 289H433.681C433.156 289 432.729 288.835 432.398 288.504C432.068 288.174 431.902 287.746 431.902 287.221ZM472.26 287.221V258.848C472.26 258.324 472.425 257.896 472.756 257.565C473.106 257.216 473.533 257.041 474.039 257.041H491.476C495.189 257.041 498.193 257.76 500.487 259.198C502.8 260.637 503.957 262.805 503.957 265.701C503.957 268.578 502.761 270.756 500.37 272.233C503.772 273.944 505.473 276.481 505.473 279.844C505.473 283.207 504.375 285.579 502.178 286.959C499.981 288.32 496.832 289 492.73 289H474.039C473.533 289 473.106 288.835 472.756 288.504C472.425 288.154 472.26 287.727 472.26 287.221ZM482.349 282.497H492.03C493.1 282.497 493.916 282.196 494.48 281.593C495.063 280.991 495.355 280.194 495.355 279.202C495.355 278.211 495.063 277.414 494.48 276.811C493.916 276.208 493.1 275.907 492.03 275.907H482.349V282.497ZM482.349 269.521H490.893C491.768 269.521 492.478 269.249 493.022 268.705C493.586 268.141 493.868 267.422 493.868 266.547C493.868 265.672 493.586 264.962 493.022 264.418C492.478 263.854 491.768 263.572 490.893 263.572H482.349V269.521ZM513.317 285.384C510.285 282.585 508.768 278.463 508.768 273.02C508.768 267.558 510.285 263.436 513.317 260.656C516.35 257.857 520.704 256.457 526.381 256.457C532.077 256.457 536.441 257.857 539.474 260.656C542.506 263.436 544.023 267.558 544.023 273.02C544.023 278.463 542.506 282.585 539.474 285.384C536.441 288.184 532.077 289.583 526.381 289.583C520.704 289.583 516.35 288.184 513.317 285.384ZM520.695 265.439C519.489 267.013 518.887 269.531 518.887 272.991C518.887 276.451 519.489 278.979 520.695 280.573C521.9 282.167 523.795 282.964 526.381 282.964C528.986 282.964 530.891 282.167 532.096 280.573C533.321 278.979 533.933 276.451 533.933 272.991C533.933 269.531 533.321 267.013 532.096 265.439C530.891 263.864 528.986 263.077 526.381 263.077C523.795 263.077 521.9 263.864 520.695 265.439ZM545.831 262.319V258.848C545.831 258.324 545.996 257.896 546.326 257.565C546.676 257.216 547.114 257.041 547.639 257.041H576.361C576.886 257.041 577.314 257.216 577.644 257.565C577.975 257.896 578.14 258.324 578.14 258.848V262.319C578.14 262.824 577.975 263.252 577.644 263.602C577.314 263.932 576.886 264.097 576.361 264.097H567.059V287.221C567.059 287.727 566.884 288.154 566.534 288.504C566.204 288.835 565.776 289 565.251 289H558.749C558.224 289 557.786 288.835 557.436 288.504C557.106 288.154 556.941 287.727 556.941 287.221V264.097H547.639C547.114 264.097 546.676 263.932 546.326 263.602C545.996 263.252 545.831 262.824 545.831 262.319ZM582.368 287.221V258.848C582.368 258.324 582.534 257.896 582.864 257.565C583.214 257.216 583.642 257.041 584.147 257.041H590.679C591.204 257.041 591.631 257.216 591.962 257.565C592.292 257.896 592.458 258.324 592.458 258.848V269.288H605.23V258.848C605.23 258.324 605.395 257.896 605.726 257.565C606.075 257.216 606.513 257.041 607.038 257.041H613.54C614.065 257.041 614.493 257.216 614.823 257.565C615.154 257.896 615.319 258.324 615.319 258.848V287.221C615.319 287.746 615.154 288.174 614.823 288.504C614.493 288.835 614.065 289 613.54 289H607.038C606.513 289 606.075 288.835 605.726 288.504C605.395 288.154 605.23 287.727 605.23 287.221V276.345H592.458V287.221C592.458 287.746 592.283 288.174 591.933 288.504C591.602 288.835 591.184 289 590.679 289H584.147C583.622 289 583.195 288.835 582.864 288.504C582.534 288.174 582.368 287.746 582.368 287.221ZM622.493 287.221V258.848C622.493 258.324 622.658 257.896 622.988 257.565C623.338 257.216 623.766 257.041 624.271 257.041H630.803C631.328 257.041 631.756 257.216 632.086 257.565C632.417 257.896 632.582 258.324 632.582 258.848V267.626H639.522C643.663 267.626 646.861 268.442 649.116 270.075C651.39 271.708 652.527 274.459 652.527 278.327C652.527 282.177 651.39 284.918 649.116 286.551C646.861 288.184 643.663 289 639.522 289H624.271C623.746 289 623.319 288.835 622.988 288.504C622.658 288.174 622.493 287.746 622.493 287.221ZM632.407 282.497H638.618C641.165 282.497 642.438 281.107 642.438 278.327C642.438 275.528 641.165 274.128 638.618 274.128H632.407V282.497ZM656.639 287.221V258.848C656.639 258.324 656.804 257.896 657.135 257.565C657.485 257.216 657.922 257.041 658.447 257.041H664.95C665.475 257.041 665.902 257.216 666.233 257.565C666.563 257.896 666.728 258.324 666.728 258.848V287.221C666.728 287.746 666.563 288.174 666.233 288.504C665.902 288.835 665.475 289 664.95 289H658.447C657.922 289 657.485 288.835 657.135 288.504C656.804 288.174 656.639 287.746 656.639 287.221ZM676.614 285.326C673.62 282.488 672.123 278.405 672.123 273.079C672.123 267.733 673.63 263.631 676.643 260.773C679.656 257.896 683.836 256.457 689.182 256.457C694.528 256.457 698.698 257.857 701.691 260.656C704.685 263.436 706.182 267.431 706.182 272.641V274.303C706.182 274.828 706.007 275.266 705.657 275.616C705.327 275.946 704.899 276.111 704.374 276.111H682.417C682.611 278.502 683.291 280.242 684.458 281.331C685.644 282.42 687.529 282.964 690.115 282.964C692.7 282.964 694.469 282.381 695.422 281.214C696.374 280.048 697.551 279.455 698.95 279.435H703.295C703.82 279.435 704.248 279.61 704.578 279.96C704.928 280.291 705.103 280.719 705.103 281.243C705.103 286.823 699.786 289.603 689.152 289.583C683.787 289.583 679.607 288.164 676.614 285.326ZM682.358 269.958H695.918C695.723 265.371 693.468 263.077 689.152 263.077C684.856 263.077 682.591 265.371 682.358 269.958ZM738.695 292.033L742.515 292.528C745.256 292.528 747.171 290.516 748.26 286.492C744.955 286.492 742.195 285.501 739.978 283.518C737.762 281.516 735.857 277.968 734.263 272.874L729.918 258.79C729.86 258.635 729.831 258.46 729.831 258.265C729.831 258.051 729.947 257.799 730.181 257.507C730.433 257.216 730.803 257.06 731.289 257.041H737.383C737.947 257.041 738.482 257.235 738.987 257.624C739.512 257.993 739.852 258.46 740.008 259.023L743.828 271.387C744.78 274.42 745.742 276.519 746.714 277.686C747.706 278.852 748.872 279.435 750.214 279.435L756.017 259.023C756.172 258.46 756.473 257.993 756.92 257.624C757.387 257.235 757.902 257.041 758.466 257.041H764.619C765.105 257.041 765.464 257.196 765.698 257.507C765.931 257.818 766.048 258.081 766.048 258.294C766.048 258.489 766.028 258.654 765.989 258.79L758.349 286.026C756.989 290.847 755.297 294.288 753.275 296.348C751.273 298.409 748.688 299.439 745.519 299.439C742.35 299.439 740.105 299.323 738.783 299.089C737.48 298.856 736.664 298.565 736.333 298.215C736.003 297.884 735.838 297.495 735.838 297.048V293.841C735.838 293.316 736.003 292.878 736.333 292.528C736.664 292.198 737.092 292.033 737.617 292.033H738.695ZM767.01 287.075L772.259 265.876C773.736 259.986 778.616 257.041 786.897 257.041H800.69C801.195 257.041 801.613 257.216 801.944 257.565C802.294 257.896 802.468 258.324 802.468 258.848V287.221C802.468 287.727 802.294 288.154 801.944 288.504C801.613 288.835 801.195 289 800.69 289H794.158C793.652 289 793.225 288.835 792.875 288.504C792.544 288.154 792.379 287.727 792.379 287.221V264.097H786.897C784.175 264.097 782.455 265.526 781.736 268.384L777.158 286.842C776.983 287.484 776.633 288.009 776.108 288.417C775.602 288.806 775.058 289 774.475 289H768.497C767.972 289 767.574 288.844 767.301 288.533C767.049 288.203 766.922 287.921 766.922 287.688C766.922 287.455 766.952 287.25 767.01 287.075ZM812.325 285.326C809.331 282.488 807.834 278.405 807.834 273.079C807.834 267.733 809.341 263.631 812.354 260.773C815.367 257.896 819.547 256.457 824.893 256.457C830.239 256.457 834.408 257.857 837.402 260.656C840.396 263.436 841.893 267.431 841.893 272.641V274.303C841.893 274.828 841.718 275.266 841.368 275.616C841.038 275.946 840.61 276.111 840.085 276.111H818.127C818.322 278.502 819.002 280.242 820.169 281.331C821.354 282.42 823.24 282.964 825.826 282.964C828.411 282.964 830.18 282.381 831.133 281.214C832.085 280.048 833.262 279.455 834.661 279.435H839.006C839.531 279.435 839.959 279.61 840.289 279.96C840.639 280.291 840.814 280.719 840.814 281.243C840.814 286.823 835.497 289.603 824.863 289.583C819.498 289.583 815.318 288.164 812.325 285.326ZM818.069 269.958H831.629C831.434 265.371 829.179 263.077 824.863 263.077C820.567 263.077 818.302 265.371 818.069 269.958ZM843.963 262.319V258.848C843.963 258.324 844.128 257.896 844.459 257.565C844.809 257.216 845.246 257.041 845.771 257.041H874.494C875.019 257.041 875.446 257.216 875.777 257.565C876.107 257.896 876.273 258.324 876.273 258.848V262.319C876.273 262.824 876.107 263.252 875.777 263.602C875.446 263.932 875.019 264.097 874.494 264.097H865.192V287.221C865.192 287.727 865.017 288.154 864.667 288.504C864.336 288.835 863.909 289 863.384 289H856.881C856.356 289 855.919 288.835 855.569 288.504C855.238 288.154 855.073 287.727 855.073 287.221V264.097H845.771C845.246 264.097 844.809 263.932 844.459 263.602C844.128 263.252 843.963 262.824 843.963 262.319ZM882.892 285.326C879.898 282.488 878.401 278.405 878.401 273.079C878.401 267.733 879.908 263.631 882.921 260.773C885.934 257.896 890.114 256.457 895.46 256.457C900.806 256.457 904.976 257.857 907.97 260.656C910.963 263.436 912.46 267.431 912.46 272.641V274.303C912.46 274.828 912.285 275.266 911.935 275.616C911.605 275.946 911.177 276.111 910.652 276.111H888.695C888.889 278.502 889.57 280.242 890.736 281.331C891.922 282.42 893.807 282.964 896.393 282.964C898.979 282.964 900.748 282.381 901.7 281.214C902.653 280.048 903.829 279.455 905.229 279.435H909.573C910.098 279.435 910.526 279.61 910.856 279.96C911.206 280.291 911.381 280.719 911.381 281.243C911.381 286.823 906.064 289.603 895.431 289.583C890.065 289.583 885.886 288.164 882.892 285.326ZM888.636 269.958H902.196C902.001 265.371 899.746 263.077 895.431 263.077C891.134 263.077 888.87 265.371 888.636 269.958ZM914.91 287.075L920.159 265.876C921.636 259.986 926.515 257.041 934.797 257.041H948.59C949.095 257.041 949.513 257.216 949.843 257.565C950.193 257.896 950.368 258.324 950.368 258.848V287.221C950.368 287.727 950.193 288.154 949.843 288.504C949.513 288.835 949.095 289 948.59 289H942.058C941.552 289 941.125 288.835 940.775 288.504C940.444 288.154 940.279 287.727 940.279 287.221V264.097H934.797C932.075 264.097 930.355 265.526 929.636 268.384L925.057 286.842C924.882 287.484 924.533 288.009 924.008 288.417C923.502 288.806 922.958 289 922.375 289H916.397C915.872 289 915.473 288.844 915.201 288.533C914.949 288.203 914.822 287.921 914.822 287.688C914.822 287.455 914.851 287.25 914.91 287.075ZM957.542 287.221V258.848C957.542 258.324 957.707 257.896 958.037 257.565C958.387 257.216 958.815 257.041 959.32 257.041H965.415C965.94 257.041 966.367 257.216 966.698 257.565C967.048 257.896 967.223 258.324 967.223 258.848V278.007L977.487 259.14C977.798 258.537 978.275 258.042 978.916 257.653C979.558 257.245 980.18 257.041 980.782 257.041H988.947C989.472 257.041 989.9 257.216 990.23 257.565C990.58 257.896 990.755 258.324 990.755 258.848V287.221C990.755 287.746 990.58 288.174 990.23 288.504C989.9 288.835 989.472 289 988.947 289H982.853C982.328 289 981.9 288.835 981.57 288.504C981.239 288.154 981.074 287.727 981.074 287.221V268.092L970.81 286.9C970.498 287.464 970.022 287.96 969.381 288.388C968.739 288.796 968.117 289 967.514 289H959.32C958.796 289 958.368 288.835 958.037 288.504C957.707 288.174 957.542 287.746 957.542 287.221Z" fill="#FFD738"/>
<path d="M276.297 674.336C276.297 604.39 332.999 547.687 402.945 547.687C472.891 547.687 529.593 604.39 529.593 674.336L529.593 818.697L276.297 818.697L276.297 674.336Z" fill="#FFD738"/>
<path d="M321.906 681.812C321.906 681.812 343.471 714.79 404.12 714.79C464.77 714.79 485.391 681.812 485.391 681.812" stroke="#191919" stroke-width="4.51435" stroke-linecap="round"/>
<path d="M356.866 522.234L385.156 522.234L385.156 601.474L356.866 601.474L356.866 522.234Z" fill="#FFD738"/>
<path d="M428.291 522.234L456.581 522.234L456.581 592.798L428.291 592.798L428.291 522.234Z" fill="#FFD738"/>
<ellipse cx="371.01" cy="511.533" rx="21.3679" ry="20.5329" fill="#FFD738"/>
<ellipse cx="442.431" cy="511.533" rx="21.3679" ry="20.5329" fill="#FFD738"/>
<ellipse cx="406.113" cy="637.305" rx="45.5949" ry="43.8132" fill="white"/>
<ellipse cx="406.27" cy="637.431" rx="38.5224" ry="37.0171" fill="#191919"/>
<path d="M828.891 674.336C828.891 604.39 885.593 547.687 955.539 547.687C1025.48 547.687 1082.19 604.39 1082.19 674.336L1082.19 818.697L828.891 818.697L828.891 674.336Z" fill="#FFD738"/>
<path d="M874.5 681.812C874.5 681.812 896.064 714.79 956.714 714.79C1017.36 714.79 1037.98 681.812 1037.98 681.812" stroke="#191919" stroke-width="4.51435" stroke-linecap="round"/>
<path d="M909.461 522.234L937.751 522.234L937.751 601.474L909.461 601.474L909.461 522.234Z" fill="#FFD738"/>
<path d="M980.885 522.234L1009.17 522.234L1009.17 592.798L980.885 592.798L980.885 522.234Z" fill="#FFD738"/>
<ellipse cx="923.604" cy="511.533" rx="21.3679" ry="20.5329" fill="#FFD738"/>
<ellipse cx="995.026" cy="511.533" rx="21.3679" ry="20.5329" fill="#FFD738"/>
<ellipse cx="958.708" cy="637.305" rx="45.5949" ry="43.8132" fill="white"/>
<ellipse cx="958.864" cy="637.431" rx="38.5224" ry="37.0171" fill="#191919"/>
<path d="M2.21439e-05 674.336C9.91414e-06 604.39 56.7023 547.687 126.648 547.687C196.594 547.687 253.296 604.39 253.296 674.336L253.296 818.697L4.73848e-05 818.697L2.21439e-05 674.336Z" fill="#4BDEFF"/>
<path d="M45.6093 681.812C45.6093 681.812 67.1736 714.79 127.823 714.79C188.473 714.79 209.094 681.812 209.094 681.812" stroke="#191919" stroke-width="4.51435" stroke-linecap="round"/>
<path d="M80.5693 522.234L108.859 522.234L108.859 601.474L80.5693 601.474L80.5693 522.234Z" fill="#4BDEFF"/>
<path d="M151.993 522.234L180.283 522.234L180.283 592.798L151.993 592.798L151.993 522.234Z" fill="#4BDEFF"/>
<ellipse cx="94.7126" cy="511.533" rx="21.3679" ry="20.5329" fill="#4BDEFF"/>
<ellipse cx="166.135" cy="511.533" rx="21.3679" ry="20.5329" fill="#4BDEFF"/>
<ellipse cx="129.817" cy="637.305" rx="45.5949" ry="43.8132" fill="white"/>
<ellipse cx="129.973" cy="637.431" rx="38.5224" ry="37.0171" fill="#191919"/>
<path d="M552.594 674.336C552.594 604.39 609.296 547.687 679.242 547.687C749.188 547.687 805.89 604.39 805.89 674.336L805.89 818.697L552.594 818.697L552.594 674.336Z" fill="#4BDEFF"/>
<path d="M598.203 681.812C598.203 681.812 619.767 714.79 680.417 714.79C741.067 714.79 761.688 681.812 761.688 681.812" stroke="#191919" stroke-width="4.51435" stroke-linecap="round"/>
<path d="M633.164 522.234L661.454 522.234L661.454 601.474L633.164 601.474L633.164 522.234Z" fill="#4BDEFF"/>
<path d="M704.588 522.234L732.878 522.234L732.878 592.798L704.588 592.798L704.588 522.234Z" fill="#4BDEFF"/>
<ellipse cx="647.305" cy="511.533" rx="21.3679" ry="20.5329" fill="#4BDEFF"/>
<ellipse cx="718.727" cy="511.533" rx="21.3679" ry="20.5329" fill="#4BDEFF"/>
<ellipse cx="682.409" cy="637.305" rx="45.5949" ry="43.8132" fill="white"/>
<ellipse cx="682.565" cy="637.431" rx="38.5224" ry="37.0171" fill="#191919"/>
<path d="M1105.19 674.336C1105.19 604.39 1161.89 547.687 1231.84 547.687C1301.78 547.687 1358.48 604.39 1358.48 674.336L1358.48 818.697L1105.19 818.697L1105.19 674.336Z" fill="#4BDEFF"/>
<path d="M1150.8 681.812C1150.8 681.812 1172.36 714.79 1233.01 714.79C1293.66 714.79 1314.28 681.812 1314.28 681.812" stroke="#191919" stroke-width="4.51435" stroke-linecap="round"/>
<path d="M1185.76 522.234L1214.05 522.234L1214.05 601.474L1185.76 601.474L1185.76 522.234Z" fill="#4BDEFF"/>
<path d="M1257.18 522.234L1285.47 522.234L1285.47 592.798L1257.18 592.798L1257.18 522.234Z" fill="#4BDEFF"/>
<ellipse cx="1199.9" cy="511.533" rx="21.3679" ry="20.5329" fill="#4BDEFF"/>
<ellipse cx="1271.32" cy="511.533" rx="21.3679" ry="20.5329" fill="#4BDEFF"/>
<ellipse cx="1235" cy="637.305" rx="45.5949" ry="43.8132" fill="white"/>
<ellipse cx="1235.16" cy="637.431" rx="38.5224" ry="37.0171" fill="#191919"/>
</g>
<defs>
<clipPath id="clip0_5_617">
<rect width="1358.48" height="819" rx="50" fill="white"/>
</clipPath>
</defs>
</svg>
