<svg width="167" height="139" viewBox="0 0 167 139" fill="none" xmlns="http://www.w3.org/2000/svg">
<path d="M167 50C167 22.3858 144.614 0 117 0H50C22.3858 0 0 22.3858 0 50V73C0 100.614 22.3858 123 50 123H117C144.614 123 167 100.614 167 73V50Z" fill="white"/>
<path d="M25.7126 63.4477C23.1047 61.9444 22.5411 58.3512 24.5406 56.1011C29.1682 50.8935 36.6341 41.96 40.7874 34.1747C43.9061 28.3285 46.5582 20.5027 48.6512 13.0317C50.0074 8.19047 57.8757 8.22494 58.8865 13.1498L64.2931 39.5026C74.8476 38.8825 92.0541 35.5071 102.555 35.2217C116.694 34.8374 126.298 37.7657 135.098 53.2234C143.898 68.6813 148.838 89.4838 133.66 100.102C124.818 106.287 112.538 101.753 110.382 91.25C108.225 80.7468 110.948 68.8516 98.4073 64.2824C88.0803 60.5199 79.2931 61.9521 70.0473 67.5496L75.6204 94.7092C76.612 99.5416 69.8504 102.584 66.7318 98.7616C60.2627 90.8323 52.3591 81.9643 45.2196 76.2356C39.4481 71.6047 31.0813 66.5423 25.7126 63.4477Z" fill="#FF6DA3"/>
</svg>
