<svg width="127" height="127" viewBox="0 0 127 127" fill="none" xmlns="http://www.w3.org/2000/svg">
<path fill-rule="evenodd" clip-rule="evenodd" d="M94.7115 31.2973L94.4219 32.2247L94.1642 33.0966L93.9362 33.9178L93.736 34.6925L93.5619 35.4246L93.4123 36.1175L93.286 36.7743L93.1817 37.3979L93.0983 37.9907L93.0348 38.5551L92.9904 39.0932L92.9643 39.607L92.9557 40.0984L92.964 40.5688L92.9886 41.0199L93.0289 41.4531L93.0844 41.8697L93.1548 42.2709L93.2395 42.658L93.3381 43.0318L93.4503 43.3936L93.5759 43.7441L93.7143 44.0844L93.8654 44.4153L94.0289 44.7376L94.2044 45.052L94.3917 45.3593L94.5905 45.6603L94.8007 45.9556L95.0218 46.2458L95.2536 46.5316L95.4959 46.8136L95.7484 47.0925L96.0107 47.3687L96.2827 47.6428L96.5638 47.9154L96.8539 48.1871L97.1525 48.4583L97.4593 48.7295L97.7738 49.0013L98.0956 49.2741L98.4243 49.5484L98.7593 49.8246L99.1001 50.1033L99.4462 50.3847L99.7969 50.6695L100.152 50.9578L100.51 51.2502L100.87 51.547L101.233 51.8486L101.596 52.1552L101.96 52.4672L102.323 52.7848L102.685 53.1084L103.044 53.4382L103.4 53.7742L103.751 54.1168L104.096 54.466L104.435 54.822L104.766 55.1847L105.089 55.5543L105.402 55.9307L105.703 56.3137L105.993 56.7034L106.27 57.0996L106.532 57.5021L106.779 57.9106L107.01 58.3249L107.224 58.7447L107.42 59.1696L107.597 59.5991L107.755 60.033L107.892 60.4707L108.009 60.9116L108.104 61.3554L108.177 61.8015L108.228 62.2492L108.257 62.6981L108.263 63.1476L108.247 63.597L108.209 64.0458L108.148 64.4934L108.066 64.9392L107.962 65.3828L107.837 65.8235L107.691 66.2608L107.526 66.6944L107.342 67.1236L107.14 67.5482L106.92 67.9677L106.684 68.3818L106.433 68.7902L106.167 69.1926L105.888 69.5889L105.597 69.9787L105.294 70.3621L104.981 70.7389L104.66 71.1091L104.33 71.4727L103.993 71.8297L103.651 72.1801L103.304 72.5241L102.954 72.8619L102.6 73.1935L102.245 73.5192L101.889 73.8393L101.533 74.1539L101.178 74.4635L100.824 74.7682L100.473 75.0684L100.125 75.3645L99.781 75.6569L99.4415 75.9458L99.1071 76.2318L98.7784 76.5153L98.456 76.7966L98.1403 77.0763L97.8319 77.3547L97.5312 77.6324L97.2386 77.9098L96.9545 78.1875L96.6793 78.4659L96.4134 78.7456L96.157 79.0272L95.9106 79.311L95.6744 79.5979L95.4487 79.8882L95.2339 80.1827L95.0301 80.4819L94.8377 80.7865L94.6569 81.0973L94.4882 81.4148L94.3316 81.7398L94.1876 82.073L94.0564 82.4154L93.9384 82.7677L93.8339 83.1308L93.7432 83.5057L93.6668 83.8934L93.6051 84.2948L93.5585 84.7113L93.5275 85.1439L93.5125 85.5939L93.5143 86.0629L93.5335 86.5522L93.5706 87.0635L93.6265 87.5986L93.7021 88.1594L93.7982 88.7479L93.9159 89.3666L94.0563 90.0178L94.2207 90.7045L94.4105 91.4295L94.6273 92.1963L94.8729 93.0087L95.1492 93.8708L95.4585 94.7872L94.6285 94.5937L93.7519 94.3321L92.9264 94.1005L92.1478 93.8969L91.4121 93.7196L90.716 93.5671L90.0562 93.4379L89.4299 93.3309L88.8346 93.2449L88.2679 93.179L87.7276 93.1323L87.2118 93.1039L86.7188 93.0932L86.2467 93.0994L85.7941 93.122L85.3596 93.1604L84.9418 93.2141L84.5395 93.2826L84.1515 93.3655L83.7768 93.4625L83.4142 93.5731L83.063 93.697L82.7221 93.8339L82.3908 93.9834L82.0681 94.1454L81.7533 94.3195L81.4457 94.5054L81.1446 94.7028L80.8492 94.9116L80.559 95.1313L80.2732 95.3619L79.9912 95.6029L79.7126 95.8541L79.4366 96.1153L79.1627 96.386L78.8904 96.666L78.6191 96.9549L78.3484 97.2524L78.0776 97.5581L77.8064 97.8716L77.5342 98.1924L77.2606 98.5201L76.985 98.8542L76.7071 99.1941L76.4264 99.5393L76.1425 99.8892L75.855 100.243L75.5635 100.601L75.2676 100.961L74.967 101.322L74.6614 101.685L74.3504 102.049L74.0338 102.411L73.7112 102.773L73.3825 103.131L73.0475 103.487L72.706 103.838L72.3579 104.183L72.003 104.522L71.6413 104.853L71.2727 105.176L70.8974 105.489L70.5153 105.791L70.1266 106.081L69.7313 106.358L69.3297 106.621L68.9221 106.869L68.5086 107.101L68.0896 107.315L67.6654 107.512L67.2364 107.69L66.8031 107.848L66.366 107.987L65.9254 108.104L65.4819 108.2L65.0361 108.274L64.5886 108.327L64.1398 108.357L63.6904 108.364L63.2409 108.349L62.792 108.312L62.3441 108.252L61.898 108.17L61.454 108.068L61.0129 107.944L60.575 107.799L60.1409 107.635L59.7109 107.452L59.2856 107.25L58.8654 107.031L58.4504 106.796L58.0412 106.545L57.6378 106.28L57.2406 106.001L56.8498 105.71L56.4654 105.408L56.0875 105.095L55.7163 104.773L55.3517 104.444L54.9936 104.107L54.6421 103.765L54.297 103.418L53.9582 103.067L53.6256 102.713L53.2988 102.357L52.9777 102.001L52.6621 101.644L52.3516 101.289L52.0459 100.934L51.7448 100.583L51.4478 100.234L51.1546 99.8892L50.8648 99.5488L50.5781 99.2136L50.2939 98.884L50.0119 98.5606L49.7316 98.2439L49.4526 97.9345L49.1744 97.6327L48.8964 97.339L48.6183 97.0538L48.3396 96.7775L48.0595 96.5103L47.7778 96.2528L47.4937 96.0051L47.2067 95.7676L46.9163 95.5407L46.6219 95.3245L46.3227 95.1193L46.0182 94.9255L45.7077 94.7434L45.3905 94.5731L45.0658 94.4151L44.733 94.2695L44.3912 94.1368L44.0395 94.0172L43.6771 93.911L43.303 93.8186L42.9163 93.7405L42.5158 93.6769L42.1006 93.6284L41.6692 93.5955L41.2206 93.5785L40.7532 93.5782L40.2655 93.5952L39.7561 93.6301L39.223 93.6836L38.6644 93.7567L38.0783 93.8502L37.4623 93.9652L36.8139 94.1027L36.1305 94.264L35.4089 94.4506L34.6458 94.664L33.8376 94.9059L32.98 95.1783L32.0685 95.4834L32.1637 94.7517L32.4263 93.8713L32.6589 93.0423L32.8634 92.2604L33.0416 91.5218L33.195 90.8228L33.3249 90.1605L33.4327 89.5318L33.5193 88.9343L33.5859 88.3655L33.6333 87.8233L33.6623 87.3058L33.6736 86.811L33.6679 86.3373L33.6459 85.8832L33.6081 85.4472L33.5549 85.0281L33.4869 84.6245L33.4045 84.2353L33.3081 83.8594L33.198 83.4958L33.0745 83.1435L32.9381 82.8016L32.789 82.4693L32.6275 82.1457L32.4539 81.8301L32.2685 81.5217L32.0714 81.2198L31.8631 80.9236L31.6437 80.6326L31.4136 80.3462L31.1729 80.0636L30.922 79.7843L30.6612 79.5077L30.3908 79.2333L30.1111 78.9604L29.8224 78.6886L29.5251 78.4174L29.2197 78.1462L28.9063 77.8746L28.5857 77.602L28.258 77.3279L27.924 77.052L27.5841 76.7738L27.2388 76.4928L26.8888 76.2086L26.5347 75.9209L26.1771 75.6292L25.8168 75.3331L25.4545 75.0323L25.0911 74.7265L24.7273 74.4154L24.364 74.0987L24.0021 73.776L23.6425 73.4473L23.2864 73.1122L22.9345 72.7707L22.588 72.4225L22.2479 72.0677L21.9153 71.706L21.5914 71.3375L21.277 70.9623L20.9735 70.5802L20.6818 70.1916L20.4031 69.7964L20.1383 69.3949L19.8886 68.9873L19.6549 68.5739L19.4381 68.155L19.2393 67.7309L19.0591 67.3021L18.8984 66.8689L18.7578 66.4318L18.638 65.9913L18.5396 65.5479L18.4628 65.1022L18.4081 64.6547L18.3758 64.2059L18.3658 63.7565L18.3783 63.3071L18.4133 62.8581L18.4704 62.4103L18.5494 61.9641L18.65 61.5202L18.7716 61.079L18.9138 60.6411L19.0758 60.2069L19.2569 59.7769L19.4564 59.3516L19.6732 58.9313L19.9067 58.5163L20.1557 58.107L20.4192 57.7036L20.6963 57.3063L20.9858 56.9154L21.2867 56.531L21.5979 56.1531L21.9182 55.7819L22.2466 55.4173L22.5821 55.0593L22.9235 54.7078L23.2698 54.3628L23.6199 54.024L23.973 53.6914L24.328 53.3648L24.684 53.0438L25.0401 52.7283L25.3955 52.418L25.7493 52.1126L26.1009 51.8116L26.4493 51.5149L26.794 51.222L27.1343 50.9325L27.4695 50.646L27.7992 50.3622L28.1226 50.0806L28.4394 49.8007L28.749 49.5221L29.051 49.2443L29.3449 48.9669L29.6304 48.6893L29.907 48.411L30.1744 48.1315L30.4323 47.8503L30.6803 47.5669L30.9182 47.2806L31.1456 46.9908L31.3622 46.697L31.5678 46.3986L31.762 46.0949L31.9446 45.7852L32.1153 45.4688L32.2738 45.1451L32.4199 44.8131L32.5531 44.4723L32.6732 44.1216L32.7799 43.7603L32.8728 43.3873L32.9515 43.0018L33.0156 42.6026L33.0647 42.1886L33.0982 41.7587L33.1157 41.3115L33.1166 40.8457L33.1003 40.3597L33.0661 39.852L33.0132 39.3208L32.9408 38.7643L32.8481 38.1803L32.7339 37.5666L32.5972 36.9207L32.4367 36.2399L32.251 35.5212L32.0386 34.7613L31.7978 33.9564L31.5265 33.1026L31.2226 32.1951L31.8564 32.1943L32.7416 32.4608L33.5749 32.697L34.3607 32.905L35.103 33.0864L35.8052 33.2428L36.4706 33.3756L37.102 33.486L37.7021 33.5753L38.2732 33.6443L38.8176 33.694L39.3371 33.7253L39.8337 33.7388L40.309 33.7352L40.7646 33.7152L41.2019 33.6793L41.6223 33.628L42.027 33.5618L42.4172 33.4811L42.7939 33.3864L43.1583 33.278L43.5113 33.1561L43.8538 33.0213L44.1866 32.8737L44.5106 32.7137L44.8266 32.5416L45.1353 32.3575L45.4374 32.1619L45.7336 31.9549L46.0247 31.7369L46.3111 31.5081L46.5936 31.2687L46.8728 31.0191L47.1492 30.7595L47.4233 30.4903L47.6959 30.2117L47.9672 29.9242L48.238 29.628L48.5088 29.3236L48.7799 29.0113L49.0519 28.6917L49.3253 28.365L49.6005 28.0319L49.878 27.6929L50.1582 27.3485L50.4416 26.9993L50.7285 26.6459L51.0193 26.2891L51.3145 25.9295L51.6143 25.5678L51.9191 25.2049L52.2292 24.8416L52.545 24.4788L52.8666 24.1172L53.1942 23.758L53.5282 23.4021L53.8687 23.0504L54.2158 22.704L54.5696 22.3639L54.9302 22.0313L55.2976 21.7072L55.6719 21.3926L56.0529 21.0888L56.4406 20.7968L56.8348 20.5176L57.2354 20.2523L57.6421 20.002L58.0547 19.7677L58.4729 19.5502L58.8963 19.3506L59.3245 19.1695L59.7571 19.0079L60.1937 18.8665L60.6338 18.7457L61.0768 18.6462L61.5223 18.5684L61.9696 18.5127L62.4182 18.4793L62.8676 18.4682L63.3171 18.4797L63.7661 18.5135L64.2142 18.5696L64.6606 18.6476L65.105 18.7472L65.5466 18.8679L65.985 19.0091L66.4198 19.1702L66.8504 19.3505L67.2765 19.5492L67.6976 19.7654L68.1134 19.9982L68.5236 20.2466L68.9279 20.5097L69.3261 20.7863L69.7179 21.0755L70.1034 21.3761L70.4823 21.6871L70.8546 22.0074L71.2203 22.3357L71.5793 22.6712L71.9319 23.0127L72.278 23.3592L72.6178 23.7096L72.9514 24.063L73.2791 24.4184L73.6011 24.7748L73.9176 25.1315L74.2289 25.4874L74.5353 25.8419L74.8371 26.1941L75.1347 26.5432L75.4285 26.8887L75.7188 27.2298L76.006 27.5659L76.2906 27.8965L76.5729 28.2209L76.8534 28.5386L77.1326 28.8493L77.4109 29.1523L77.6888 29.4473L77.9669 29.7339L78.2455 30.0116L78.5253 30.2803L78.8068 30.5394L79.0904 30.7886L79.3769 31.0277L79.6667 31.2564L79.9605 31.4744L80.2589 31.6813L80.5625 31.8769L80.872 32.0609L81.1881 32.2331L81.5115 32.3931L81.8429 32.5406L82.1833 32.6755L82.5333 32.7972L82.894 32.9055L83.2661 33.0001L83.6508 33.0806L84.0489 33.1465L84.4618 33.1974L84.8905 33.2329L85.3363 33.2524L85.8006 33.2554L86.2849 33.2412L86.7908 33.2092L87.32 33.1587L87.8743 33.0888L88.456 32.9986L89.067 32.8871L89.7101 32.7533L90.3878 32.5958L91.1031 32.4134L91.8593 32.2044L92.66 31.9671L93.5094 31.6997L94.412 31.4L94.7115 31.2973Z" fill="#1565C0"/>
<circle cx="43.296" cy="67.9505" r="11.0616" fill="#FFD738"/>
<circle cx="65.421" cy="45.8275" r="11.0616" fill="#FFD738"/>
<circle cx="43.6139" cy="68.2665" r="6.32091" fill="#191919"/>
<circle cx="65.735" cy="46.1434" r="6.32091" fill="#191919"/>
<circle cx="18.3319" cy="63.2101" r="6.953" fill="#FFD738"/>
<circle cx="63.2108" cy="21.4924" r="6.953" fill="#FFD738"/>
<circle cx="106.824" cy="63.2101" r="6.953" fill="#FFD738"/>
<circle cx="65.7382" cy="105.56" r="6.953" fill="#FFD738"/>
</svg>
