<svg width="99" height="88" viewBox="0 0 99 88" fill="none" xmlns="http://www.w3.org/2000/svg">
<path fill-rule="evenodd" clip-rule="evenodd" d="M93.1361 44.0041L91.8378 44.3997L90.7938 44.7746L89.9686 45.1354L89.3343 45.4877L88.8682 45.8359L88.5516 46.1842L88.3688 46.536L88.3063 46.8941L88.3522 47.2614L88.4954 47.6398L88.7254 48.0315L89.032 48.4377L89.4047 48.8596L89.8326 49.2977L90.3042 49.7522L90.8074 50.2225L91.3294 50.7075L91.8567 51.2055L92.3752 51.7141L92.8711 52.2305L93.3304 52.7511L93.7403 53.2721L94.0889 53.7894L94.3666 54.2987L94.5656 54.7962L94.6813 55.2781L94.7116 55.7415L94.6576 56.1839L94.5232 56.604L94.3148 57.0012L94.041 57.3759L93.7117 57.7293L93.3383 58.0635L92.9323 58.381L92.5053 58.6852L92.0686 58.9794L91.6325 59.2673L91.2065 59.5528L90.7988 59.8396L90.4165 60.1313L90.0652 60.4312L89.7495 60.7425L89.4726 61.068L89.2366 61.41L89.0423 61.7706L88.8895 62.1513L88.7768 62.5529L88.7021 62.976L88.6618 63.4203L88.6514 63.8848L88.6655 64.3677L88.6976 64.8667L88.7403 65.3781L88.7853 65.8979L88.8236 66.4206L88.8456 66.9405L88.8416 67.4509L88.8019 67.9445L88.7174 68.414L88.5798 68.8521L88.3821 69.2517L88.1191 69.6068L87.788 69.9123L87.3878 70.1646L86.9205 70.362L86.3902 70.5045L85.8032 70.5941L85.1678 70.6345L84.4938 70.6311L83.7919 70.5908L83.0733 70.5216L82.3493 70.432L81.6309 70.3313L80.9284 70.2288L80.2513 70.1339L79.6085 70.0559L79.0075 70.0039L78.4554 69.9867L77.9582 70.0132L77.5215 70.0922L77.1505 70.2326L76.8503 70.4438L76.626 70.7361L76.4832 71.1206L76.4282 71.6101L76.4682 72.2195L76.6123 72.9665L76.8716 73.8727L77.2598 74.9645L77.3651 75.7371L76.2891 75.0224L75.3807 74.4861L74.6142 74.1062L73.9688 73.8653L73.4277 73.7494L72.9766 73.747L72.6035 73.8485L72.2979 74.0456L72.0506 74.3306L71.8532 74.6966L71.6977 75.1365L71.5767 75.6432L71.4828 76.2092L71.4088 76.826L71.3475 77.4848L71.2918 78.1755L71.2344 78.8872L71.1684 79.6083L71.087 80.3262L70.9839 81.0281L70.8534 81.7014L70.6907 82.3335L70.492 82.9132L70.2547 83.4306L69.9777 83.8779L69.661 84.2497L69.3062 84.5432L68.916 84.7585L68.4944 84.8984L68.0458 84.9679L67.5753 84.9745L67.0884 84.9271L66.5903 84.836L66.0862 84.7118L65.5806 84.5656L65.0777 84.4081L64.5808 84.2497L64.0928 84.0997L63.6156 83.9667L63.1507 83.8582L62.6987 83.7803L62.26 83.7383L61.8342 83.7361L61.4206 83.7765L61.0182 83.8611L60.6255 83.9905L60.2409 84.164L59.8625 84.3796L59.4885 84.6343L59.1168 84.9238L58.7453 85.2423L58.3719 85.5829L57.9949 85.9375L57.6123 86.2966L57.2229 86.6498L56.8253 86.9859L56.4189 87.2929L56.0034 87.559L55.5791 87.7725L55.1465 87.9226L54.7072 88L54.2627 87.9975L53.8152 87.9101L53.3672 87.7358L52.9211 87.4756L52.4796 87.1335L52.045 86.7163L51.6194 86.2333L51.2045 85.6959L50.8015 85.117L50.411 84.5104L50.0331 83.8905L49.6673 83.2712L49.3125 82.6665L48.9672 82.0895L48.6294 81.5523L48.2966 81.0666L47.9661 80.643L47.6347 80.2917L47.2989 80.0224L46.9547 79.8448L46.5977 79.7687L46.2231 79.8047L45.8253 79.9644L45.3979 80.2611L44.9335 80.7104L44.4235 81.3312L43.8572 82.1466L43.2219 83.1856L42.8164 83.1454L42.6993 81.9257L42.5467 80.9386L42.3597 80.1522L42.1389 79.5409L41.8848 79.0837L41.5974 78.7634L41.2769 78.565L40.9233 78.4757L40.5369 78.4838L40.118 78.5785L39.6671 78.7495L39.1855 78.9863L38.6746 79.2786L38.1366 79.6154L37.5743 79.9855L36.9912 80.3768L36.3916 80.777L35.7806 81.1731L35.1639 81.5523L34.5478 81.9016L33.9388 82.2089L33.3437 82.4629L32.769 82.6542L32.2205 82.7751L31.7037 82.8203L31.2224 82.7873L30.7795 82.6762L30.3764 82.4898L30.0128 82.2333L29.6873 81.914L29.3969 81.5407L29.1377 81.1235L28.9047 80.6728L28.6927 80.1994L28.4956 79.7136L28.3076 79.2251L28.1228 78.7427L27.9354 78.2743L27.7403 77.8263L27.5324 77.4042L27.3074 77.0123L27.0616 76.6536L26.7919 76.3302L26.4957 76.043L26.1712 75.7919L25.8174 75.5759L25.4339 75.3932L25.0214 75.2408L24.5813 75.1153L24.1159 75.012L23.6286 74.9256L23.124 74.8501L22.6075 74.7787L22.0856 74.7041L21.566 74.6186L21.0569 74.5141L20.5674 74.3829L20.1067 74.2172L19.684 74.0102L19.3082 73.7562L18.9871 73.4506L18.7272 73.0907L18.5331 72.6755L18.4075 72.2061L18.3506 71.6856L18.3603 71.1189L18.4322 70.5124L18.5597 69.8738L18.7346 69.2117L18.9471 68.5353L19.1866 67.8534L19.4417 67.175L19.701 66.5084L19.9531 65.8612L20.1866 65.2401L20.3908 64.6511L20.5552 64.0992L20.6696 63.5888L20.7243 63.1236L20.7092 62.7068L20.6143 62.3414L20.4289 62.03L20.1413 61.7755L19.7386 61.5808L19.2059 61.4495L18.5254 61.3857L17.6759 61.3947L16.6314 61.4832L15.3594 61.6598L15.7 61.0523L16.5351 60.2312L17.1718 59.5225L17.6344 58.9081L17.9424 58.3735L18.1118 57.9063L18.1558 57.4963L18.0856 57.1346L17.9113 56.8135L17.642 56.5259L17.2862 56.2657L16.8527 56.0268L16.3502 55.8038L15.7882 55.5914L15.1767 55.3845L14.5265 55.1783L13.8496 54.9682L13.1586 54.7497L12.4669 54.519L11.7884 54.2724L11.1371 54.007L10.5265 53.7205L9.96936 53.4112L9.47689 53.0785L9.05827 52.7225L8.72021 52.3441L8.4666 51.945L8.29835 51.5278L8.2134 51.0951L8.20692 50.6502L8.27166 50.1965L8.39841 49.7372L8.57655 49.2754L8.79458 48.8139L9.04067 48.3548L9.30311 47.9001L9.57068 47.451L9.83299 47.0083L10.0806 46.5723L10.3054 46.143L10.5003 45.7199L10.6595 45.302L10.7786 44.8885L10.8544 44.478L10.8848 44.0691L10.8691 43.6605L10.8076 43.2507L10.702 42.8383L10.5551 42.4219L10.371 42.0006L10.1551 41.5733L9.91389 41.1395L9.65528 40.6989L9.3883 40.2518L9.12304 39.7988L8.87048 39.3409L8.64223 38.8799L8.45011 38.4179L8.30579 37.9575L8.22022 37.5017L8.20312 37.0536L8.26243 36.6167L8.40378 36.1942L8.63016 35.789L8.9416 35.4039L9.33516 35.0406L9.80499 34.7004L10.3427 34.3837L10.9375 34.09L11.5773 33.8181L12.2487 33.5658L12.9377 33.3304L13.6304 33.1085L14.3132 32.8961L14.9732 32.6892L15.5983 32.483L16.1772 32.2729L16.6997 32.0539L17.1562 31.8206L17.5376 31.5678L17.8354 31.2896L18.041 30.9799L18.1453 30.6319L18.1388 30.2382L18.0107 29.7903L17.7484 29.2783L17.337 28.6909L16.7582 28.014L15.9893 27.2309L15.0017 26.3205L16.2527 26.4788L17.3658 26.5943L18.2743 26.6278L19.0061 26.5866L19.5838 26.4763L20.0262 26.3014L20.3489 26.0655L20.5656 25.772L20.6882 25.4234L20.7275 25.0227L20.694 24.5726L20.5975 24.0762L20.4479 23.5371L20.2553 22.9594L20.03 22.3479L19.7826 21.7083L19.5244 21.0471L19.2667 20.3716L19.021 19.6899L18.7987 19.0108L18.6107 18.3431L18.4671 17.6961L18.3767 17.0785L18.3466 16.4983L18.3819 15.9625L18.4856 15.4764L18.658 15.0438L18.8974 14.6662L19.1997 14.3435L19.5588 14.0735L19.9675 13.8521L20.4171 13.674L20.8985 13.5326L21.4023 13.4204L21.9195 13.3297L22.4415 13.2525L22.9605 13.1809L23.4695 13.1075L23.9628 13.0253L24.4356 12.928L24.8841 12.81L25.3056 12.6667L25.6984 12.494L26.0617 12.2888L26.3954 12.0491L26.7005 11.7734L26.9784 11.4614L27.2315 11.1138L27.4627 10.7322L27.6756 10.3194L27.8744 9.87911L28.0636 9.4165L28.2487 8.93777L28.435 8.45033L28.6285 7.96265L28.8352 7.4842L29.0609 7.02514L29.3112 6.59609L29.5912 6.20769L29.9051 5.87014L30.2563 5.59275L30.6468 5.38334L31.0771 5.24783L31.5463 5.18982L32.0523 5.21029L32.5911 5.30751L33.1581 5.47707L33.7475 5.71209L34.3527 6.00356L34.9673 6.34077L35.5845 6.71178L36.198 7.10392L36.8018 7.50421L37.3906 7.89973L37.96 8.27789L38.5061 8.62658L39.0259 8.93425L39.517 9.18991L39.9778 9.38296L40.407 9.50307L40.8038 9.53992L41.1679 9.48286L41.4989 9.32055L41.7968 9.04056L42.0616 8.62873L42.293 8.0686L42.4908 7.34048L42.6545 6.42044L42.783 5.27879L43.0026 4.43898L43.663 5.55645L44.2498 6.43961L44.7765 7.11963L45.2544 7.62133L45.6927 7.9648L46.0992 8.16659L46.4806 8.24066L46.8426 8.1991L47.1904 8.05273L47.5284 7.81159L47.8608 7.48536L48.1912 7.08372L48.523 6.61666L48.8589 6.09469L49.2016 5.52904L49.5532 4.93175L49.9153 4.31569L50.2893 3.69443L50.6758 3.08206L51.0748 2.49283L51.486 1.94077L51.9084 1.43912L52.3403 0.999807L52.7799 0.632879L53.2248 0.346012L53.6724 0.144127L54.1204 0.0291568L54.5661 0L55.0073 0.0526589L55.4421 0.180548L55.8692 0.374934L56.2876 0.625466L56.6969 0.920739L57.0972 1.24884L57.4891 1.59786L57.8737 1.95629L58.2523 2.3134L58.6266 2.65943L58.9985 2.9858L59.37 3.28516L59.743 3.55146L60.1198 3.77994L60.5022 3.96709L60.8921 4.11065L61.2913 4.20956L61.7012 4.26394L62.123 4.27505L62.5576 4.24533L63.0053 4.17839L63.4661 4.07898L63.9395 3.95303L64.4243 3.8076L64.9186 3.65089L65.4199 3.49205L65.9251 3.3411L66.4301 3.2087L66.9307 3.10582L67.4217 3.04336L67.898 3.03173L68.3542 3.08034L68.785 3.1971L69.1856 3.38793L69.552 3.65641L69.881 4.00343L70.1708 4.42715L70.4207 4.92298L70.6315 5.48381L70.8053 6.10042L70.9456 6.76186L71.0568 7.45605L71.1445 8.17028L71.2146 8.89168L71.274 9.60769L71.3295 10.3063L71.3883 10.9764L71.4574 11.6076L71.5442 12.1907L71.6558 12.7171L71.7995 13.1791L71.9827 13.5694L72.2132 13.881L72.4993 14.1069L72.8498 14.2397L73.2748 14.2714L73.7859 14.1928L74.3963 13.9931L75.1222 13.6591L75.9829 13.1748L77.0023 12.5196L77.4134 12.6517L76.9805 13.8093L76.6818 14.7714L76.5023 15.5666L76.4302 16.2178L76.4558 16.7437L76.5714 17.1602L76.7704 17.4805L77.047 17.7165L77.3959 17.8784L77.8122 17.9759L78.2908 18.0182L78.8261 18.014L79.4122 17.9721L80.0425 17.9014L80.7095 17.8109L81.4049 17.7098L82.1193 17.6075L82.8428 17.5134L83.5643 17.4366L84.2728 17.3862L84.9568 17.3703L85.6056 17.3961L86.209 17.4695L86.7581 17.5948L87.2461 17.7746L87.668 18.0096L88.0211 18.2985L88.3056 18.6383L88.5236 19.0243L88.6797 19.4509L88.7803 19.9111L88.8333 20.3979L88.8476 20.9037L88.8328 21.4213L88.7987 21.9439L88.7548 22.4652L88.7105 22.9798L88.6741 23.4831L88.6535 23.9715L88.6554 24.4421L88.6857 24.8929L88.7491 25.3228L88.8493 25.7313L88.9891 26.1185L89.1701 26.4854L89.3929 26.8331L89.657 27.1637L89.9606 27.4792L90.3009 27.7824L90.674 28.0764L91.0743 28.3643L91.4953 28.6498L91.9291 28.9366L92.3668 29.2284L92.798 29.5289L93.212 29.8419L93.597 30.1704L93.9416 30.5175L94.2342 30.8852L94.4645 31.2751L94.6233 31.688L94.7034 32.1234L94.7002 32.5803L94.6117 33.0566L94.4388 33.5495L94.1855 34.0555L93.8585 34.5707L93.4669 35.0909L93.022 35.6121L92.5363 36.1302L92.0234 36.6417L91.4975 37.1434L90.9723 37.6327L90.4617 38.1079L89.9786 38.5674L89.5355 39.0108L89.1441 39.4378L88.8153 39.8489L88.5597 40.2451L88.3877 40.6276L88.3097 40.9982L88.3364 41.3589L88.4795 41.7124L88.7519 42.0615L89.1686 42.4093L89.7471 42.7599L90.5087 43.1174L91.4795 43.4872L92.6925 43.8754L93.1361 44.0041Z" fill="#1565C0"/>
<circle cx="44.0019" cy="31.3222" r="13.4237" fill="#191919"/>
<circle cx="43.9993" cy="31.3225" r="10.4407" fill="#FFD738"/>
<circle cx="43.6277" cy="30.949" r="7.08475" fill="#191919"/>
<circle cx="8.20339" cy="46.2376" r="8.20339" fill="#FFD738"/>
<circle cx="59.6604" cy="79.7962" r="8.20339" fill="#FFD738"/>
<circle cx="90.2385" cy="26.1018" r="8.20339" fill="#FFD738"/>
</svg>
