<svg width="67" height="17" viewBox="0 0 67 17" fill="none" xmlns="http://www.w3.org/2000/svg">
<path d="M22.5418 5.56935C23.1905 5.56935 23.7209 5.83626 24.1331 6.37007C24.552 6.89712 24.7615 7.55931 24.7615 8.35664C24.7615 9.23506 24.5621 9.91076 24.1635 10.3838C23.7716 10.8568 23.2242 11.0932 22.5215 11.0932C21.8999 11.0932 21.4201 10.8568 21.0823 10.3838H21.062V12.6643H19.0551V5.70112H20.991V6.27885H21.0113C21.3356 5.80585 21.8458 5.56935 22.5418 5.56935ZM20.991 8.33637C20.991 9.20127 21.285 9.63372 21.8728 9.63372C22.4607 9.63372 22.7546 9.20127 22.7546 8.33637C22.7546 7.46471 22.4607 7.02888 21.8728 7.02888C21.285 7.02888 20.991 7.46471 20.991 8.33637ZM30.8878 3.71454C30.8135 4.16051 30.6682 4.50174 30.452 4.73824C30.2357 4.97473 29.9148 5.13014 29.4891 5.20447L28.4553 5.38691C27.9552 5.47476 27.5836 5.62341 27.3403 5.83288C27.1038 6.04235 26.9586 6.3329 26.9045 6.70454H26.9349C27.1647 6.3802 27.4282 6.14708 27.7255 6.00518C28.0296 5.85653 28.3877 5.7822 28.7999 5.7822C29.5026 5.7822 30.0668 6.02208 30.4925 6.50183C30.925 6.98158 31.1412 7.62012 31.1412 8.41745C31.1412 9.21479 30.8844 9.86009 30.3709 10.3534C29.8641 10.8466 29.1749 11.0932 28.3032 11.0932C27.391 11.0932 26.6883 10.8061 26.195 10.2317C25.7085 9.65062 25.4653 8.79923 25.4653 7.67756C25.4653 6.69103 25.6646 5.90045 26.0633 5.30583C26.4619 4.70445 27.0397 4.32943 27.7964 4.18078L28.5465 4.02874C28.7492 3.9882 28.881 3.88347 28.9418 3.71454H30.8878ZM27.462 8.43773C27.462 9.25533 27.739 9.66413 28.2931 9.66413C28.8539 9.66413 29.1343 9.25533 29.1343 8.43773C29.1343 7.62012 28.8505 7.21132 28.283 7.21132C27.7356 7.21132 27.462 7.62012 27.462 8.43773ZM33.9374 5.70112V8.44786H33.9678L35.478 5.70112H37.4849V10.9615H35.5591V8.14379H35.5287L34.0185 10.9615H32.0117V5.70112H33.9374ZM44.0572 5.70112V10.9615H42.0503V7.20118H40.5908V10.9615H38.584V5.70112H44.0572ZM47.7206 5.56935C49.7071 5.56935 50.7004 6.64035 50.7004 8.78234H46.8489C46.8827 9.12019 46.9874 9.37696 47.1631 9.55264C47.3455 9.72157 47.582 9.80603 47.8726 9.80603C48.2713 9.80603 48.5517 9.68102 48.7138 9.43101H50.5889C50.393 9.97158 50.0517 10.3838 49.5652 10.6676C49.0787 10.9514 48.5179 11.0932 47.8827 11.0932C46.9975 11.0932 46.2847 10.8466 45.7441 10.3534C45.2035 9.86009 44.9333 9.19114 44.9333 8.34651C44.9333 7.55593 45.1934 6.89712 45.7137 6.37007C46.234 5.83626 46.9029 5.56935 47.7206 5.56935ZM48.7747 7.73837C48.7747 7.48836 48.6902 7.27889 48.5213 7.10996C48.3523 6.94104 48.1395 6.85657 47.8827 6.85657C47.3016 6.85657 46.9604 7.15051 46.859 7.73837H48.7747ZM56.2983 5.70112V7.20118H54.6361V10.9615H52.6293V7.20118H50.967V5.70112H56.2983Z" fill="#FF6DAC"/>
<circle cx="9.74454" cy="7.74607" r="6.0531" stroke="#FF6DAC" stroke-width="1.38289"/>
<mask id="path-3-inside-1_0_1093" fill="white">
<path d="M12.9838 2.68112C14.5915 1.93463 16.2787 1.45434 17.1415 1.50425C18.0043 1.55416 18.3575 2.02616 18.1513 2.85374C17.9451 3.68131 17.1899 4.82272 15.9922 6.1171C14.7944 7.41148 13.2145 8.79355 11.4752 10.0685C9.73579 11.3435 7.92463 12.4471 6.29697 13.2238C4.6693 14.0005 3.30719 14.4111 2.40262 14.3977C1.49805 14.3844 1.09662 13.9477 1.25492 13.1493C1.41322 12.351 2.54599 10.7339 3.7077 9.45037L4.41627 10.0685C3.5225 11.056 3.32791 11.3357 3.20612 11.9499C3.08433 12.5642 3.39317 12.9001 4.08912 12.9104C4.78506 12.9207 5.83301 12.6048 7.08527 12.0072C8.33754 11.4097 9.73097 10.5606 11.0692 9.57968C12.4074 8.59875 13.6229 7.53544 14.5444 6.53959C15.4659 5.54375 16.0469 4.66559 16.2055 4.02889C16.3642 3.39219 16.0924 3.02905 15.4286 2.99065C14.7648 2.95225 14.505 3.03198 13.2681 3.6063L12.9838 2.68112Z"/>
</mask>
<path d="M12.9838 2.68112C14.5915 1.93463 16.2787 1.45434 17.1415 1.50425C18.0043 1.55416 18.3575 2.02616 18.1513 2.85374C17.9451 3.68131 17.1899 4.82272 15.9922 6.1171C14.7944 7.41148 13.2145 8.79355 11.4752 10.0685C9.73579 11.3435 7.92463 12.4471 6.29697 13.2238C4.6693 14.0005 3.30719 14.4111 2.40262 14.3977C1.49805 14.3844 1.09662 13.9477 1.25492 13.1493C1.41322 12.351 2.54599 10.7339 3.7077 9.45037L4.41627 10.0685C3.5225 11.056 3.32791 11.3357 3.20612 11.9499C3.08433 12.5642 3.39317 12.9001 4.08912 12.9104C4.78506 12.9207 5.83301 12.6048 7.08527 12.0072C8.33754 11.4097 9.73097 10.5606 11.0692 9.57968C12.4074 8.59875 13.6229 7.53544 14.5444 6.53959C15.4659 5.54375 16.0469 4.66559 16.2055 4.02889C16.3642 3.39219 16.0924 3.02905 15.4286 2.99065C14.7648 2.95225 14.505 3.03198 13.2681 3.6063L12.9838 2.68112Z" fill="white"/>
<path d="M12.9838 2.68112L11.7652 0.0564244L9.47661 1.11907L10.2177 3.53105L12.9838 2.68112ZM3.7077 9.45037L5.61008 7.26973L3.46896 5.40178L1.56222 7.50845L3.7077 9.45037ZM4.41627 10.0685L6.56175 12.0105L8.53946 9.82538L6.31865 7.8879L4.41627 10.0685ZM13.2681 3.6063L10.5019 4.45623L11.4766 7.62869L14.4868 6.231L13.2681 3.6063ZM12.9838 2.68112L14.2025 5.30582C14.88 4.99124 15.5604 4.74002 16.1313 4.57813C16.779 4.39451 17.0382 4.39695 16.9744 4.39326L17.1415 1.50425L17.3086 -1.38476C16.382 -1.43836 15.3662 -1.22073 14.5527 -0.990065C13.6624 -0.737659 12.6954 -0.375487 11.7652 0.0564244L12.9838 2.68112ZM17.1415 1.50425L16.9744 4.39326C16.9518 4.39195 16.7919 4.38136 16.5614 4.28351C16.3138 4.17837 15.9949 3.97476 15.7303 3.62112C15.1705 2.87299 15.3385 2.17364 15.3433 2.1541L18.1513 2.85374L20.9592 3.55337C21.1703 2.70626 21.2648 1.35712 20.3642 0.153616C19.4724 -1.03824 18.165 -1.33522 17.3086 -1.38476L17.1415 1.50425ZM18.1513 2.85374L15.3433 2.1541C15.3521 2.11897 15.3052 2.29797 15.0302 2.71358C14.774 3.10069 14.3915 3.58611 13.8682 4.15167L15.9922 6.1171L18.1161 8.08253C19.3622 6.73585 20.5644 5.13791 20.9592 3.55337L18.1513 2.85374ZM15.9922 6.1171L13.8682 4.15167C12.8202 5.28423 11.3862 6.54575 9.76438 7.73457L11.4752 10.0685L13.1859 12.4025C15.0429 11.0414 16.7687 9.53872 18.1161 8.08253L15.9922 6.1171ZM11.4752 10.0685L9.76438 7.73457C8.1435 8.92271 6.48724 9.92663 5.05075 10.6121L6.29697 13.2238L7.54318 15.8356C9.36203 14.9676 11.3281 13.7643 13.1859 12.4025L11.4752 10.0685ZM6.29697 13.2238L5.05075 10.6121C4.33373 10.9542 3.72606 11.1909 3.24346 11.3364C3.00397 11.4085 2.81283 11.4529 2.66807 11.4781C2.59672 11.4905 2.54196 11.4973 2.50272 11.5009C2.46314 11.5044 2.44481 11.5042 2.44537 11.5042L2.40262 14.3977L2.35987 17.2913C3.96617 17.315 5.83628 16.65 7.54318 15.8356L6.29697 13.2238ZM2.40262 14.3977L2.44537 11.5042C2.44566 11.5042 2.47276 11.5046 2.52189 11.512C2.57085 11.5195 2.65063 11.5353 2.75221 11.5699C2.95956 11.6405 3.27183 11.7954 3.56052 12.1094C4.21641 12.8228 4.11753 13.5907 4.09346 13.7122L1.25492 13.1493L-1.58361 12.5865C-1.76599 13.5063 -1.7433 14.8918 -0.700131 16.0265C0.266613 17.078 1.54444 17.2792 2.35987 17.2913L2.40262 14.3977ZM1.25492 13.1493L4.09346 13.7122C4.05516 13.9053 4.01305 13.936 4.11282 13.7428C4.19317 13.5872 4.32231 13.3695 4.50412 13.0999C4.86757 12.5611 5.35431 11.9435 5.85317 11.3923L3.7077 9.45037L1.56222 7.50845C0.899371 8.2408 0.238876 9.07347 -0.294059 9.86362C-0.740203 10.5251 -1.37964 11.5578 -1.58361 12.5865L1.25492 13.1493ZM3.7077 9.45037L1.80532 11.631L2.5139 12.2492L4.41627 10.0685L6.31865 7.8879L5.61008 7.26973L3.7077 9.45037ZM4.41627 10.0685L2.2708 8.12662C1.84923 8.59239 1.41762 9.07643 1.09546 9.57204C0.681905 10.2083 0.485505 10.7924 0.367589 11.3871L3.20612 11.9499L6.04466 12.5127C6.05461 12.4626 6.04998 12.5014 6.02115 12.5762C5.98944 12.6585 5.95601 12.714 5.94795 12.7264C5.94688 12.728 5.9551 12.7152 5.97841 12.6845C6.00196 12.6534 6.03701 12.6092 6.08865 12.5473C6.19577 12.419 6.34352 12.2516 6.56175 12.0105L4.41627 10.0685ZM3.20612 11.9499L0.367589 11.3871C0.20347 12.2148 0.212136 13.5291 1.21065 14.6152C2.13273 15.6182 3.33525 15.7934 4.04637 15.8039L4.08912 12.9104L4.13187 10.0169C4.14704 10.0171 4.84717 10.0192 5.47129 10.6981C6.17185 11.4601 6.08699 12.2993 6.04466 12.5127L3.20612 11.9499ZM4.08912 12.9104L4.04637 15.8039C5.44404 15.8246 6.99999 15.2543 8.33149 14.619L7.08527 12.0072L5.83906 9.39549C5.30974 9.64807 4.87447 9.81626 4.54341 9.91605C4.18523 10.024 4.067 10.0159 4.13187 10.0169L4.08912 12.9104ZM7.08527 12.0072L8.33149 14.619C9.77493 13.9302 11.3233 12.9814 12.78 11.9136L11.0692 9.57968L9.3584 7.24571C8.13868 8.13978 6.90014 8.88917 5.83906 9.39549L7.08527 12.0072ZM11.0692 9.57968L12.78 11.9136C14.2357 10.8466 15.5971 9.66268 16.6683 8.50502L14.5444 6.53959L12.4204 4.57416C11.6487 5.4082 10.5791 6.35095 9.3584 7.24571L11.0692 9.57968ZM14.5444 6.53959L16.6683 8.50502C17.6382 7.45688 18.6662 6.1222 19.0135 4.72853L16.2055 4.02889L13.3976 3.32926C13.4301 3.19869 13.4386 3.26416 13.2476 3.55278C13.0755 3.81291 12.8056 4.15788 12.4204 4.57416L14.5444 6.53959ZM16.2055 4.02889L19.0135 4.72853C19.2007 3.97685 19.3037 2.70264 18.4424 1.55165C17.5899 0.412309 16.3526 0.145428 15.5958 0.101644L15.4286 2.99065L15.2615 5.87966C15.1684 5.87427 14.3989 5.80816 13.8085 5.01916C13.2094 4.21852 13.3689 3.44424 13.3976 3.32926L16.2055 4.02889ZM15.4286 2.99065L15.5958 0.101644C15.068 0.0711165 14.485 0.080291 13.7642 0.287381C13.2069 0.447511 12.6249 0.714385 12.0494 0.981605L13.2681 3.6063L14.4868 6.231C14.7918 6.08935 14.9988 5.99596 15.1547 5.9305C15.3104 5.86512 15.3636 5.84967 15.3623 5.85003C15.3424 5.85576 15.286 5.86884 15.2175 5.87436C15.1657 5.87853 15.1577 5.87365 15.2615 5.87966L15.4286 2.99065ZM13.2681 3.6063L16.0343 2.75638L15.75 1.8312L12.9838 2.68112L10.2177 3.53105L10.5019 4.45623L13.2681 3.6063Z" fill="#FF6DAC" mask="url(#path-3-inside-1_0_1093)"/>
<ellipse cx="0.709308" cy="0.709319" rx="0.709308" ry="0.709319" transform="matrix(-1 0 0 1 13.0234 5.7652)" fill="#FF6DAC"/>
<ellipse cx="0.709308" cy="0.709319" rx="0.709308" ry="0.709319" transform="matrix(-1 0 0 1 8.03125 5.7652)" fill="#FF6DAC"/>
<path fill-rule="evenodd" clip-rule="evenodd" d="M10.2933 7.18257C10.4676 7.16527 10.6184 7.30225 10.6184 7.47749V8.17671C10.6184 8.20635 10.6127 8.23413 10.6048 8.26069C10.6162 8.29215 10.6253 8.32582 10.6253 8.36225V9.04487C10.625 9.20442 10.4986 9.33535 10.3392 9.34077L8.92021 9.38667C8.60422 9.39698 8.49361 8.97165 8.7747 8.8271L9.80497 8.29683L8.75321 7.90132C8.46042 7.79068 8.5169 7.36032 8.82841 7.32905L10.2933 7.18257Z" fill="#FF6DAC"/>
</svg>
