<svg width="248" height="204" viewBox="0 0 248 204" fill="none" xmlns="http://www.w3.org/2000/svg">
<circle cx="125.238" cy="101.682" r="76.0963" stroke="white" stroke-width="17.3849"/>
<mask id="path-2-inside-1_0_829" fill="white">
<path d="M163.226 33.7055C183.437 24.3209 204.647 18.283 215.494 18.9104C226.34 19.5379 230.78 25.4717 228.188 35.8755C225.596 46.2793 216.102 60.6285 201.045 76.9007C185.988 93.1729 166.126 110.548 144.26 126.576C122.393 142.605 99.6242 156.479 79.1621 166.243C58.6999 176.007 41.5762 181.168 30.2044 181C18.8326 180.832 13.7861 175.343 15.7762 165.306C17.7663 155.269 32.0068 134.94 46.6112 118.805L55.519 126.576C44.2829 138.99 41.8368 142.506 40.3057 150.228C38.7746 157.95 42.6572 162.173 51.4062 162.302C60.1552 162.432 73.3295 158.46 89.0723 150.948C104.815 143.436 122.332 132.762 139.156 120.43C155.979 108.099 171.26 94.7313 182.844 82.2121C194.429 69.6929 201.733 58.6532 203.727 50.6489C205.721 42.6446 202.305 38.0794 193.96 37.5967C185.616 37.1139 182.349 38.1162 166.799 45.3364L163.226 33.7055Z"/>
</mask>
<path d="M163.226 33.7055C183.437 24.3209 204.647 18.283 215.494 18.9104C226.34 19.5379 230.78 25.4717 228.188 35.8755C225.596 46.2793 216.102 60.6285 201.045 76.9007C185.988 93.1729 166.126 110.548 144.26 126.576C122.393 142.605 99.6242 156.479 79.1621 166.243C58.6999 176.007 41.5762 181.168 30.2044 181C18.8326 180.832 13.7861 175.343 15.7762 165.306C17.7663 155.269 32.0068 134.94 46.6112 118.805L55.519 126.576C44.2829 138.99 41.8368 142.506 40.3057 150.228C38.7746 157.95 42.6572 162.173 51.4062 162.302C60.1552 162.432 73.3295 158.46 89.0723 150.948C104.815 143.436 122.332 132.762 139.156 120.43C155.979 108.099 171.26 94.7313 182.844 82.2121C194.429 69.6929 201.733 58.6532 203.727 50.6489C205.721 42.6446 202.305 38.0794 193.96 37.5967C185.616 37.1139 182.349 38.1162 166.799 45.3364L163.226 33.7055Z" fill="white"/>
<path d="M163.226 33.7055L147.905 0.709167L119.135 14.0682L128.451 44.3903L163.226 33.7055ZM46.6112 118.805L70.5269 91.3909L43.6099 67.9081L19.6394 94.392L46.6112 118.805ZM55.519 126.576L82.4908 150.989L107.354 123.519L79.4347 99.1623L55.519 126.576ZM166.799 45.3364L132.025 56.0212L144.278 95.9036L182.12 78.3327L166.799 45.3364ZM163.226 33.7055L178.546 66.7018C187.064 62.747 195.617 59.5888 202.795 57.5537C210.937 55.2452 214.195 55.2759 213.393 55.2295L215.494 18.9104L217.595 -17.4086C205.946 -18.0825 193.176 -15.3465 182.948 -12.4467C171.757 -9.27363 159.599 -4.72059 147.905 0.709167L163.226 33.7055ZM215.494 18.9104L213.393 55.2295C213.109 55.2131 211.099 55.0799 208.201 53.8498C205.088 52.5281 201.08 49.9684 197.753 45.5227C190.715 36.1176 192.827 27.3257 192.888 27.08L228.188 35.8755L263.488 44.6709C266.142 34.0214 267.329 17.0608 256.008 1.93099C244.796 -13.0524 228.361 -16.7858 217.595 -17.4086L215.494 18.9104ZM228.188 35.8755L192.888 27.08C192.998 26.6383 192.408 28.8887 188.951 34.1135C185.731 38.9801 180.923 45.0825 174.344 52.1923L201.045 76.9007L227.746 101.609C243.412 84.6793 258.525 64.5909 263.488 44.6709L228.188 35.8755ZM201.045 76.9007L174.344 52.1923C161.169 66.4304 143.141 82.2895 122.753 97.2347L144.26 126.576L165.767 155.917C189.111 138.806 210.807 119.915 227.746 101.609L201.045 76.9007ZM144.26 126.576L122.753 97.2347C102.376 112.171 81.5541 124.792 63.4954 133.409L79.1621 166.243L94.8288 199.076C117.694 188.165 142.411 173.038 165.767 155.917L144.26 126.576ZM79.1621 166.243L63.4954 133.409C54.4814 137.71 46.8421 140.685 40.7751 142.514C37.7643 143.422 35.3614 143.98 33.5415 144.297C32.6445 144.453 31.9562 144.538 31.4628 144.583C30.9652 144.628 30.7348 144.625 30.7419 144.625L30.2044 181L29.667 217.376C49.8605 217.675 73.3705 209.315 94.8288 199.076L79.1621 166.243ZM30.2044 181L30.7419 144.625C30.7455 144.625 31.0862 144.629 31.7039 144.723C32.3194 144.816 33.3223 145.016 34.5994 145.451C37.206 146.338 41.1316 148.285 44.7609 152.232C53.0064 161.201 51.7634 170.855 51.4607 172.382L15.7762 165.306L-19.9083 158.231C-22.2011 169.794 -21.9159 187.211 -8.80167 201.476C3.35171 214.696 19.4159 217.225 29.667 217.376L30.2044 181ZM15.7762 165.306L51.4607 172.382C50.9794 174.81 50.45 175.195 51.7042 172.767C52.7143 170.81 54.3377 168.074 56.6234 164.685C61.1925 157.911 67.3116 150.146 73.583 143.218L46.6112 118.805L19.6394 94.392C11.3064 103.599 3.00302 114.067 -3.69676 124C-9.30545 132.316 -17.3441 145.298 -19.9083 158.231L15.7762 165.306ZM46.6112 118.805L22.6955 146.219L31.6033 153.99L55.519 126.576L79.4347 99.1623L70.5269 91.3909L46.6112 118.805ZM55.519 126.576L28.5473 102.163C23.2476 108.019 17.8216 114.104 13.7715 120.334C8.57254 128.333 6.1035 135.676 4.62113 143.152L40.3057 150.228L75.9902 157.303C76.1153 156.673 76.0571 157.161 75.6946 158.102C75.296 159.136 74.8757 159.833 74.7744 159.989C74.761 160.009 74.8644 159.849 75.1573 159.463C75.4534 159.072 75.894 158.516 76.5433 157.738C77.8899 156.125 79.7473 154.02 82.4908 150.989L55.519 126.576ZM40.3057 150.228L4.62113 143.152C2.55791 153.558 2.66686 170.08 15.2196 183.734C26.8115 196.343 41.929 198.546 50.8687 198.678L51.4062 162.302L51.9436 125.927C52.1343 125.929 60.936 125.956 68.7822 134.491C77.5892 144.07 76.5224 154.619 75.9902 157.303L40.3057 150.228ZM51.4062 162.302L50.8687 198.678C68.4395 198.938 88.0001 191.769 104.739 183.782L89.0723 150.948L73.4056 118.115C66.7513 121.29 61.2792 123.405 57.1173 124.659C52.6145 126.016 51.1282 125.914 51.9436 125.927L51.4062 162.302ZM89.0723 150.948L104.739 183.782C122.885 175.123 142.35 163.195 160.663 149.772L139.156 120.43L117.649 91.089C102.315 102.329 86.7449 111.75 73.4056 118.115L89.0723 150.948ZM139.156 120.43L160.663 149.772C178.964 136.357 196.079 121.474 209.545 106.92L182.844 82.2121L156.143 57.5037C146.441 67.9888 132.994 79.8406 117.649 91.089L139.156 120.43ZM182.844 82.2121L209.545 106.92C221.738 93.7438 234.662 76.9648 239.027 59.4444L203.727 50.6489L168.427 41.8534C168.836 40.212 168.943 41.0351 166.542 44.6635C164.379 47.9336 160.985 52.2704 156.143 57.5037L182.844 82.2121ZM203.727 50.6489L239.027 59.4444C241.382 49.9946 242.676 33.976 231.848 19.5064C221.131 5.18314 205.577 1.82807 196.062 1.27764L193.96 37.5967L191.859 73.9157C190.689 73.848 181.015 73.0169 173.594 63.0981C166.062 53.0328 168.067 43.2989 168.427 41.8534L203.727 50.6489ZM193.96 37.5967L196.062 1.27764C189.427 0.893859 182.098 1.00919 173.036 3.61264C166.03 5.62569 158.714 8.98069 151.479 12.34L166.799 45.3364L182.12 78.3327C185.955 76.5519 188.557 75.3778 190.516 74.5548C192.474 73.7329 193.143 73.5387 193.127 73.5433C192.876 73.6153 192.167 73.7797 191.306 73.8491C190.655 73.9016 190.554 73.8402 191.859 73.9157L193.96 37.5967ZM166.799 45.3364L201.574 34.6515L198.001 23.0207L163.226 33.7055L128.451 44.3903L132.025 56.0212L166.799 45.3364Z" fill="white" mask="url(#path-2-inside-1_0_829)"/>
<mask id="path-4-inside-2_0_829" fill="white">
<ellipse cx="8.91703" cy="8.91718" rx="8.91703" ry="8.91718" transform="matrix(-1 0 0 1 163.867 72.4678)"/>
</mask>
<ellipse cx="8.91703" cy="8.91718" rx="8.91703" ry="8.91718" transform="matrix(-1 0 0 1 163.867 72.4678)" fill="white"/>
<path d="M146.033 81.3849H161.555C161.555 77.7375 158.598 74.7802 154.95 74.7802V90.3021V105.824C141.453 105.824 130.511 94.8821 130.511 81.3849H146.033ZM154.95 90.3021V74.7802C151.302 74.7802 148.345 77.7375 148.345 81.3849H163.867H179.389C179.389 94.8821 168.448 105.824 154.95 105.824V90.3021ZM163.867 81.3849H148.345C148.345 85.0324 151.302 87.9897 154.95 87.9897V72.4678V56.9459C168.448 56.9459 179.389 67.8878 179.389 81.3849H163.867ZM154.95 72.4678V87.9897C158.598 87.9897 161.555 85.0324 161.555 81.3849H146.033H130.511C130.511 67.8878 141.453 56.9459 154.95 56.9459V72.4678Z" fill="white" mask="url(#path-4-inside-2_0_829)"/>
<mask id="path-6-inside-3_0_829" fill="white">
<ellipse cx="8.91703" cy="8.91718" rx="8.91703" ry="8.91718" transform="matrix(-1 0 0 1 100.98 72.4678)"/>
</mask>
<ellipse cx="8.91703" cy="8.91718" rx="8.91703" ry="8.91718" transform="matrix(-1 0 0 1 100.98 72.4678)" fill="white"/>
<path d="M83.1464 81.3849H98.6683C98.6683 77.7375 95.7114 74.7802 92.0634 74.7802V90.3021V105.824C78.5659 105.824 67.6245 94.8821 67.6245 81.3849H83.1464ZM92.0634 90.3021V74.7802C88.4154 74.7802 85.4586 77.7375 85.4586 81.3849H100.98H116.502C116.502 94.8821 105.561 105.824 92.0634 105.824V90.3021ZM100.98 81.3849H85.4586C85.4586 85.0324 88.4154 87.9897 92.0634 87.9897V72.4678V56.9459C105.561 56.9459 116.502 67.8878 116.502 81.3849H100.98ZM92.0634 72.4678V87.9897C95.7114 87.9897 98.6683 85.0324 98.6683 81.3849H83.1464H67.6245C67.6245 67.8878 78.5659 56.9459 92.0634 56.9459V72.4678Z" fill="white" mask="url(#path-6-inside-3_0_829)"/>
<path fill-rule="evenodd" clip-rule="evenodd" d="M129.358 90.2633C131.551 90.0437 133.454 91.7662 133.454 93.9703V102.755C133.454 103.169 133.387 103.563 133.267 103.928C133.388 104.295 133.456 104.69 133.456 105.108V113.688C133.456 115.698 131.862 117.346 129.853 117.412L112.017 117.994C108.044 118.123 106.657 112.773 110.193 110.957L123.199 104.275L110.004 99.2994C106.32 97.9101 107.029 92.4993 110.948 92.107L129.358 90.2633Z" fill="white"/>
</svg>
