<svg width="172" height="42" viewBox="0 0 172 42" fill="none" xmlns="http://www.w3.org/2000/svg">
<path d="M58.2716 14.7126C59.9486 14.7126 61.32 15.4026 62.3857 16.7827C63.4688 18.1454 64.0103 19.8574 64.0103 21.9188C64.0103 24.1899 63.495 25.9368 62.4643 27.1597C61.451 28.3826 60.036 28.994 58.2191 28.994C56.6119 28.994 55.3716 28.3826 54.4981 27.1597H54.4457V33.0557H49.2572V15.0532H54.2623V16.5469H54.3147C55.1532 15.324 56.4722 14.7126 58.2716 14.7126ZM54.2623 21.8664C54.2623 24.1025 55.0222 25.2206 56.5421 25.2206C58.0619 25.2206 58.8219 24.1025 58.8219 21.8664C58.8219 19.6128 58.0619 18.486 56.5421 18.486C55.0222 18.486 54.2623 19.6128 54.2623 21.8664ZM79.8493 9.91716C79.6572 11.0702 79.2816 11.9524 78.7225 12.5638C78.1635 13.1753 77.3337 13.5771 76.2331 13.7692L73.5602 14.2409C72.2675 14.468 71.3067 14.8523 70.6778 15.3939C70.0663 15.9355 69.6907 16.6867 69.551 17.6475H69.6296C70.2235 16.8089 70.9049 16.2062 71.6735 15.8394C72.4597 15.455 73.3856 15.2629 74.4512 15.2629C76.268 15.2629 77.7268 15.8831 78.8274 17.1234C79.9454 18.3637 80.5044 20.0146 80.5044 22.076C80.5044 24.1375 79.8406 25.8058 78.5129 27.0811C77.2027 28.3564 75.4208 28.994 73.1672 28.994C70.8088 28.994 68.9919 28.2516 67.7166 26.7667C66.4588 25.2643 65.8299 23.0631 65.8299 20.1631C65.8299 17.6125 66.3453 15.5686 67.376 14.0313C68.4067 12.4765 69.9004 11.5069 71.857 11.1226L73.7961 10.7295C74.3202 10.6247 74.6608 10.3539 74.8181 9.91716H79.8493ZM70.9922 22.1285C70.9922 24.2423 71.7085 25.2992 73.141 25.2992C74.591 25.2992 75.3159 24.2423 75.3159 22.1285C75.3159 20.0146 74.5822 18.9577 73.1148 18.9577C71.6997 18.9577 70.9922 20.0146 70.9922 22.1285ZM87.7338 15.0532V22.1547H87.8124L91.7169 15.0532H96.9054V28.6534H91.9265V21.3685H91.8479L87.9435 28.6534H82.755V15.0532H87.7338ZM113.897 15.0532V28.6534H108.709V18.9315H104.935V28.6534H99.7469V15.0532H113.897ZM123.369 14.7126C128.505 14.7126 131.073 17.4815 131.073 23.0194H121.115C121.202 23.8929 121.473 24.5567 121.927 25.011C122.399 25.4477 123.011 25.6661 123.762 25.6661C124.792 25.6661 125.517 25.3429 125.937 24.6965H130.785C130.278 26.0941 129.396 27.1597 128.138 27.8935C126.88 28.6272 125.43 28.994 123.788 28.994C121.499 28.994 119.656 28.3564 118.259 27.0811C116.861 25.8058 116.162 24.0763 116.162 21.8926C116.162 19.8487 116.835 18.1454 118.18 16.7827C119.525 15.4026 121.255 14.7126 123.369 14.7126ZM126.094 20.3203C126.094 19.674 125.876 19.1324 125.439 18.6957C125.002 18.2589 124.452 18.0406 123.788 18.0406C122.286 18.0406 121.403 18.8005 121.141 20.3203H126.094ZM145.546 15.0532V18.9315H141.248V28.6534H136.06V18.9315H131.762V15.0532H145.546Z" fill="white"/>
<circle cx="25.7574" cy="20.9112" r="15.6497" stroke="white" stroke-width="3.57531"/>
<mask id="path-3-inside-1_0_736" fill="white">
<path d="M33.5684 6.93175C37.7249 5.00176 42.0869 3.76002 44.3176 3.88906C46.5482 4.0181 47.4613 5.23842 46.9282 7.37802C46.3951 9.51762 44.4427 12.4686 41.3461 15.8151C38.2494 19.1616 34.1648 22.7348 29.6678 26.0311C25.1709 29.3275 20.4883 32.1808 16.2801 34.1888C12.072 36.1968 8.5504 37.2584 6.21172 37.2238C3.87304 37.1893 2.8352 36.0604 3.24447 33.9962C3.65374 31.9321 6.58238 27.7513 9.58587 24.4329L11.4178 26.0311C9.10705 28.5842 8.60397 29.3072 8.2891 30.8953C7.97422 32.4833 8.7727 33.3519 10.572 33.3785C12.3713 33.405 15.0806 32.5883 18.3182 31.0434C21.5558 29.4985 25.1584 27.3033 28.6182 24.7672C32.078 22.2312 35.2205 19.4821 37.603 16.9074C39.9854 14.3328 41.4875 12.0624 41.8977 10.4163C42.3078 8.77014 41.6053 7.83128 39.8891 7.732C38.1729 7.63272 37.5012 7.83885 34.3033 9.32371L33.5684 6.93175Z"/>
</mask>
<path d="M33.5684 6.93175C37.7249 5.00176 42.0869 3.76002 44.3176 3.88906C46.5482 4.0181 47.4613 5.23842 46.9282 7.37802C46.3951 9.51762 44.4427 12.4686 41.3461 15.8151C38.2494 19.1616 34.1648 22.7348 29.6678 26.0311C25.1709 29.3275 20.4883 32.1808 16.2801 34.1888C12.072 36.1968 8.5504 37.2584 6.21172 37.2238C3.87304 37.1893 2.8352 36.0604 3.24447 33.9962C3.65374 31.9321 6.58238 27.7513 9.58587 24.4329L11.4178 26.0311C9.10705 28.5842 8.60397 29.3072 8.2891 30.8953C7.97422 32.4833 8.7727 33.3519 10.572 33.3785C12.3713 33.405 15.0806 32.5883 18.3182 31.0434C21.5558 29.4985 25.1584 27.3033 28.6182 24.7672C32.078 22.2312 35.2205 19.4821 37.603 16.9074C39.9854 14.3328 41.4875 12.0624 41.8977 10.4163C42.3078 8.77014 41.6053 7.83128 39.8891 7.732C38.1729 7.63272 37.5012 7.83885 34.3033 9.32371L33.5684 6.93175Z" fill="white"/>
<path d="M33.5684 6.93175L30.4176 0.145863L24.5008 2.89322L26.4167 9.12915L33.5684 6.93175ZM9.58587 24.4329L14.5043 18.7951L8.96864 13.9657L4.03897 19.4123L9.58587 24.4329ZM11.4178 26.0311L16.9647 31.0518L22.0779 25.4025L16.3362 20.3933L11.4178 26.0311ZM34.3033 9.32371L27.1516 11.5211L29.6717 19.7232L37.4541 16.1096L34.3033 9.32371ZM33.5684 6.93175L36.7191 13.7176C38.4708 12.9043 40.2297 12.2548 41.7059 11.8363C43.3803 11.3615 44.0505 11.3678 43.8855 11.3583L44.3176 3.88906L44.7497 -3.58017C42.354 -3.71875 39.7278 -3.15609 37.6244 -2.55973C35.3228 -1.90716 32.8225 -0.970799 30.4176 0.145863L33.5684 6.93175ZM44.3176 3.88906L43.8855 11.3583C43.8272 11.3549 43.4137 11.3275 42.8178 11.0746C42.1775 10.8027 41.3532 10.2763 40.6691 9.36202C39.2218 7.42781 39.656 5.61971 39.6686 5.56918L46.9282 7.37802L54.1879 9.18686C54.7336 6.99673 54.9778 3.50867 52.6495 0.397139C50.3438 -2.68429 46.9637 -3.45209 44.7497 -3.58017L44.3176 3.88906ZM46.9282 7.37802L39.6686 5.56918C39.6912 5.47835 39.5699 5.94115 38.8589 7.01566C38.1968 8.0165 37.2078 9.27151 35.8548 10.7337L41.3461 15.8151L46.8373 20.8965C50.0591 17.4148 53.1672 13.2835 54.1879 9.18686L46.9282 7.37802ZM41.3461 15.8151L35.8548 10.7337C33.1453 13.6618 29.4379 16.9233 25.2448 19.9969L29.6678 26.0311L34.0909 32.0654C38.8918 28.5463 43.3536 24.6613 46.8373 20.8965L41.3461 15.8151ZM29.6678 26.0311L25.2448 19.9969C21.0542 23.0687 16.7721 25.6642 13.0582 27.4364L16.2801 34.1888L19.5021 40.9412C24.2046 38.6973 29.2876 35.5863 34.0909 32.0654L29.6678 26.0311ZM16.2801 34.1888L13.0582 27.4364C11.2044 28.321 9.63335 28.9328 8.38564 29.3089C7.76645 29.4956 7.27227 29.6104 6.89801 29.6755C6.71354 29.7075 6.57198 29.7251 6.47051 29.7343C6.36819 29.7435 6.3208 29.7429 6.32224 29.7429L6.21172 37.2238L6.10119 44.7047C10.2541 44.7661 15.0891 43.0469 19.5021 40.9412L16.2801 34.1888ZM6.21172 37.2238L6.32224 29.7429C6.323 29.7429 6.39307 29.7438 6.52009 29.7631C6.64668 29.7823 6.85293 29.8234 7.11556 29.9128C7.65162 30.0954 8.45897 30.4956 9.20534 31.3075C10.9011 33.152 10.6454 35.1374 10.5832 35.4513L3.24447 33.9962L-4.09427 32.5411C-4.56578 34.9192 -4.50713 38.5011 -1.81012 41.4348C0.689299 44.1535 3.99299 44.6736 6.10119 44.7047L6.21172 37.2238ZM3.24447 33.9962L10.5832 35.4513C10.4842 35.9506 10.3753 36.03 10.6333 35.5305C10.841 35.1282 11.1749 34.5654 11.6449 33.8685C12.5846 32.4753 13.843 30.8785 15.1328 29.4536L9.58587 24.4329L4.03897 19.4123C2.32523 21.3057 0.617588 23.4585 -0.760259 25.5013C-1.91372 27.2115 -3.56691 29.8814 -4.09427 32.5411L3.24447 33.9962ZM9.58587 24.4329L4.66747 30.0707L6.49941 31.669L11.4178 26.0311L16.3362 20.3933L14.5043 18.7951L9.58587 24.4329ZM11.4178 26.0311L5.87091 21.0105C4.781 22.2147 3.66511 23.4661 2.8322 24.7475C1.76299 26.3924 1.25522 27.9026 0.950363 29.4402L8.2891 30.8953L15.6278 32.3504C15.6536 32.2207 15.6416 32.3211 15.567 32.5145C15.4851 32.7273 15.3986 32.8706 15.3778 32.9027C15.375 32.9069 15.3963 32.8739 15.4565 32.7944C15.5174 32.7141 15.6081 32.5997 15.7416 32.4397C16.0185 32.108 16.4005 31.6751 16.9647 31.0518L11.4178 26.0311ZM8.2891 30.8953L0.950363 29.4402C0.526049 31.5802 0.548455 34.978 3.13 37.7861C5.51395 40.3792 8.62295 40.8322 10.4615 40.8593L10.572 33.3785L10.6825 25.8976C10.7217 25.8981 12.5319 25.9036 14.1455 27.6588C15.9567 29.6289 15.7373 31.7984 15.6278 32.3504L8.2891 30.8953ZM10.572 33.3785L10.4615 40.8593C14.075 40.9127 18.0977 39.4384 21.5402 37.7958L18.3182 31.0434L15.0963 24.291C13.7278 24.944 12.6024 25.3789 11.7465 25.6369C10.8205 25.916 10.5148 25.8951 10.6825 25.8976L10.572 33.3785ZM18.3182 31.0434L21.5402 37.7958C25.2721 36.015 29.2751 33.5621 33.0412 30.8015L28.6182 24.7672L24.1952 18.733C21.0417 21.0445 17.8396 22.982 15.0963 24.291L18.3182 31.0434ZM28.6182 24.7672L33.0412 30.8015C36.8049 28.0426 40.3247 24.9818 43.0942 21.9888L37.603 16.9074L32.1117 11.826C30.1164 13.9823 27.351 16.4197 24.1952 18.733L28.6182 24.7672ZM37.603 16.9074L43.0942 21.9888C45.6018 19.279 48.2595 15.8283 49.1573 12.2251L41.8977 10.4163L34.638 8.60742C34.7221 8.26985 34.7441 8.43913 34.2504 9.18532C33.8054 9.85785 33.1076 10.7497 32.1117 11.826L37.603 16.9074ZM41.8977 10.4163L49.1573 12.2251C49.6415 10.2817 49.9077 6.98738 47.681 4.01162C45.4769 1.06596 42.278 0.375969 40.3212 0.262771L39.8891 7.732L39.457 15.2012C39.2164 15.1873 37.2269 15.0164 35.7005 12.9765C34.1516 10.9065 34.564 8.9047 34.638 8.60742L41.8977 10.4163ZM39.8891 7.732L40.3212 0.262771C38.9569 0.183846 37.4495 0.207564 35.586 0.742977C34.145 1.15698 32.6404 1.84695 31.1525 2.53782L34.3033 9.32371L37.4541 16.1096C38.2428 15.7434 38.7779 15.5019 39.1808 15.3327C39.5833 15.1636 39.721 15.1237 39.7177 15.1246C39.6661 15.1394 39.5203 15.1732 39.3432 15.1875C39.2094 15.1983 39.1886 15.1857 39.457 15.2012L39.8891 7.732ZM34.3033 9.32371L41.4549 7.12631L40.72 4.73435L33.5684 6.93175L26.4167 9.12915L27.1516 11.5211L34.3033 9.32371Z" fill="white" mask="url(#path-3-inside-1_0_736)"/>
<mask id="path-5-inside-2_0_736" fill="white">
<ellipse cx="1.83384" cy="1.83387" rx="1.83384" ry="1.83387" transform="matrix(-1 0 0 1 33.7002 14.9039)"/>
</mask>
<ellipse cx="1.83384" cy="1.83387" rx="1.83384" ry="1.83387" transform="matrix(-1 0 0 1 33.7002 14.9039)" fill="white"/>
<path d="M30.0325 16.7377H33.2247C33.2247 15.9876 32.6166 15.3794 31.8664 15.3794V18.5716V21.7638C29.0905 21.7638 26.8403 19.5135 26.8403 16.7377H30.0325ZM31.8664 18.5716V15.3794C31.1161 15.3794 30.508 15.9876 30.508 16.7377H33.7002H36.8924C36.8924 19.5135 34.6422 21.7638 31.8664 21.7638V18.5716ZM33.7002 16.7377H30.508C30.508 17.4879 31.1161 18.096 31.8664 18.096V14.9039V11.7117C34.6422 11.7117 36.8924 13.962 36.8924 16.7377H33.7002ZM31.8664 14.9039V18.096C32.6166 18.096 33.2247 17.4879 33.2247 16.7377H30.0325H26.8403C26.8403 13.962 29.0905 11.7117 31.8664 11.7117V14.9039Z" fill="white" mask="url(#path-5-inside-2_0_736)"/>
<mask id="path-7-inside-3_0_736" fill="white">
<ellipse cx="1.83384" cy="1.83387" rx="1.83384" ry="1.83387" transform="matrix(-1 0 0 1 20.7673 14.9039)"/>
</mask>
<ellipse cx="1.83384" cy="1.83387" rx="1.83384" ry="1.83387" transform="matrix(-1 0 0 1 20.7673 14.9039)" fill="white"/>
<path d="M17.0997 16.7377H20.2918C20.2918 15.9876 19.6837 15.3794 18.9335 15.3794V18.5716V21.7638C16.1577 21.7638 13.9075 19.5135 13.9075 16.7377H17.0997ZM18.9335 18.5716V15.3794C18.1833 15.3794 17.5752 15.9876 17.5752 16.7377H20.7673H23.9595C23.9595 19.5135 21.7093 21.7638 18.9335 21.7638V18.5716ZM20.7673 16.7377H17.5752C17.5752 17.4879 18.1833 18.096 18.9335 18.096V14.9039V11.7117C21.7093 11.7117 23.9595 13.962 23.9595 16.7377H20.7673ZM18.9335 14.9039V18.096C19.6837 18.096 20.2918 17.4879 20.2918 16.7377H17.0997H13.9075C13.9075 13.962 16.1577 11.7117 18.9335 11.7117V14.9039Z" fill="white" mask="url(#path-7-inside-3_0_736)"/>
<path fill-rule="evenodd" clip-rule="evenodd" d="M26.6031 18.5651C27.054 18.52 27.4456 18.8737 27.4459 19.3268V21.1344C27.4458 21.2179 27.4307 21.2968 27.4068 21.3708C27.4322 21.4467 27.4478 21.5282 27.4478 21.6149V23.3796C27.4478 23.7929 27.1198 24.1327 26.7066 24.1462L23.0386 24.2653C22.2216 24.292 21.9365 23.1916 22.6636 22.818L25.3345 21.446L22.6226 20.4235C21.865 20.1378 22.0112 19.0247 22.817 18.944L26.6031 18.5651Z" fill="white"/>
</svg>
