<svg width="152" height="438" viewBox="0 0 152 438" fill="none" xmlns="http://www.w3.org/2000/svg">
<path d="M48.9939 423.929C47.8517 427.953 42.1483 427.953 41.0061 423.929L8.39503 309.035C7.64271 306.385 9.63366 303.75 12.3889 303.75H77.6111C80.3663 303.75 82.3573 306.385 81.605 309.035L48.9939 423.929Z" fill="#55D9FF"/>
<path d="M110.994 423.929C109.852 427.953 104.148 427.953 103.006 423.929L70.395 309.035C69.6427 306.385 71.6337 303.75 74.3889 303.75H139.611C142.366 303.75 144.357 306.385 143.605 309.035L110.994 423.929Z" fill="#55D9FF"/>
<path d="M70.3129 16.9142C72.1455 11.4638 79.8545 11.4638 81.6871 16.9142L139.158 187.838C140.465 191.726 137.572 195.75 133.47 195.75H18.5296C14.4276 195.75 11.5351 191.726 12.8424 187.838L70.3129 16.9142Z" fill="#FFD738"/>
<circle cx="75.5" cy="147.5" r="16.5" fill="black"/>
<circle cx="75.5" cy="100.5" r="16.5" fill="black"/>
<rect x="4" y="179" width="144" height="144" rx="14" fill="#FF6DAC"/>
</svg>
