<svg width="167" height="123" viewBox="0 0 167 123" fill="none" xmlns="http://www.w3.org/2000/svg">
    <!-- Подложка: top-left угол ОСТРЫЙ, остальные 3 угла скруглённые радиусом 50. -->
    <!-- Forma как у ярлычка-наклейки. Данные из Figma cornerRadii (5:105). -->
    <path d="M0 0H117C144.614 0 167 22.3858 167 50V73C167 100.614 144.614 123 117 123H50C22.3858 123 0 100.614 0 73V0Z" fill="#FFD738"/>
    <path d="M128.132 25.1375C131.113 24.7212 133.765 27.2099 133.57 30.2136C133.119 37.1655 132.718 48.8011 134.224 57.4954C135.356 64.0243 138.071 71.8288 141.011 79.0093C142.915 83.6623 136.686 88.4689 132.863 85.2041L112.405 67.7344C104.459 74.7086 92.9575 87.9448 84.8476 94.6224C73.929 103.612 64.552 107.203 48.1117 100.415C31.6712 93.6256 14.9922 80.2481 20.4427 62.545C23.618 52.2322 36.0926 48.2636 44.2475 55.2254C52.4023 62.1873 57.5629 73.2451 70.2646 69.1446C80.7242 65.7679 86.7771 59.2391 90.6325 49.1417L69.5478 31.1379C65.7966 27.9344 69.262 21.38 74.0708 22.4792C84.0466 24.7604 95.7312 26.9008 104.884 27.0338C112.283 27.1413 121.995 25.9946 128.132 25.1375Z" fill="#FF6DA3"/>
</svg>
