<svg width="1067" height="418" viewBox="0 0 1067 418" fill="none" xmlns="http://www.w3.org/2000/svg">
<path d="M1066.87 62.2956C1066.87 89.0861 1044.77 110.094 1020.76 121.996C984.784 139.837 960.18 175.931 960.18 217.553C960.18 259.987 985.753 296.674 1022.88 314.133C1045.93 324.973 1066.87 344.981 1066.87 370.456C1066.87 396.714 1045.58 418 1019.32 418H47.5437C21.286 418 0 396.714 0 370.456C0 344.982 20.9307 324.973 43.9842 314.133C81.114 296.675 106.688 259.987 106.688 217.553C106.687 175.93 82.083 139.837 46.1023 121.995C22.1003 110.094 0 89.0856 0 62.2949V50C0 22.3858 22.3858 0 50 0H1016.87C1044.48 0 1066.87 22.3858 1066.87 50V62.2956Z" fill="#FF6DA3"/>
</svg>
