<svg width="1067" height="393" viewBox="0 0 1067 393" fill="none" xmlns="http://www.w3.org/2000/svg">
<path d="M0 55.5823C0 82.4218 22.1038 103.429 46.3975 114.838C82.2164 131.66 106.685 165.516 106.686 204.541C106.686 245.252 80.0568 280.337 41.6929 296.328C19.5723 305.548 0 324.389 0 348.354C0 373.012 19.9885 393 44.6455 393H1022.22C1046.88 393 1066.87 373.012 1066.87 348.355C1066.87 324.389 1047.29 305.548 1025.17 296.328C986.807 280.338 960.178 245.253 960.178 204.541C960.178 165.515 984.647 131.659 1020.47 114.838C1044.76 103.428 1066.87 82.4213 1066.87 55.5816V50C1066.87 22.3858 1044.48 0 1016.87 0H49.9999C22.3857 0 0 22.3858 0 50V55.5823Z" fill="#1565C0"/>
</svg>
