<svg width="1363" height="733" viewBox="0 0 1363 733" fill="none" xmlns="http://www.w3.org/2000/svg">
<path d="M0 222.609C0 124.638 63.8818 45.2174 142.684 45.2174L1079.46 0C1211.42 9.27536 1263 94.3886 1255.25 191.884C1248.34 278.733 1187.31 289.935 1108.83 315.514C1084.84 323.331 1060.15 329.103 1035 331.047L142.684 400C63.8818 400 0 320.579 0 222.609Z" fill="#FFD738"/>
<path d="M361 470.496C361 570.183 280.187 650.996 180.5 650.996C80.8126 650.996 2.34527e-05 570.184 1.47378e-05 470.496L-8.03587e-06 209.996C-1.04983e-05 181.83 22.8335 158.996 51 158.996L361 158.996L361 470.496Z" fill="#FFD738"/>
<path d="M296 460.996C296 460.996 265.266 413.996 178.828 413.996C92.3891 413.996 63 460.996 63 460.996" stroke="#191919" stroke-width="6.43389" stroke-linecap="round"/>
<path d="M246.17 688.434L205.851 688.434L205.851 575.501L246.17 575.501L246.17 688.434Z" fill="#FFD738"/>
<path d="M144.378 688.434L104.059 688.434L104.059 587.866L144.378 587.866L144.378 688.434Z" fill="#FFD738"/>
<ellipse cx="226.014" cy="703.689" rx="30.4537" ry="29.2637" transform="rotate(180 226.014 703.689)" fill="#FFD738"/>
<ellipse cx="124.223" cy="703.689" rx="30.4537" ry="29.2637" transform="rotate(180 124.223 703.689)" fill="#FFD738"/>
<ellipse cx="175.983" cy="524.44" rx="64.9822" ry="62.4429" transform="rotate(180 175.983 524.44)" fill="white"/>
<ellipse cx="175.764" cy="524.239" rx="54.9025" ry="52.757" transform="rotate(180 175.764 524.239)" fill="#191919"/>
<rect x="1154" y="135.219" width="75.9997" height="200" rx="37.9998" transform="rotate(-81.7961 1154 135.219)" fill="#FFD738"/>
<rect x="1149" y="239.984" width="75.9997" height="200" rx="37.9998" transform="rotate(-63.4546 1149 239.984)" fill="#FFD738"/>
</svg>
