<svg width="286" height="75" viewBox="0 0 286 75" fill="none" xmlns="http://www.w3.org/2000/svg">
<path d="M94.7608 25.3766C97.5961 25.3766 99.9145 26.5432 101.716 28.8764C103.547 31.18 104.463 34.0744 104.463 37.5594C104.463 41.3988 103.592 44.3523 101.849 46.4197C100.136 48.487 97.7437 49.5207 94.6722 49.5207C91.9551 49.5207 89.8581 48.487 88.3814 46.4197H88.2928V56.3874H79.5212V25.9525H87.9827V28.4777H88.0713C89.489 26.4103 91.7188 25.3766 94.7608 25.3766ZM87.9827 37.4708C87.9827 41.2512 89.2674 43.1414 91.8369 43.1414C94.4064 43.1414 95.6911 41.2512 95.6911 37.4708C95.6911 33.6609 94.4064 31.7559 91.8369 31.7559C89.2674 31.7559 87.9827 33.6609 87.9827 37.4708ZM131.24 17.2694C130.915 19.2187 130.28 20.7102 129.335 21.7439C128.39 22.7776 126.987 23.4568 125.127 23.7817L120.608 24.5791C118.422 24.9631 116.798 25.6128 115.735 26.5284C114.701 27.444 114.066 28.7139 113.83 30.3383H113.963C114.967 28.9207 116.119 27.9017 117.418 27.2815C118.747 26.6318 120.312 26.3069 122.114 26.3069C125.186 26.3069 127.652 27.3554 129.512 29.4523C131.403 31.5492 132.348 34.3402 132.348 37.8252C132.348 41.3102 131.225 44.1308 128.981 46.2868C126.766 48.4427 123.753 49.5207 119.943 49.5207C115.956 49.5207 112.885 48.2655 110.729 45.7551C108.602 43.2152 107.539 39.4939 107.539 34.5912C107.539 30.2792 108.41 26.8237 110.153 24.2247C111.895 21.5962 114.42 19.957 117.728 19.3073L121.007 18.6428C121.893 18.4656 122.468 18.0078 122.734 17.2694H131.24ZM116.266 37.9138C116.266 41.4874 117.477 43.2743 119.899 43.2743C122.35 43.2743 123.576 41.4874 123.576 37.9138C123.576 34.3402 122.336 32.5534 119.855 32.5534C117.462 32.5534 116.266 34.3402 116.266 37.9138ZM144.57 25.9525V37.9581H144.702L151.303 25.9525H160.075V48.9448H151.658V36.6291H151.525L144.924 48.9448H136.152V25.9525H144.57ZM188.802 25.9525V48.9448H180.03V32.5091H173.651V48.9448H164.879V25.9525H188.802ZM204.814 25.3766C213.497 25.3766 217.838 30.0577 217.838 39.4201H201.004C201.151 40.8968 201.609 42.0191 202.377 42.787C203.175 43.5253 204.208 43.8945 205.478 43.8945C207.221 43.8945 208.446 43.3481 209.155 42.2553H217.351C216.494 44.6181 215.003 46.4197 212.877 47.6601C210.75 48.9005 208.299 49.5207 205.523 49.5207C201.654 49.5207 198.538 48.4427 196.175 46.2868C193.812 44.1308 192.631 41.2069 192.631 37.5151C192.631 34.0596 193.768 31.18 196.042 28.8764C198.316 26.5432 201.24 25.3766 204.814 25.3766ZM209.421 34.857C209.421 33.7643 209.052 32.8487 208.314 32.1104C207.575 31.372 206.645 31.0028 205.523 31.0028C202.983 31.0028 201.491 32.2876 201.048 34.857H209.421ZM242.306 25.9525V32.5091H235.041V48.9448H226.269V32.5091H219.004V25.9525H242.306Z" fill="#FF6DAC"/>
<circle cx="43.5459" cy="35.354" r="26.4795" stroke="#FF6DAC" stroke-width="6"/>
<mask id="path-3-inside-1_5_140" fill="white">
<path d="M56.7506 11.7187C63.9488 8.6917 71.6262 7.00994 75.6727 7.60735C79.7191 8.20477 81.5594 10.6764 80.9341 14.6738C80.3088 18.6712 77.2495 23.9928 72.1874 29.8887C67.1253 35.7846 60.3155 41.9574 52.718 47.5372C45.1205 53.1169 37.1183 57.8222 29.8391 60.9899C22.56 64.1577 16.3711 65.6281 12.1445 65.1939C7.91801 64.7597 5.86705 62.4429 6.2807 58.5699C6.69436 54.6969 11.3219 47.1831 16.2204 41.3261L19.7785 44.6633C16.0099 49.1694 15.2157 50.4694 14.8975 53.4491C14.5792 56.4288 16.1571 58.2113 19.4089 58.5453C22.6606 58.8794 26.3763 55.9366 31.9765 53.4995C37.5768 51.0624 43.7334 47.4423 49.5787 43.1495C55.4239 38.8566 60.663 34.1075 64.5576 29.5715C68.4522 25.0354 71.8518 22.7526 72.3328 19.6771C72.8139 16.6017 71.3981 14.7001 68.2849 14.2405C65.1717 13.7809 63.9917 14.0683 58.4537 16.3971L56.7506 11.7187Z"/>
</mask>
<path d="M56.7506 11.7187C63.9488 8.6917 71.6262 7.00994 75.6727 7.60735C79.7191 8.20477 81.5594 10.6764 80.9341 14.6738C80.3088 18.6712 77.2495 23.9928 72.1874 29.8887C67.1253 35.7846 60.3155 41.9574 52.718 47.5372C45.1205 53.1169 37.1183 57.8222 29.8391 60.9899C22.56 64.1577 16.3711 65.6281 12.1445 65.1939C7.91801 64.7597 5.86705 62.4429 6.2807 58.5699C6.69436 54.6969 11.3219 47.1831 16.2204 41.3261L19.7785 44.6633C16.0099 49.1694 15.2157 50.4694 14.8975 53.4491C14.5792 56.4288 16.1571 58.2113 19.4089 58.5453C22.6606 58.8794 26.3763 55.9366 31.9765 53.4995C37.5768 51.0624 43.7334 47.4423 49.5787 43.1495C55.4239 38.8566 60.663 34.1075 64.5576 29.5715C68.4522 25.0354 71.8518 22.7526 72.3328 19.6771C72.8139 16.6017 71.3981 14.7001 68.2849 14.2405C65.1717 13.7809 63.9917 14.0683 58.4537 16.3971L56.7506 11.7187Z" fill="#FF6DAC"/>
<path d="M56.7506 11.7187L51.8477 0.0590712L40.7453 4.72784L44.8653 16.0455L56.7506 11.7187ZM16.2204 41.3261L24.873 32.1003L15.1075 22.9413L6.51808 33.2115L16.2204 41.3261ZM19.7785 44.6633L29.4808 52.7779L37.1469 43.6118L28.4311 35.4374L19.7785 44.6633ZM58.4537 16.3971L46.5684 20.7239L51.1121 33.2058L63.3566 28.0568L58.4537 16.3971ZM56.7506 11.7187L61.6535 23.3783C64.5894 22.1437 67.5693 21.2106 70.085 20.6627C72.9171 20.0459 74.0698 20.1564 73.8253 20.1203L75.6727 7.60735L77.5201 -4.90557C73.2291 -5.53909 68.5199 -4.88647 64.7021 -4.05499C60.568 -3.15463 56.11 -1.73331 51.8477 0.0590712L56.7506 11.7187ZM75.6727 7.60735L73.8253 20.1203C73.7312 20.1064 71.6445 19.7487 69.9102 17.4195C68.1568 15.0645 68.4082 12.9073 68.4377 12.7191L80.9341 14.6738L93.4305 16.6285C94.0852 12.4428 93.7292 7.05113 90.2003 2.31166C86.6906 -2.4021 81.6606 -4.29426 77.5201 -4.90557L75.6727 7.60735ZM80.9341 14.6738L68.4377 12.7191C68.4517 12.6291 68.3049 13.4462 67.259 15.2654C66.2719 16.9824 64.7453 19.1399 62.5909 21.6491L72.1874 29.8887L81.7838 38.1283C87.1976 31.8229 92.2378 24.2535 93.4305 16.6285L80.9341 14.6738ZM72.1874 29.8887L62.5909 21.6491C58.2713 26.6802 52.2114 32.2161 45.2312 37.3425L52.718 47.5372L60.2049 57.7318C68.4197 51.6987 75.9792 44.889 81.7838 38.1283L72.1874 29.8887ZM52.718 47.5372L45.2312 37.3425C38.2554 42.4657 31.0654 46.662 24.7921 49.392L29.8391 60.9899L34.8861 72.5879C43.1711 68.9825 51.9856 63.7681 60.2049 57.7318L52.718 47.5372ZM29.8391 60.9899L24.7921 49.392C18.0503 52.3259 14.336 52.7039 13.4371 52.6115L12.1445 65.1939L10.852 77.7762C18.4061 78.5522 27.0697 75.9894 34.8861 72.5879L29.8391 60.9899ZM12.1445 65.1939L13.4371 52.6115C13.2208 52.5893 15.1189 52.7267 16.9431 54.7874C18.9331 57.0353 18.9153 59.372 18.8575 59.9132L6.2807 58.5699L-6.29614 57.2266C-6.76759 61.6408 -5.96668 67.0724 -1.99805 71.5555C1.80488 75.8514 6.84175 77.3643 10.852 77.7762L12.1445 65.1939ZM6.2807 58.5699L18.8575 59.9132C18.7704 60.7291 18.606 60.8475 18.9638 60.0039C19.2594 59.307 19.7526 58.3257 20.47 57.1064C21.9071 54.664 23.8774 51.8863 25.9227 49.4408L16.2204 41.3261L6.51808 33.2115C3.66488 36.623 0.872167 40.5307 -1.3325 44.2776C-3.21383 47.475 -5.77652 52.3615 -6.29614 57.2266L6.2807 58.5699ZM16.2204 41.3261L7.56778 50.552L11.1259 53.8892L19.7785 44.6633L28.4311 35.4374L24.873 32.1003L16.2204 41.3261ZM19.7785 44.6633L10.0762 36.5486C8.30489 38.6666 6.39435 40.9853 5.02104 43.4258C3.26346 46.5493 2.61172 49.3804 2.32062 52.1058L14.8975 53.4491L27.4743 54.7923C27.5063 54.4927 27.5085 54.6454 27.4079 54.9907C27.2919 55.3892 27.143 55.6965 27.0671 55.8314C27.0318 55.8941 27.121 55.724 27.542 55.1699C27.9648 54.6135 28.5647 53.8733 29.4808 52.7779L19.7785 44.6633ZM14.8975 53.4491L2.32062 52.1058C1.89687 56.0734 2.60337 61.148 6.34383 65.3734C9.91857 69.4115 14.5935 70.7658 18.1163 71.1277L19.4089 58.5453L20.7014 45.963C20.9725 45.9908 23.2326 46.2868 25.285 48.6053C27.5031 51.111 27.5798 53.8045 27.4743 54.7923L14.8975 53.4491ZM19.4089 58.5453L18.1163 71.1277C23.6858 71.6998 28.3595 69.4098 30.3828 68.4172C33.5444 66.8662 34.4273 66.2273 37.0235 65.0975L31.9765 53.4995L26.9295 41.9016C25.1542 42.6741 23.5874 43.4612 22.2998 44.1267C20.8575 44.8722 20.1069 45.2812 19.2412 45.706C18.4448 46.0966 18.232 46.1525 18.3343 46.1219C18.4833 46.0773 19.373 45.8265 20.7014 45.963L19.4089 58.5453ZM31.9765 53.4995L37.0235 65.0975C43.6296 62.2226 50.5985 58.0936 57.0655 53.3441L49.5787 43.1495L42.0918 32.9548C36.8683 36.7911 31.524 39.9022 26.9295 41.9016L31.9765 53.4995ZM49.5787 43.1495L57.0655 53.3441C63.528 48.5979 69.5169 43.2119 74.154 37.8111L64.5576 29.5715L54.9612 21.3319C51.8091 25.0031 47.3198 29.1153 42.0918 32.9548L49.5787 43.1495ZM64.5576 29.5715L74.154 37.8111C74.8809 36.9645 75.6177 36.1841 76.4219 35.3559C77.1195 34.6376 78.1851 33.565 79.0443 32.6287C80.6041 30.929 83.9611 27.1817 84.8292 21.6319L72.3328 19.6771L59.8364 17.7224C60.0417 16.4102 60.5181 15.5299 60.7292 15.1913C60.8897 14.9339 60.9034 14.9827 60.4063 15.5244C59.8687 16.1103 59.3241 16.6511 58.2738 17.7327C57.3303 18.7044 56.1817 19.9104 54.9612 21.3319L64.5576 29.5715ZM72.3328 19.6771L84.8292 21.6319C85.4119 17.9071 85.1259 12.8885 81.8018 8.424C78.4968 3.98521 73.8062 2.27002 70.1323 1.7276L68.2849 14.2405L66.4375 26.7534C65.8768 26.6707 63.4507 26.136 61.5116 23.5318C59.5535 20.9018 59.7349 18.3717 59.8364 17.7224L72.3328 19.6771ZM68.2849 14.2405L70.1323 1.7276C67.7594 1.37726 64.991 1.15868 61.538 1.9251C58.8533 2.52101 56.1103 3.66122 53.5508 4.73754L58.4537 16.3971L63.3566 28.0568C64.7188 27.4839 65.6165 27.1203 66.2793 26.875C66.9371 26.6315 67.1079 26.6015 67.0192 26.6212C66.8377 26.6615 66.5224 26.7053 66.1882 26.7046C65.9467 26.7041 65.9232 26.6775 66.4375 26.7534L68.2849 14.2405ZM58.4537 16.3971L70.339 12.0703L68.6359 7.39188L56.7506 11.7187L44.8653 16.0455L46.5684 20.7239L58.4537 16.3971Z" fill="#FF6DAC" mask="url(#path-3-inside-1_5_140)"/>
<circle cx="4" cy="4" r="2.69834" transform="matrix(-1 0 0 1 55.9062 25.2104)" fill="#FF6DAC" stroke="#FF6DAC" stroke-width="2.60332"/>
<circle cx="4" cy="4" r="2.69834" transform="matrix(-1 0 0 1 36.9062 25.2104)" fill="#FF6DAC" stroke="#FF6DAC" stroke-width="2.60332"/>
<mask id="path-7-inside-2_5_140" fill="white">
<path d="M44.9765 33.9934C45.7391 33.917 46.4013 34.5161 46.4013 35.2824V38.3371C46.4013 38.4801 46.3753 38.6151 46.3339 38.7414C46.3763 38.8692 46.4023 39.0068 46.4023 39.1526V42.135C46.4023 42.8337 45.8477 43.4069 45.1494 43.4299L38.9472 43.6321C37.5662 43.6767 37.0843 41.8173 38.3134 41.1858L42.832 38.8635L38.248 37.135C36.967 36.652 37.2139 34.7704 38.5761 34.634L44.9765 33.9934Z"/>
</mask>
<path d="M44.9765 33.9934C45.7391 33.917 46.4013 34.5161 46.4013 35.2824V38.3371C46.4013 38.4801 46.3753 38.6151 46.3339 38.7414C46.3763 38.8692 46.4023 39.0068 46.4023 39.1526V42.135C46.4023 42.8337 45.8477 43.4069 45.1494 43.4299L38.9472 43.6321C37.5662 43.6767 37.0843 41.8173 38.3134 41.1858L42.832 38.8635L38.248 37.135C36.967 36.652 37.2139 34.7704 38.5761 34.634L44.9765 33.9934Z" fill="#FF6DAC"/>
<path d="M44.9765 33.9934L49.3587 77.7746L49.3596 77.7745L44.9765 33.9934ZM46.4013 38.3371L90.4013 38.3483V38.3371H46.4013ZM46.3339 38.7414L4.51693 25.0543L0.00863647 38.8281L4.56843 52.5849L46.3339 38.7414ZM45.1494 43.4299L46.5827 87.4066L46.5918 87.4063L46.6009 87.406L45.1494 43.4299ZM38.9472 43.6321L40.3705 87.609L40.3806 87.6087L38.9472 43.6321ZM38.3134 41.1858L58.4215 80.3223L58.426 80.3199L38.3134 41.1858ZM42.832 38.8635L62.9446 77.9977L151.13 32.6759L58.3564 -2.3068L42.832 38.8635ZM38.248 37.135L53.7724 -4.03532L53.772 -4.03545L38.248 37.135ZM38.5761 34.634L34.194 -9.14723L34.193 -9.14713L38.5761 34.634ZM44.9765 33.9934L49.3596 77.7745C24.2285 80.2905 2.40133 60.5597 2.40133 35.2824H46.4013H90.4013C90.4013 8.47253 67.2496 -12.4564 40.5934 -9.78776L44.9765 33.9934ZM46.4013 35.2824H2.40133V38.3371H46.4013H90.4013V35.2824H46.4013ZM46.4013 38.3371L2.40133 38.326C2.40266 33.0752 3.36611 28.5703 4.51693 25.0543L46.3339 38.7414L88.151 52.4286C89.3845 48.6598 90.3999 43.8849 90.4013 38.3483L46.4013 38.3371ZM46.3339 38.7414L4.56843 52.5849C3.32905 48.8457 2.40231 44.3026 2.40231 39.1526H46.4023H90.4023C90.4023 33.711 89.4235 28.8927 88.0995 24.898L46.3339 38.7414ZM46.4023 39.1526H2.40231V42.135H46.4023H90.4023V39.1526H46.4023ZM46.4023 42.135H2.40231C2.40231 19.0949 20.6769 0.213718 43.6978 -0.546146L45.1494 43.4299L46.6009 87.406C71.0185 86.6 90.4023 66.5725 90.4023 42.135H46.4023ZM45.1494 43.4299L43.716 -0.546741L37.5139 -0.344593L38.9472 43.6321L40.3806 87.6087L46.5827 87.4066L45.1494 43.4299ZM38.9472 43.6321L37.5239 -0.344917C83.0454 -1.81821 98.9591 59.4943 58.4215 80.3223L38.3134 41.1858L18.2054 2.04927C-24.7904 24.1402 -7.91288 89.1717 40.3705 87.609L38.9472 43.6321ZM38.3134 41.1858L58.426 80.3199L62.9446 77.9977L42.832 38.8635L22.7194 -0.270664L18.2008 2.0516L38.3134 41.1858ZM42.832 38.8635L58.3564 -2.3068L53.7724 -4.03532L38.248 37.135L22.7236 78.3053L27.3076 80.0338L42.832 38.8635ZM38.248 37.135L53.772 -4.03545C96.0231 11.896 87.8583 73.9201 42.9592 78.4151L38.5761 34.634L34.193 -9.14713C-13.4306 -4.37935 -22.0891 61.4079 22.724 78.3054L38.248 37.135ZM38.5761 34.634L42.9583 78.4152L49.3587 77.7746L44.9765 33.9934L40.5944 -9.78786L34.194 -9.14723L38.5761 34.634Z" fill="#FF6DAC" mask="url(#path-7-inside-2_5_140)"/>
</svg>
