<svg width="361" height="574" viewBox="0 0 361 574" fill="none" xmlns="http://www.w3.org/2000/svg">
<path d="M361 311.5C361 411.187 280.187 492 180.5 492C80.8126 492 4.31121e-05 411.187 3.43971e-05 311.5L1.16235e-05 51C9.16108e-06 22.8335 22.8335 -9.54123e-07 51 -3.41652e-06L361 -3.05176e-05L361 311.5Z" fill="#FFD738"/>
<path d="M296 302C296 302 265.266 255 178.828 255C92.3891 255 63 302 63 302" stroke="#191919" stroke-width="6.43389" stroke-linecap="round"/>
<path d="M246.17 529.438L205.851 529.438L205.851 416.505L246.17 416.505L246.17 529.438Z" fill="#FFD738"/>
<path d="M144.378 529.438L104.059 529.438L104.059 428.869L144.378 428.869L144.378 529.438Z" fill="#FFD738"/>
<ellipse cx="226.014" cy="544.693" rx="30.4537" ry="29.2637" transform="rotate(180 226.014 544.693)" fill="#FFD738"/>
<ellipse cx="124.223" cy="544.693" rx="30.4537" ry="29.2637" transform="rotate(180 124.223 544.693)" fill="#FFD738"/>
<ellipse cx="175.983" cy="365.444" rx="64.9822" ry="62.4429" transform="rotate(180 175.983 365.444)" fill="white"/>
<ellipse cx="175.764" cy="365.243" rx="54.9025" ry="52.757" transform="rotate(180 175.764 365.243)" fill="#191919"/>
</svg>
