<svg width="97" height="108" viewBox="0 0 97 108" fill="none" xmlns="http://www.w3.org/2000/svg">
<path fill-rule="evenodd" clip-rule="evenodd" d="M96.0315 55.2501L95.9525 55.7295L95.7173 56.2043L95.3318 56.6701L94.8056 57.1228L94.1513 57.5589L93.3838 57.9756L92.5201 58.3707L91.5783 58.7427L90.577 59.0912L89.5345 59.4161L88.4686 59.7182L87.3958 59.9988L86.3316 60.2597L85.2897 60.5031L84.2823 60.7316L83.32 60.9478L82.4121 61.1548L81.5665 61.3557L80.7898 61.5536L80.0878 61.7518L79.4657 61.9538L78.9282 62.1631L78.4796 62.3835L78.1245 62.6187L77.8677 62.873L77.7145 63.1511L77.6711 63.458L77.7451 63.7994L77.9456 64.1821L78.2835 64.6136L78.7728 65.103L79.4304 65.6612L80.2779 66.3013L81.3419 67.0395L82.6565 67.8957L84.2648 68.8951L86.222 70.0697L88.5998 71.4608L91.4923 73.1223L89.8365 72.9326L86.8867 72.1456L84.4404 71.5173L82.4051 71.0227L80.7102 70.6429L79.3005 70.3633L78.1327 70.1725L77.1727 70.0618L76.3928 70.0245L75.7711 70.0555L75.2895 70.1508L74.9332 70.3076L74.6902 70.5239L74.55 70.798L74.5041 71.1291L74.5449 71.5163L74.6657 71.9594L74.8604 72.4578L75.123 73.0111L75.448 73.6188L75.8294 74.2797L76.261 74.9925L76.7361 75.7552L77.2474 76.5647L77.7867 77.4173L78.3452 78.3081L78.9127 79.2309L79.4786 80.1782L80.0311 81.1412L80.5578 82.1098L81.0457 83.0726L81.4819 84.017L81.8534 84.9298L82.1478 85.7973L82.354 86.6058L82.4621 87.3422L82.4647 87.9941L82.3564 88.5511L82.1346 89.0046L81.7997 89.3485L81.3548 89.5793L80.8057 89.6966L80.161 89.7027L79.431 89.6027L78.6278 89.404L77.7645 89.1162L76.8548 88.7504L75.9124 88.3189L74.9507 87.8345L73.9822 87.3104L73.0183 86.7595L72.0695 86.1943L71.1445 85.6264L70.2509 85.0669L69.3951 84.5257L68.582 84.0118L67.8155 83.5335L67.0987 83.0982L66.4335 82.7126L65.8217 82.3829L65.264 82.115L64.7612 81.9147L64.3138 81.7878L63.922 81.7404L63.5865 81.7792L63.3078 81.9115L63.0869 82.1461L62.9253 82.4929L62.8249 82.964L62.7887 83.574L62.8204 84.3405L62.925 85.2853L63.1091 86.4354L63.3813 87.8244L63.7527 89.4949L64.2374 91.5007L64.8543 93.9114L65.6275 96.8171L66.0323 98.9849L64.3465 96.0465L62.9361 93.6314L61.746 91.6435L60.734 90.0096L59.8674 88.6733L59.1206 87.5906L58.4734 86.727L57.9092 86.055L57.4147 85.553L56.979 85.2035L56.5927 84.9926L56.2482 84.9089L55.9388 84.9432L55.6587 85.0879L55.4026 85.3367L55.166 85.6841L54.9447 86.1254L54.7346 86.6561L54.5322 87.2716L54.3338 87.9674L54.136 88.7384L53.9355 89.5788L53.7291 90.482L53.5137 91.4403L53.2863 92.4445L53.0442 93.4842L52.7848 94.5471L52.5058 95.6198L52.2055 96.6869L51.8825 97.7319L51.5359 98.7372L51.1657 99.6844L50.7724 100.555L50.3574 101.331L49.9228 101.995L49.4713 102.532L49.0064 102.929L48.5322 103.176L48.053 103.268L47.5734 103.201L47.0981 102.978L46.6315 102.605L46.1776 102.089L45.7401 101.444L45.3218 100.685L44.9249 99.8287L44.551 98.8925L44.2007 97.8952L43.8739 96.8553L43.57 95.7905L43.2878 94.7177L43.0254 93.6522L42.7807 92.608L42.5512 91.5974L42.3341 90.6312L42.1264 89.7187L41.9252 88.8678L41.7272 88.0853L41.5291 87.3772L41.3275 86.7486L41.1189 86.2041L40.8996 85.7483L40.6658 85.3855L40.4131 85.1207L40.1371 84.959L39.8327 84.9066L39.4943 84.971L39.1152 85.161L38.6879 85.4875L38.2035 85.9642L37.6512 86.6077L37.0182 87.4392L36.2885 88.4849L35.4426 89.7781L34.4557 91.3612L33.2964 93.2883L31.9244 95.6296L30.2869 98.4771L30.2624 97.3331L31.0633 94.3383L31.7032 91.8555L32.2077 89.7903L32.596 88.0704L32.8832 86.6396L33.0807 85.454L33.1975 84.4784L33.2404 83.6851L33.2147 83.0515L33.1244 82.5593L32.9724 82.1935L32.7608 81.9418L32.4912 81.7938L32.1647 81.7406L31.7819 81.7748L31.3433 81.8894L30.8493 82.0785L30.3003 82.3359L29.697 82.6562L29.0403 83.0333L28.3315 83.4612L27.5728 83.9331L26.7669 84.4418L25.9176 84.9792L25.0297 85.5365L24.1092 86.1037L23.1635 86.6702L22.2014 87.2242L21.2329 87.7534L20.2693 88.245L19.323 88.6858L18.4072 89.0629L17.5356 89.3639L16.7219 89.5774L15.9794 89.6937L15.3203 89.7049L14.7554 89.6056L14.2934 89.3928L13.9407 89.0668L13.7008 88.6305L13.5745 88.0894L13.5597 87.4519L13.6515 86.7283L13.8427 85.9304L14.1238 85.0714L14.4838 84.1648L14.9105 83.2245L15.3911 82.2639L15.9125 81.2954L16.4617 80.3308L17.0263 79.3803L17.5943 78.4531L18.1549 77.5568L18.6979 76.6977L19.2142 75.881L19.6956 75.1107L20.1346 74.3898L20.5244 73.7205L20.8587 73.1043L21.1317 72.5423L21.3376 72.0351L21.4706 71.5832L21.5245 71.187L21.4929 70.847L21.3683 70.5637L21.1423 70.3382L20.8048 70.1717L20.3441 70.0664L19.7458 70.025L18.9925 70.0511L18.0628 70.1497L16.9303 70.3272L15.5617 70.592L13.9155 70.955L11.9388 71.4301L9.56341 72.0356L6.7011 72.7954L4.02128 73.4163L7.00626 71.7057L9.45912 70.2756L11.478 69.0695L13.1378 68.0446L14.496 67.1674L15.5975 66.4119L16.4774 65.7573L17.1638 65.187L17.6786 64.6874L18.0397 64.2473L18.2612 63.8575L18.3547 63.5099L18.3295 63.1979L18.1933 62.9156L17.9526 62.6578L17.6128 62.4198L17.1788 62.1974L16.6552 61.9866L16.0462 61.7836L15.3567 61.585L14.5915 61.3873L13.7564 61.1871L12.8579 60.9813L11.9038 60.7667L10.9029 60.5404L9.86569 60.2996L8.80412 60.0416L7.73174 59.7643L6.66362 59.4657L5.61622 59.1445L4.60713 58.7998L3.65465 58.4315L2.77732 58.04L1.99334 57.6266L1.31987 57.1934L0.772335 56.7431L0.363767 56.2792L0.104162 55.8055L0 55.3266L0.0539076 54.8468L0.264523 54.371L0.626568 53.9035L1.13112 53.4485L1.76605 53.0095L2.51662 52.5896L3.36615 52.1909L4.29671 51.8151L5.28978 51.4629L6.32692 51.1343L7.39029 50.8286L8.46302 50.5447L9.52958 50.2808L10.5759 50.0348L11.5896 49.8041L12.5597 49.5861L13.4768 49.3778L14.3328 49.1762L15.1209 48.9781L15.8351 48.7801L16.4702 48.5789L17.0216 48.371L17.4846 48.1527L17.8549 47.9201L18.1277 47.6691L18.2978 47.3951L18.3591 47.0932L18.3044 46.7577L18.1248 46.3821L17.8096 45.9589L17.3455 45.4794L16.7159 44.9329L15.9003 44.3069L14.8729 43.5856L13.6008 42.7497L12.0427 41.775L10.1453 40.6308L7.84009 39.2775L5.03702 37.6633L5.66918 37.4255L8.70943 38.2406L11.2292 38.8923L13.3247 39.4068L15.0698 39.8038L16.5217 40.0986L17.7255 40.3029L18.7167 40.4258L19.5236 40.4744L20.1692 40.454L20.6721 40.3687L21.0474 40.2215L21.3078 40.0146L21.4637 39.7496L21.5241 39.4276L21.4966 39.0492L21.3882 38.615L21.2049 38.1254L20.9526 37.5808L20.6372 36.9818L20.2644 36.3292L19.8403 35.6245L19.3717 34.8697L18.8656 34.0674L18.3302 33.2213L17.7742 32.3362L17.2074 31.4181L16.6405 30.4741L16.085 29.5129L15.5534 28.5445L15.0584 27.58L14.6131 26.6318L14.2304 25.7131L13.923 24.8374L13.7021 24.0186L13.5777 23.2699L13.5579 22.6038L13.6483 22.031L13.852 21.5606L14.169 21.1989L14.5967 20.95L15.1297 20.8147L15.7598 20.7912L16.4771 20.8747L17.2695 21.0583L18.1241 21.3326L19.0273 21.6868L19.9654 22.1087L20.9249 22.5855L21.8931 23.1041L22.8584 23.6516L23.8103 24.2154L24.7397 24.7836L25.6387 25.3451L26.5009 25.8899L27.3211 26.4087L28.0952 26.8931L28.8201 27.3358L29.4936 27.7297L30.114 28.0687L30.6804 28.3469L31.1919 28.5583L31.6482 28.6973L32.0488 28.7578L32.3934 28.7332L32.6812 28.6163L32.9113 28.3987L33.0825 28.0705L33.1928 27.6201L33.2395 27.0333L33.2189 26.2931L33.1263 25.3783L32.9553 24.263L32.6978 22.9146L32.3432 21.2922L31.8776 19.344L31.2833 17.0032L30.5368 14.1834L29.6987 10.991L31.4346 14.0236L32.8847 16.5149L34.1069 18.5655L35.1449 20.2516L36.0327 21.632L36.7971 22.7526L37.459 23.6491L38.0355 24.35L38.5403 24.8778L38.9847 25.2506L39.3783 25.4827L39.7289 25.5861L40.0435 25.57L40.328 25.4425L40.5875 25.2099L40.8269 24.8778L41.0504 24.4511L41.262 23.9344L41.4654 23.3321L41.6643 22.6487L41.8619 21.8894L42.0618 21.0596L42.267 20.1659L42.4808 19.2158L42.7061 18.2182L42.9457 17.1835L43.2022 16.1233L43.4779 15.0512L43.7747 13.9822L44.094 12.9325L44.4368 11.9196L44.8033 10.9619L45.1929 10.0779L45.6046 9.28582L46.0363 8.60293L46.4853 8.04484L46.9483 7.62478L47.4213 7.35302L47.9001 7.23633L48.3799 7.27765L48.8562 7.47593L49.3245 7.82621L49.7806 8.31983L50.221 8.94491L50.6425 9.68689L51.0429 10.5292L51.4205 11.454L51.7747 12.4428L52.1051 13.4772L52.4126 14.5391L52.6981 15.6117L52.9635 16.6793L53.2109 17.7278L53.4427 18.7445L53.6616 19.7184L53.8705 20.6401L54.0726 21.5013L54.2709 22.2951L54.4687 23.0154L54.6695 23.657L54.8767 24.2152L55.0941 24.6854L55.3254 25.0633L55.5747 25.3441L55.8467 25.5226L56.1462 25.5928L56.4788 25.5476L56.8509 25.3783L57.27 25.0743L57.7447 24.6226L58.2853 24.0069L58.9045 23.207L59.6176 22.1974L60.4435 20.9462L61.406 19.4126L62.5354 17.5445L63.8703 15.2746L65.4614 12.515L65.9116 12.6352L65.0822 15.7219L64.4185 18.2793L63.894 20.4057L63.4883 22.1765L63.1858 23.6501L62.9747 24.8722L62.8455 25.8792L62.7912 26.6999L62.8063 27.3577L62.8866 27.8713L63.0289 28.2563L63.2311 28.5255L63.4915 28.6894L63.809 28.7571L64.1829 28.7364L64.6127 28.6341L65.0979 28.4565L65.6381 28.2096L66.2328 27.8989L66.8811 27.5305L67.5817 27.1103L68.3326 26.6449L69.1312 26.1415L69.9739 25.6081L70.8561 25.0534L71.7718 24.487L72.714 23.9197L73.6741 23.3629L74.6424 22.8289L75.6076 22.3304L76.5575 21.8807L77.4791 21.4926L78.3586 21.1787L79.1825 20.9505L79.9372 20.8181L80.6103 20.7897L81.1908 20.8712L81.6697 21.0658L82.0401 21.3739L82.2981 21.793L82.4424 22.3179L82.4747 22.9406L82.3995 23.6513L82.2236 24.4383L81.9561 25.2885L81.6079 26.1883L81.1909 27.1242L80.718 28.0825L80.2022 29.0505L79.6566 30.0164L79.0937 30.9698L78.5254 31.9013L77.963 32.803L77.4166 33.6683L76.8954 34.4921L76.408 35.27L75.9617 35.9989L75.5637 36.6766L75.2201 37.3013L74.9369 37.872L74.72 38.388L74.575 38.8487L74.508 39.2538L74.5255 39.6028L74.6348 39.8952L74.8441 40.13L75.163 40.306L75.6032 40.4212L76.1786 40.473L76.9058 40.458L77.8058 40.3713L78.904 40.2069L80.2324 39.9566L81.8312 39.6101L83.7512 39.1539L86.0578 38.5706L88.8356 37.8373L92.1958 36.9239L89.4601 38.5425L86.9298 40.0131L84.8473 41.2517L83.1346 42.303L81.7316 43.2018L80.5918 43.9752L79.6786 44.6446L78.9631 45.2274L78.4222 45.7374L78.0377 46.1863L77.7948 46.5836L77.6816 46.9375L77.6884 47.2547L77.8074 47.5414L78.0318 47.8028L78.3561 48.0436L78.7754 48.2682L79.2851 48.4806L79.8808 48.6846L80.5578 48.8836L81.3113 49.0813L82.1357 49.2809L83.0245 49.4856L83.9704 49.6985L84.9645 49.9228L85.9967 50.1612L87.0552 50.4162L88.1269 50.6904L89.1967 50.9854L90.2486 51.303L91.265 51.6439L92.2277 52.0084L93.1183 52.3963L93.9183 52.8063L94.6104 53.2365L95.179 53.6843L95.6104 54.1463L95.8943 54.6187L96.0235 55.0972L96.0315 55.2501Z" fill="#1565C0"/>
<circle cx="35.1863" cy="41.7679" r="10.1951" fill="#191919"/>
<circle cx="58.869" cy="41.7679" r="10.1951" fill="#191919"/>
<circle cx="35.1864" cy="41.7674" r="7.92954" fill="#FFD738"/>
<circle cx="58.868" cy="41.7694" r="7.92954" fill="#FFD738"/>
<circle cx="34.9062" cy="41.4857" r="5.38076" fill="#191919"/>
<circle cx="58.581" cy="41.4838" r="5.38076" fill="#191919"/>
<circle cx="48.6737" cy="100.637" r="7.23525" fill="#FFD738"/>
<circle cx="48.0145" cy="7.23525" r="7.23525" fill="#FFD738"/>
</svg>
