<svg width="113" height="84" viewBox="0 0 113 84" fill="none" xmlns="http://www.w3.org/2000/svg">
<path fill-rule="evenodd" clip-rule="evenodd" d="M62.5447 40.11L62.5936 40.1606L62.7424 40.2134L62.9968 40.2708L63.3669 40.3356L63.8671 40.4108L64.5173 40.5004L65.3428 40.6091L66.3755 40.7429L67.6541 40.909L69.2236 41.1165L71.1343 41.3764L73.4383 41.7011L76.1831 42.1045L79.4005 42.6003L83.0912 43.1995L87.2035 43.907L91.6112 44.7168L96.096 45.6062L100.346 46.5323L103.98 47.4323L106.606 48.2293L107.901 48.8457L107.69 49.2199L105.997 49.3202L103.034 49.1522L99.1504 48.7548L94.7443 48.1883L90.1891 47.5202L85.7798 46.8123L81.7143 46.1136L78.1001 45.4579L74.9735 44.8647L72.3228 44.343L70.1092 43.8937L68.2809 43.5135L66.7838 43.1966L65.567 42.9363L64.5854 42.7261L63.8006 42.5602L63.1815 42.4337L62.7031 42.3427L62.346 42.2843L62.0958 42.2568L61.9424 42.2596L61.8798 42.2929L61.9052 42.3584L62.0196 42.4588L62.2272 42.5984L62.5359 42.783L62.9574 43.0206L63.5078 43.3213L64.208 43.698L65.0838 44.1669L66.1664 44.7476L67.4917 45.4634L69.099 46.3407L71.0277 47.408L73.3115 48.6929L75.9688 50.217L78.9894 51.9883L82.3175 53.9911L85.8347 56.1737L89.3482 58.4388L92.5938 60.6406L95.2615 62.5948L97.0464 64.1049L97.7141 65.0013L97.1616 65.1814L95.4467 64.636L92.7741 63.4499L89.4425 61.778L85.7764 59.8065L82.0665 57.7151L78.5332 55.6508L75.3173 53.7168L72.4882 51.9738L70.0619 50.4475L68.0197 49.1399L66.3243 48.0379L64.9306 47.1209L63.7936 46.366L62.8715 45.7508L62.1283 45.2551L61.5336 44.8615L61.0626 44.5558L60.6958 44.3266L60.4178 44.1655L60.217 44.0665L60.0852 44.0259L60.017 44.0424L60.0093 44.1168L60.0615 44.252L60.1754 44.4538L60.3549 44.7302L60.6065 45.0925L60.9389 45.5558L61.3638 46.1388L61.8955 46.8651L62.5511 47.7632L63.3497 48.8662L64.3113 50.2112L65.4548 51.8367L66.7937 53.7776L68.3303 56.0576L70.0479 58.677L71.9017 61.5979L73.8099 64.728L75.6503 67.9086L77.2657 70.9148L78.4829 73.476L79.1445 75.3183L79.1456 76.2223L78.4635 76.0773L77.1662 74.9106L75.3963 72.8794L73.3361 70.2279L71.1686 67.2302L69.0471 64.1378L67.0795 61.1477L65.3277 58.3906L63.8153 55.9372L62.539 53.8113L61.4796 52.0054L60.6104 50.494L59.9027 49.2433L59.3293 48.2181L58.8662 47.3849L58.493 46.7144L58.1926 46.1814L57.9516 45.7657L57.7588 45.4512L57.6058 45.2257L57.4858 45.0804L57.3937 45.0097L57.3253 45.0109L57.2778 45.0841L57.2488 45.2322L57.2368 45.4612L57.2406 45.7801L57.2596 46.2016L57.293 46.7426L57.3405 47.4245L57.4013 48.2738L57.4743 49.3222L57.5573 50.6065L57.6468 52.1669L57.7373 54.0439L57.8202 56.2723L57.8837 58.8717L57.9121 61.8327L57.8864 65.1001L57.7864 68.5557L57.5944 72.0077L57.2997 75.1949L56.9046 77.8145L56.4275 79.5728L55.9025 80.2501L55.3738 79.7571L54.8864 78.1591L54.4766 75.6582L54.1653 72.5406L53.9574 69.1117L53.8439 65.6419L53.8077 62.3348L53.8288 59.3199L53.8878 56.6613L53.9686 54.3745L54.0585 52.4436L54.1486 50.8355L54.2329 49.5099L54.3077 48.4265L54.3705 47.5478L54.4202 46.8412L54.4559 46.2793L54.4772 45.84L54.4835 45.5057L54.4741 45.2631L54.4479 45.1025L54.4034 45.0177L54.3385 45.0051L54.2504 45.0642L54.1352 45.1974L53.9878 45.4096L53.802 45.7092L53.5692 46.1078L53.2792 46.6208L52.9186 47.268L52.4711 48.0734L51.9168 49.0658L51.2322 50.2782L50.3906 51.7458L49.3634 53.5028L48.1233 55.5766L46.6492 57.9784L44.9348 60.6905L42.9985 63.6506L40.8955 66.7382L38.7262 69.7667L36.6371 72.4916L34.8083 74.6395L33.4247 75.9572L32.6378 76.2704L32.5293 75.5295L33.0908 73.8242L34.2292 71.3598L35.7928 68.4056L37.6086 65.2363L39.5152 62.0857L41.3842 59.1237L43.1274 56.4525L44.6945 54.1177L46.0651 52.1239L47.239 50.4504L48.2285 49.0632L49.0517 47.9242L49.7287 46.9958L50.2789 46.2442L50.7198 45.6401L51.0661 45.1591L51.3298 44.7818L51.5204 44.4925L51.6444 44.2795L51.7063 44.1341L51.7081 44.0503L51.6496 44.0247L51.5282 44.0562L51.3389 44.1457L51.0739 44.2966L50.7221 44.5144L50.269 44.8073L49.6955 45.186L48.9778 45.6643L48.0865 46.2592L46.9863 46.9904L45.6365 47.88L43.9922 48.9511L42.0081 50.2248L39.6449 51.7159L36.88 53.4254L33.7226 55.332L30.2325 57.3813L26.538 59.4772L22.847 61.4792L19.4407 63.2115L16.6416 64.4866L14.7573 65.142L14.0116 65.0794L14.4878 64.2924L16.1077 62.87L18.6542 60.9735L21.8291 58.7981L25.3192 56.5321L28.8507 54.3286L32.2187 52.2926L35.2935 50.4826L38.0103 48.9192L40.3529 47.5974L42.3362 46.4972L43.9921 45.5915L45.3596 44.8519L46.4783 44.2514L47.3848 43.7661L48.1111 43.3758L48.6839 43.064L49.1248 42.8171L49.4505 42.6246L49.6735 42.4783L49.8024 42.3719L49.8418 42.3011L49.7933 42.2628L49.6548 42.2553L49.4206 42.2779L49.0813 42.3313L48.6234 42.4169L48.0282 42.5376L47.2718 42.6969L46.3238 42.8996L45.1473 43.1515L43.6982 43.459L41.9262 43.8287L39.7776 44.2666L37.1996 44.7768L34.1505 45.3589L30.613 46.0056L26.6144 46.6993L22.2491 47.4087L17.6998 48.087L13.2465 48.6742L9.25242 49.1029L6.11738 49.3108L4.20334 49.2545L3.75 48.9228L4.81205 48.3414L7.2447 47.5682L10.7437 46.6793L14.922 45.7526L19.3925 44.854L23.8296 44.0295L27.9997 43.3049L31.7626 42.6885L35.0564 42.177L37.8749 41.7597L40.2463 41.4234L42.2162 41.1541L43.8365 40.939L45.1582 40.7669L46.2274 40.6286L47.0836 40.5163L47.7598 40.424L48.2824 40.3468L48.6721 40.2805L48.9442 40.2221L49.1093 40.1688L49.1739 40.118L49.1406 40.0676L49.008 40.0153L48.771 39.9588L48.4202 39.8954L47.9418 39.8221L47.3171 39.7351L46.5215 39.6297L45.5242 39.5004L44.2876 39.34L42.7677 39.1398L40.9149 38.8891L38.6769 38.5756L36.005 38.1856L32.8639 37.7054L29.2468 37.1233L25.1954 36.4329L20.8226 35.6384L16.3315 34.7594L12.02 33.8353L8.2611 32.9263L5.4501 32.1076L3.92689 31.4576L3.89371 31.0418L5.36056 30.8973L8.14174 31.0244L11.9055 31.3889L16.2549 31.933L20.8085 32.5893L25.2569 33.2946L29.3864 33.9974L33.0765 34.6616L36.281 35.2655L39.0053 35.7989L41.2853 36.2595L43.1713 36.6504L44.7176 36.977L45.9758 37.2458L46.9922 37.4636L47.806 37.6362L48.4497 37.7687L48.9491 37.8651L49.3245 37.9286L49.5909 37.9609L49.7592 37.9629L49.836 37.9346L49.8245 37.8744L49.7245 37.7798L49.5322 37.6468L49.2403 37.4697L48.8377 37.2412L48.3091 36.9514L47.6344 36.5877L46.7885 36.1347L45.7411 35.5733L44.4571 34.8808L42.8974 34.0311L41.0223 32.9959L38.7968 31.7474L36.1993 30.2624L33.2342 28.5301L29.9489 26.5618L26.4509 24.4027L22.9209 22.1421L19.6126 19.9186L16.8315 17.9117L14.8877 16.3183L14.0312 15.3152L14.389 15.0178L15.9291 15.4511L18.4676 16.5441L21.7161 18.1508L25.3498 20.0872L29.0696 22.1704L32.6424 24.2471L35.9152 26.2069L38.8081 27.9829L41.298 29.5443L43.3992 30.8861L45.1469 32.0196L46.5856 32.9646L47.7606 33.7438L48.7143 34.3798L49.4838 34.8933L50.1004 35.3021L50.5896 35.621L50.9719 35.8617L51.2632 36.0332L51.4756 36.1418L51.6179 36.1915L51.6961 36.1841L51.7133 36.1191L51.6707 35.9939L51.5668 35.8032L51.3981 35.5393L51.1586 35.1916L50.8397 34.7455L50.4305 34.1831L49.9168 33.4813L49.2822 32.6127L48.5078 31.5448L47.5734 30.2408L46.4599 28.6625L45.1527 26.7738L43.6471 24.5487L41.9562 21.982L40.1197 19.1045L38.213 15.9989L36.352 12.8129L34.6893 9.76159L33.3972 7.11059L32.6383 5.13695L32.5281 4.07278L33.1037 4.04891L34.311 5.06036L36.0173 6.96864L38.0439 9.5396L40.2056 12.5001L42.3429 15.5923L44.3403 18.6092L46.1289 21.4095L47.6798 23.9139L48.9927 26.092L50.085 27.9475L50.9826 29.5038L51.7141 30.7936L52.3071 31.8524L52.7863 32.714L53.1727 33.4087L53.4836 33.9621L53.7334 34.3953L53.9332 34.725L54.092 34.964L54.2169 35.1216L54.3132 35.204L54.3851 35.2142L54.4358 35.1526L54.4676 35.0167L54.4822 34.8011L54.4808 34.4972L54.4643 34.0931L54.4331 33.5724L54.3878 32.9146L54.329 32.094L54.2579 31.0796L54.1763 29.8355L54.0875 28.3219L53.9967 26.4979L53.9119 24.3273L53.8443 21.7873L53.8092 18.8815L53.8249 15.6568L53.9117 12.2203L54.0881 8.75192L54.3662 5.50278L54.7461 2.77214L55.2121 0.859331L55.7323 0L56.2635 0.306969L56.7602 1.73944L57.1843 4.11431L57.5119 7.15443L57.736 10.5532L57.8635 14.032L57.9107 17.3756L57.8974 20.4429L57.8432 23.1603L57.765 25.5058L57.6759 27.4915L57.5853 29.1485L57.4997 30.5163L57.4233 31.6356L57.3585 32.5446L57.3067 33.2767L57.2687 33.86L57.245 34.3175L57.2363 34.6676L57.2432 34.924L57.2666 35.0971L57.308 35.1938L57.3695 35.2178L57.4537 35.1701L57.5643 35.049L57.7061 34.8498L57.8854 34.5648L58.11 34.1829L58.3901 33.6893L58.7385 33.0651L59.1709 32.2867L59.7067 31.3261L60.3688 30.1511L61.1835 28.7265L62.1792 27.0177L63.3838 24.9957L64.8197 22.6458L66.4963 19.9804L68.3998 17.0534L70.4818 13.9753L72.6492 10.9223L74.7625 8.13092L76.6455 5.87301L78.1115 4.4087L79.001 3.92856L79.2195 4.50407L78.7603 6.06707L77.7048 8.42765L76.1974 11.3227L74.4104 14.4749L72.5086 17.6416L70.6267 20.6422L68.8592 23.3641L67.262 25.7536L65.8597 27.8008L64.655 29.5233L63.6373 30.9535L62.789 32.1295L62.09 33.089L61.5208 33.8667L61.0636 34.4926L60.7031 34.9917L60.4269 35.3844L60.2252 35.6868L60.091 35.9113L60.0194 36.067L60.008 36.1603L60.0568 36.1951L60.1679 36.1727L60.3459 36.0926L60.5982 35.9518L60.9353 35.7451L61.3712 35.4649L61.924 35.1007L62.6169 34.6392L63.4784 34.0642L64.5427 33.3561L65.8498 32.4933L67.4441 31.4526L69.3712 30.2124L71.672 28.7565L74.3725 27.081L77.4698 25.2031L80.9136 23.1713L84.5874 21.0745L88.2961 19.0465L91.7688 17.2586L94.6864 15.8987L96.7343 15.1359L97.671 15.0812L97.3883 15.7564L95.9391 17.087L93.5215 18.9207L90.4253 21.0649L86.9656 23.3278L83.425 25.5496L80.0204 27.6173L76.8931 29.4655L74.1172 31.0684L71.7153 32.4276L69.6766 33.5614L67.9711 34.4961L66.5603 35.2603L65.4046 35.8813L64.4665 36.3835L63.7135 36.7877L63.1178 37.1111L62.6572 37.3675L62.3141 37.5681L62.0753 37.7213L61.9319 37.8337L61.8784 37.9099L61.9128 37.9532L62.0368 37.9656L62.2552 37.9478L62.5769 37.8994L63.0149 37.819L63.5868 37.7042L64.3156 37.5513L65.2308 37.3559L66.3681 37.1122L67.7706 36.814L69.4876 36.4547L71.5726 36.028L74.079 35.5294L77.0511 34.9585L80.5112 34.3212L84.4407 33.6332L88.7573 32.9237L93.2935 32.2367L97.7846 31.6306L101.878 31.1721L105.177 30.9255L107.305 30.938L108 31.2266L107.175 31.7714L104.943 32.5189L101.589 33.3948L97.4923 34.3202L93.0445 35.227L88.5839 36.0655L84.3596 36.807L80.526 37.4406L77.1558 37.9683L74.2628 38.3996L71.8231 38.7479L69.7927 39.027L68.1201 39.2499L66.7541 39.4282L65.6475 39.5714L64.7598 39.6873L64.0568 39.7825L63.5112 39.8618L63.1015 39.9296L62.8116 39.989L62.63 40.043L62.5496 40.094L62.5447 40.11Z" fill="#1565C0"/>
<circle cx="36" cy="8.25001" r="8.25001" fill="#FFD738"/>
<circle cx="8.25001" cy="32.25" r="8.25001" fill="#FFD738"/>
<circle cx="19.5" cy="59.25" r="8.25001" fill="#FFD738"/>
<circle cx="56.25" cy="75.75" r="8.25001" fill="#FFD738"/>
<circle cx="93.75" cy="67.5" r="8.25001" fill="#FFD738"/>
<circle cx="77.25" cy="8.25001" r="8.25001" fill="#FFD738"/>
<circle cx="104.25" cy="33.75" r="8.25001" fill="#FFD738"/>
</svg>
