<svg width="195" height="505" viewBox="0 0 195 505" fill="none" xmlns="http://www.w3.org/2000/svg">
<path d="M71.7372 228.151C79.6486 202.924 115.351 202.924 123.263 228.151L170.937 380.171C176.391 397.562 163.4 415.25 145.174 415.25H49.8263C31.5997 415.25 18.6095 397.562 24.0635 380.171L71.7372 228.151Z" fill="#FF6DAC"/>
<rect x="53" y="23" width="87" height="143" rx="13" fill="#FFD738"/>
<rect x="69" width="16" height="45" rx="8" fill="#FFD738"/>
<rect x="109" width="16" height="45" rx="8" fill="#FFD738"/>
<circle cx="97" cy="71" r="32" fill="#191919"/>
<path d="M87.3307 66.3269C90.7924 58.2754 102.208 58.2754 105.669 66.3269C108.501 72.9142 103.67 80.25 96.5 80.25C89.3296 80.25 84.4985 72.9142 87.3307 66.3269Z" fill="#FF6DAC"/>
<circle cx="99.5" cy="185.5" r="69.5" fill="#FFD738"/>
</svg>
