<svg width="53" height="39" viewBox="0 0 53 39" fill="none" xmlns="http://www.w3.org/2000/svg">
<path d="M0 0H37.0975C45.8533 0 52.9512 7.09792 52.9512 15.8537V23.1463C52.9512 31.9021 45.8533 39 37.0976 39H15.8537C7.09794 39 0 31.9021 0 23.1463V0Z" fill="#FFD738"/>
<path d="M40.6284 7.97428C41.5735 7.84257 42.414 8.63167 42.3522 9.58395C42.2091 11.7882 42.082 15.478 42.5598 18.2348C42.9185 20.3048 43.7792 22.7792 44.7111 25.0558C45.315 26.5311 43.3406 28.0548 42.1283 27.0197L35.6408 21.4803C33.1214 23.6917 29.4748 27.8875 26.9035 30.0048C23.4415 32.8553 20.4682 33.9941 15.2556 31.8417C10.0427 29.6891 4.75399 25.4474 6.48225 19.8342C7.48909 16.5645 11.4442 15.3061 14.0299 17.5132C16.6155 19.7205 18.2518 23.2273 22.2789 21.9274C25.5955 20.8568 27.5139 18.7858 28.7363 15.5841L22.0527 9.87719C20.8632 8.8615 21.9619 6.78273 23.4866 7.13113C26.6496 7.85443 30.3549 8.5334 33.2569 8.57559C35.6029 8.60964 38.6826 8.24603 40.6284 7.97428Z" fill="#FF6DA3"/>
</svg>
