<svg width="150" height="365" viewBox="0 0 150 365" fill="none" xmlns="http://www.w3.org/2000/svg">
<path d="M150 256C150 297.421 116.421 331 75 331C33.5787 331 2.89738e-05 297.421 2.53526e-05 256L4.82897e-06 21.237C3.8036e-06 9.50813 9.50809 1.22822e-05 21.2369 1.12568e-05L150 0L150 256Z" fill="#FFD738"/>
<path d="M123.258 251.758C123.258 251.758 110.46 232.187 74.4661 232.187C38.4721 232.187 26.2342 251.758 26.2342 251.758" stroke="#191919" stroke-width="2.67914" stroke-linecap="round"/>
<path d="M102.508 346.461L85.7186 346.461L85.7186 299.434L102.508 299.434L102.508 346.461Z" fill="#FFD738"/>
<path d="M60.1191 346.461L43.3299 346.461L43.3299 304.583L60.1191 304.583L60.1191 346.461Z" fill="#FFD738"/>
<ellipse cx="94.1137" cy="352.814" rx="12.6812" ry="12.1857" transform="rotate(180 94.1137 352.814)" fill="#FFD738"/>
<ellipse cx="51.727" cy="352.814" rx="12.6812" ry="12.1857" transform="rotate(180 51.727 352.814)" fill="#FFD738"/>
<ellipse cx="73.2806" cy="278.17" rx="27.0593" ry="26.0019" transform="rotate(180 73.2806 278.17)" fill="white"/>
<ellipse cx="73.1888" cy="278.086" rx="22.862" ry="21.9686" transform="rotate(180 73.1888 278.086)" fill="#191919"/>
</svg>
