<svg width="362" height="142" viewBox="0 0 362 142" fill="none" xmlns="http://www.w3.org/2000/svg">
<path d="M362 21.1353C362 30.2259 354.501 37.3542 346.357 41.3923C334.148 47.4457 325.799 59.6922 325.799 73.8154C325.799 88.2132 334.476 100.66 347.073 106.584C354.897 110.263 362 117.053 362 125.698C362 134.608 354.776 141.832 345.866 141.832H16.1345C7.22367 141.832 0 134.608 0 125.698C0 117.052 7.10306 110.262 14.9263 106.584C27.5236 100.66 36.2 88.213 36.2002 73.8154C36.2002 59.6924 27.8516 47.446 15.643 41.3926C7.49878 37.3544 0 30.2262 0 21.1358V16.9656C0 7.59576 7.59576 0 16.9656 0H345.034C354.404 0 362 7.59576 362 16.9656V21.1353Z" fill="#FF6DA3"/>
</svg>
