<svg width="362" height="134" viewBox="0 0 362 134" fill="none" xmlns="http://www.w3.org/2000/svg">
<path d="M0 18.8576C0 27.9644 7.49993 35.0923 15.743 38.9636C27.8967 44.6714 36.1992 56.1587 36.1992 69.4004C36.1992 83.2132 27.165 95.1159 14.1492 100.542C6.64222 103.671 0 110.065 0 118.198C0 126.566 6.78357 133.35 15.1515 133.35H346.849C355.216 133.35 362 126.566 362 118.198C362 110.065 355.358 103.671 347.851 100.542C334.834 95.1163 325.8 83.2134 325.8 69.4004C325.8 56.1585 334.103 44.6711 346.257 38.9634C354.5 35.0922 362 27.9642 362 18.8572V16.9656C362 7.59576 354.404 0 345.034 0H16.9656C7.59576 0 0 7.59576 0 16.9656V18.8576Z" fill="#1565C0"/>
<line x1="85.1666" y1="5.08843" x2="85.1665" y2="128.259" stroke="#FFD738" stroke-width="6.78624" stroke-linecap="round" stroke-dasharray="13.57 13.57"/>
</svg>
