<svg width="110" height="418" viewBox="0 0 110 418" fill="none" xmlns="http://www.w3.org/2000/svg">
<rect x="14.7266" y="417.994" width="133" height="23" rx="11.5" transform="rotate(-90 14.7266 417.994)" fill="#55D9FF"/>
<rect x="70.7266" y="417.994" width="133" height="24" rx="12" transform="rotate(-90 70.7266 417.994)" fill="#55D9FF"/>
<rect width="109" height="81" rx="26.9367" fill="#FFD738"/>
<path d="M36.6353 108.219C40.4512 87.7995 69.6797 87.7359 73.5846 108.138L101.725 255.163C103.943 266.754 95.0594 277.5 83.2578 277.5H27.6415C15.8733 277.5 6.99742 266.812 9.15924 255.244L36.6353 108.219Z" fill="#FF6DAC"/>
<rect x="37.1719" y="24" width="33" height="124" rx="16.5" fill="#FFD738"/>
<circle cx="83.1719" cy="28" r="17" fill="#191919"/>
<circle cx="28.1719" cy="28" r="17" fill="#191919"/>
<rect x="1" y="251" width="108.655" height="57.6294" rx="26.9367" fill="#55D9FF"/>
</svg>
