<svg width="132" height="133" viewBox="0 0 132 133" fill="none" xmlns="http://www.w3.org/2000/svg">
<ellipse cx="65.9863" cy="66.5" rx="65.9863" ry="66.5" fill="#FF6DA3"/>
<path d="M107.342 35.3232C110.319 34.916 112.975 37.4262 112.796 40.4476C112.437 46.4868 112.186 55.8897 113.409 63.0017C114.209 67.6501 115.935 73.0513 117.929 78.276C119.727 82.9885 113.445 87.837 109.632 84.5557L94.8088 71.7989C88.0347 77.7902 78.2292 89.1631 71.315 94.9005C62.0067 102.624 54.0123 105.71 39.9968 99.8769C25.9814 94.0444 11.7635 82.5516 16.4098 67.3425C19.1167 58.4825 29.7505 55.0727 36.7024 61.0534C43.6543 67.0345 48.0541 76.5353 58.8823 73.0125C67.8002 70.1111 72.9583 64.4998 76.2449 55.823L60.6457 42.3993C56.9047 39.1797 60.3585 32.5541 65.1636 33.5975C72.9312 35.284 81.5052 36.7302 88.3961 36.8312C94.3631 36.9186 102.095 36.0416 107.342 35.3232Z" fill="#FFD738"/>
</svg>
