<svg width="609" height="665" viewBox="0 0 609 665" fill="none" xmlns="http://www.w3.org/2000/svg">
<path d="M0 432.252C0 264.269 136.177 128.092 304.16 128.092C472.143 128.092 608.32 264.269 608.32 432.252V665H0V432.252Z" fill="#FF6DAC"/>
<path d="M101.5 452.876C101.5 452.876 155.096 526.588 305.836 526.588C456.576 526.588 507.828 452.876 507.828 452.876" stroke="#191919" stroke-width="10.0493" stroke-linecap="round"/>
<path d="M180.078 69.5244H243.054V245.919H180.078V69.5244Z" fill="#FF6DAC"/>
<path d="M339.078 69.5244H402.054V226.606H339.078V69.5244Z" fill="#FF6DAC"/>
<ellipse cx="211.567" cy="45.708" rx="47.5668" ry="45.708" fill="#FF6DAC"/>
<ellipse cx="370.567" cy="45.708" rx="47.5668" ry="45.708" fill="#FF6DAC"/>
<ellipse cx="303.826" cy="327.984" rx="101.498" ry="97.5319" fill="white"/>
<ellipse cx="304.161" cy="328.306" rx="85.7543" ry="82.4032" fill="#191919"/>
</svg>
