<svg width="58" height="54" viewBox="0 0 58 54" fill="none" xmlns="http://www.w3.org/2000/svg">
<path d="M45.7846 7.80782C50.5318 12.43 53.7174 19.1135 53.7174 26.8588C53.7174 41.7248 41.7246 53.7176 26.8586 53.7176C11.9926 53.7176 -0.000208501 41.7248 -0.000208501 26.8588C-0.000208501 16.9273 4.99677 9.30691 11.7427 4.6847L14.2412 8.30751C8.86944 11.9928 4.43461 18.6763 4.43461 26.8588C4.43461 39.2888 14.491 49.2828 26.8586 49.2828C39.2886 49.2828 49.2825 39.2888 49.2825 26.8588C49.2825 19.7381 46.1594 14.3039 42.4117 10.6811C41.9744 13.6168 40.7252 17.2396 38.6015 21.612L36.2904 18.8636C37.4772 12.2426 37.4147 6.30872 36.1655 1.12435L37.5396 3.02343e-05C42.4117 2.06129 48.2207 3.18561 54.9666 3.18561L57.2777 5.99641C52.593 7.30812 48.7204 7.80782 45.7846 7.80782Z" fill="#FF6DAC"/>
</svg>
