<svg width="211" height="212" viewBox="0 0 211 212" fill="none" xmlns="http://www.w3.org/2000/svg">
<path d="M94.4572 32.4509C97.4287 22.8282 110.964 22.588 114.199 32.1006L125.803 66.2186C127.249 70.4723 131.275 73.2989 135.772 73.2191L171.828 72.5793C181.877 72.401 186.236 85.1825 178.193 91.2398L149.287 113.009C145.692 115.716 144.237 120.422 145.682 124.669L157.302 158.835C160.536 168.344 149.696 176.484 141.485 170.712L112.059 150.026C108.383 147.441 103.45 147.529 99.8468 150.242L71.006 171.962C62.9582 178.023 51.8988 170.272 54.8691 160.653L65.5416 126.091C66.8683 121.795 65.2845 117.143 61.6171 114.565L32.1245 93.8317C23.9183 88.0628 27.9235 75.1329 37.972 74.9546L74.0279 74.3148C78.5254 74.235 82.4711 71.2669 83.7998 66.9639L94.4572 32.4509Z" fill="#FF6DAC"/>
<circle cx="106.5" cy="105.5" r="12.5" fill="#191919"/>
</svg>
