<svg width="136" height="141" viewBox="0 0 136 141" fill="none" xmlns="http://www.w3.org/2000/svg">
<path fill-rule="evenodd" clip-rule="evenodd" d="M110.764 48.481L110.925 48.9396L110.946 49.4691L110.832 50.0626L110.587 50.7122L110.222 51.4088L109.748 52.1425L109.18 52.9034L108.532 53.6816L107.821 54.4676L107.062 55.2526L106.271 56.029L105.464 56.7897L104.656 57.5291L103.858 58.2424L103.084 58.926L102.343 59.5773L101.646 60.1943L101 60.7762L100.413 61.3223L99.8925 61.833L99.4435 62.3086L99.0722 62.7501L98.7843 63.1585L98.5855 63.5352L98.4821 63.8816L98.481 64.1991L98.5902 64.4892L98.8189 64.7533L99.1783 64.9929L99.6818 65.2095L100.346 65.4043L101.191 65.5787L102.241 65.7339L103.529 65.8713L105.093 65.9921L106.984 66.0978L109.264 66.1898L112.018 66.2699L115.353 66.3406L113.809 66.9683L110.843 67.6925L108.395 68.3144L106.372 68.8566L104.703 69.3363L103.332 69.767L102.216 70.1596L101.32 70.5229L100.618 70.8642L100.087 71.1896L99.7103 71.5042L99.4729 71.8127L99.3633 72.1191L99.3718 72.4268L99.4903 72.7393L99.7118 73.0596L100.03 73.3904L100.44 73.7344L100.936 74.094L101.513 74.4713L102.164 74.8683L102.885 75.2868L103.668 75.7281L104.504 76.1933L105.387 76.6828L106.304 77.1966L107.244 77.7341L108.195 78.294L109.142 78.874L110.069 79.4714L110.959 80.0821L111.794 80.7016L112.558 81.3244L113.233 81.9444L113.801 82.555L114.249 83.1493L114.564 83.7201L114.736 84.2608L114.759 84.7651L114.63 85.2275L114.351 85.6434L113.925 86.0097L113.362 86.3243L112.674 86.5866L111.874 86.7975L110.978 86.959L110.004 87.0743L108.97 87.1477L107.894 87.1839L106.793 87.1885L105.683 87.1674L104.579 87.1265L103.495 87.0718L102.443 87.0094L101.432 86.9449L100.472 86.884L99.5705 86.8319L98.7327 86.7938L97.9641 86.7744L97.2691 86.7786L96.6512 86.811L96.114 86.8763L95.6605 86.9796L95.294 87.1259L95.0182 87.3208L94.8371 87.5706L94.7558 87.8823L94.7803 88.2642L94.9182 88.7257L95.179 89.2783L95.5744 89.9358L96.1193 90.7146L96.8325 91.6355L97.7376 92.7238L98.8645 94.0115L100.252 95.5391L101.949 97.3586L104.022 99.5375L105.416 101.245L102.528 99.4756L100.132 98.0328L98.1342 96.8593L96.4625 95.911L95.0612 95.154L93.8867 94.5621L92.9045 94.1147L92.0872 93.7957L91.4125 93.5923L90.8626 93.4947L90.4225 93.4948L90.0801 93.5866L89.825 93.765L89.6486 94.0264L89.5432 94.3675L89.5023 94.7859L89.5197 95.2793L89.5899 95.8456L89.7074 96.4829L89.867 97.1886L90.0633 97.96L90.2904 98.7936L90.5425 99.6851L90.8131 100.629L91.0952 101.62L91.3814 102.648L91.6635 103.705L91.9332 104.78L92.1815 105.861L92.3992 106.932L92.5773 107.981L92.7067 108.989L92.7792 109.942L92.7871 110.822L92.7242 111.613L92.5855 112.301L92.368 112.872L92.0706 113.317L91.694 113.627L91.2413 113.798L90.7173 113.831L90.1286 113.727L89.4831 113.492L88.79 113.136L88.0588 112.671L87.2997 112.109L86.5226 111.467L85.7369 110.76L84.9514 110.004L84.1741 109.216L83.4119 108.41L82.6707 107.6L81.9551 106.802L81.269 106.025L80.6151 105.281L79.9952 104.58L79.4106 103.93L78.8616 103.338L78.3481 102.812L77.8697 102.357L77.4256 101.979L77.0145 101.684L76.6353 101.478L76.2866 101.367L75.9669 101.358L75.6747 101.458L75.4085 101.676L75.167 102.025L74.9487 102.516L74.7522 103.167L74.5763 103.997L74.4196 105.03L74.2809 106.297L74.1588 107.838L74.0521 109.7L73.9591 111.947L73.8781 114.66L73.8069 117.944L73.2367 116.952L72.5032 113.94L71.8739 111.454L71.3261 109.4L70.8419 107.705L70.4077 106.311L70.0124 105.176L69.647 104.264L69.3042 103.547L68.9777 103.004L68.6624 102.615L68.3536 102.367L68.0472 102.248L67.7397 102.247L67.4277 102.357L67.1081 102.571L66.7783 102.882L66.4354 103.285L66.0772 103.774L65.7014 104.344L65.306 104.99L64.8893 105.705L64.4499 106.483L63.9867 107.316L63.4992 108.195L62.9873 109.11L62.4517 110.049L61.8936 111L61.3151 111.947L60.719 112.876L60.1092 113.77L59.4903 114.61L58.8675 115.381L58.2471 116.063L57.6355 116.64L57.0397 117.099L56.4668 117.424L55.9234 117.608L55.4161 117.643L54.9502 117.526L54.5304 117.258L54.1601 116.844L53.8413 116.292L53.5748 115.613L53.3599 114.821L53.1945 113.932L53.0756 112.964L52.9991 111.935L52.9601 110.861L52.9531 109.761L52.9724 108.651L53.012 107.547L53.0657 106.461L53.1277 105.405L53.1921 104.391L53.2535 103.427L53.3065 102.52L53.3459 101.677L53.3669 100.902L53.3648 100.201L53.3348 99.5773L53.2722 99.0335L53.1722 98.5732L53.0295 98.1997L52.8387 97.9165L52.5935 97.7277L52.2869 97.6382L51.911 97.654L51.4562 97.7826L50.9113 98.0331L50.2629 98.4173L49.4944 98.9497L48.5857 99.6487L47.5119 100.537L46.2415 101.645L44.7347 103.01L42.9408 104.681L40.7936 106.721L38.7399 108.551L40.5387 105.618L42.0052 103.187L43.1983 101.16L44.1631 99.4646L44.9342 98.0435L45.5384 96.8523L45.9966 95.8559L46.3253 95.0263L46.5375 94.341L46.6432 93.7817L46.6506 93.3333L46.566 92.9835L46.3942 92.7218L46.1394 92.5394L45.8045 92.4286L45.3922 92.3828L44.9047 92.3957L44.3441 92.4619L43.7124 92.5759L43.0121 92.7323L42.2458 92.9258L41.4171 93.1507L40.53 93.401L39.5898 93.6703L38.603 93.9518L37.5773 94.2379L36.5221 94.5207L35.4481 94.7916L34.3677 95.0419L33.2945 95.2624L32.2438 95.4439L31.2313 95.5776L30.2737 95.6548L29.3875 95.6681L28.5888 95.611L27.8924 95.4785L27.3114 95.2673L26.8564 94.9762L26.5353 94.6059L26.3525 94.1591L26.3091 93.6405L26.4026 93.0566L26.6271 92.4154L26.9737 91.7256L27.4309 90.9972L27.9851 90.2399L28.6214 89.4639L29.3239 88.6785L30.0764 87.8927L30.8629 87.1145L31.668 86.3509L32.4773 85.6078L33.2774 84.8901L34.0563 84.2015L34.803 83.545L35.5078 82.9224L36.1623 82.3349L36.7588 81.783L37.2905 81.2668L37.7514 80.7856L38.1354 80.3388L38.437 79.9251L38.6504 79.5435L38.7694 79.1923L38.7873 78.8704L38.6963 78.576L38.4873 78.3078L38.1495 78.0644L37.67 77.8443L37.0328 77.6461L36.2183 77.4685L35.2024 77.3103L33.9548 77.1702L32.4377 77.0468L30.603 76.9388L28.3894 76.8448L25.7175 76.7629L22.4837 76.6908L22.9244 76.179L25.983 75.4361L28.5066 74.7995L30.5921 74.2459L32.3138 73.7573L33.7293 73.3196L34.8836 72.9215L35.8123 72.554L36.5436 72.2097L37.1004 71.8821L37.5007 71.5661L37.7594 71.2569L37.8887 70.9505L37.8984 70.6432L37.797 70.3316L37.5914 70.0128L37.288 69.6838L36.8923 69.3421L36.4098 68.9852L35.8457 68.6108L35.2056 68.2171L34.4955 67.8021L33.7222 67.3645L32.8934 66.9032L32.0178 66.4176L31.1054 65.9076L30.1677 65.3738L29.2175 64.8174L28.2691 64.2403L27.3381 63.6455L26.4412 63.0366L25.5957 62.4182L24.8193 61.7955L24.1295 61.1746L23.543 60.562L23.0748 59.9647L22.7379 59.3897L22.5425 58.8438L22.4956 58.3333L22.6004 57.8639L22.8563 57.4403L23.2591 57.066L23.8007 56.7431L24.4701 56.4724L25.2535 56.2535L26.135 56.0843L27.0974 55.9618L28.1229 55.8822L29.1935 55.8404L30.2919 55.8311L31.4015 55.8485L32.5072 55.8867L33.5951 55.9396L34.6533 56.0011L35.6712 56.0656L36.6397 56.1275L37.5513 56.1813L38.3997 56.222L39.1796 56.2447L39.8866 56.2446L40.517 56.217L41.0673 56.1572L41.5343 56.0604L41.9149 55.9213L42.2054 55.7345L42.4019 55.4939L42.4995 55.1925L42.4923 54.8224L42.373 54.3743L42.1326 53.837L41.7595 53.1974L41.2395 52.4391L40.5546 51.5424L39.6819 50.4827L38.5926 49.2292L37.2497 47.743L35.6055 45.9741L33.5981 43.8577L31.3316 41.4584L34.3092 43.2869L36.7766 44.7775L38.8324 45.9907L40.5519 46.9724L41.9931 47.7578L43.2012 48.3745L44.212 48.8438L45.054 49.1823L45.7501 49.4033L46.3189 49.5173L46.7756 49.5322L47.1328 49.4547L47.4012 49.2898L47.5896 49.0414L47.7058 48.7128L47.7566 48.3066L47.7481 47.825L47.6859 47.2701L47.5755 46.644L47.4223 45.9491L47.2315 45.1879L47.0089 44.3639L46.7604 43.4813L46.4923 42.5451L46.2115 41.5617L45.9255 40.5388L45.6421 39.4855L45.3699 38.4126L45.1176 37.3321L44.8943 36.2579L44.7093 35.2047L44.5716 34.1886L44.4895 33.226L44.4709 32.3335L44.5222 31.5272L44.6485 30.8222L44.8533 30.2315L45.138 29.7662L45.5021 29.4342L45.943 29.2403L46.456 29.1859L47.0349 29.2686L47.6719 29.483L48.3582 29.8203L49.0839 30.2692L49.8392 30.8163L50.6141 31.4467L51.3991 32.1445L52.1852 32.8936L52.9642 33.678L53.7293 34.4822L54.4742 35.2918L55.1941 36.0931L55.8851 36.8741L56.5443 37.6237L57.1697 38.3323L57.76 38.9911L58.3147 39.5925L58.8338 40.1296L59.3177 40.5963L59.7673 40.9867L60.1835 41.2951L60.5677 41.5158L60.9212 41.6426L61.2454 41.6688L61.5419 41.5867L61.8121 41.3875L62.0574 41.0605L62.2793 40.5928L62.4792 39.9688L62.6583 39.1692L62.818 38.1703L62.9595 36.9425L63.0841 35.4484L63.1932 33.641L63.2882 31.4602L63.371 28.8282L63.4436 25.6436L63.8963 25.533L64.6489 28.6394L65.2931 31.2018L65.8527 33.3192L66.3459 35.0677L66.7873 36.5058L67.1882 37.6795L67.5578 38.625L67.9038 39.3712L68.2325 39.9411L68.5493 40.3534L68.8588 40.6229L69.1653 40.7621L69.4724 40.781L69.7835 40.6882L70.1017 40.4907L70.4297 40.1948L70.7703 39.8063L71.1259 39.3305L71.4988 38.7727L71.8909 38.1384L72.3041 37.4337L72.7399 36.6652L73.1992 35.8405L73.6828 34.9682L74.1909 34.0584L74.7228 33.1222L75.2774 32.1725L75.8529 31.2234L76.4463 30.2905L77.0542 29.3902L77.6721 28.5399L78.2946 27.7574L78.9159 27.0601L79.5293 26.4648L80.128 25.9866L80.7051 25.6389L81.2536 25.432L81.7671 25.3731L82.2399 25.4657L82.6673 25.7098L83.0457 26.1011L83.3727 26.6321L83.6475 27.2918L83.8706 28.0667L84.0437 28.941L84.1697 29.8976L84.2527 30.9188L84.2973 31.9865L84.309 33.0833L84.2935 34.1926L84.2568 35.2991L84.2049 36.389L84.1438 37.45L84.0794 38.4714L84.0172 39.4441L83.9625 40.3605L83.9206 41.2142L83.8963 41.9997L83.8944 42.7127L83.9197 43.3493L83.9768 43.9061L84.0705 44.3799L84.206 44.7675L84.3888 45.0654L84.6249 45.2695L84.9211 45.3752L85.2854 45.3766L85.727 45.2666L86.2567 45.0361L86.8876 44.6741L87.6357 44.1664L88.5205 43.4954L89.5662 42.6387L90.8029 41.5679L92.2688 40.2467L94.0131 38.6286L96.0988 36.6529L98.6093 34.2398L96.985 36.9722L95.4701 39.4762L94.2367 41.5618L93.2381 43.3058L92.4381 44.7673L91.8089 45.9926L91.3286 47.018L90.9802 47.8725L90.7503 48.5795L90.6282 49.1578L90.6056 49.6229L90.6759 49.9877L90.8341 50.2628L91.0759 50.4573L91.3982 50.579L91.7984 50.6348L92.274 50.6308L92.8231 50.5727L93.4436 50.466L94.1332 50.316L94.8891 50.128L95.7082 49.9077L96.5864 49.6611L97.5185 49.3943L98.4984 49.1143L99.5184 48.8284L100.57 48.5446L101.641 48.2711L102.722 48.0169L103.797 47.7911L104.852 47.6027L105.872 47.4609L106.839 47.3741L107.738 47.3502L108.552 47.3957L109.265 47.516L109.866 47.7145L110.341 47.9928L110.684 48.3507L110.764 48.481Z" fill="#1565C0"/>
<circle cx="50.908" cy="65.8321" r="10.1951" transform="rotate(-28.66 50.908 65.8321)" fill="#191919"/>
<circle cx="71.6892" cy="54.4737" r="10.1951" transform="rotate(-28.66 71.6892 54.4737)" fill="#191919"/>
<circle cx="50.9076" cy="65.832" r="7.92954" transform="rotate(-28.66 50.9076 65.832)" fill="#FFD738"/>
<circle cx="71.6889" cy="54.4756" r="7.92954" transform="rotate(-28.66 71.6889 54.4756)" fill="#FFD738"/>
<circle cx="50.5268" cy="65.7193" r="5.38076" transform="rotate(-28.66 50.5268 65.7193)" fill="#191919"/>
<circle cx="71.3002" cy="54.3629" r="5.38076" transform="rotate(-28.66 71.3002 54.3629)" fill="#191919"/>
<circle cx="90.9771" cy="111.02" r="7.23525" transform="rotate(-28.66 90.9771 111.02)" fill="#FFD738"/>
<circle cx="45.6021" cy="29.3781" r="7.23525" transform="rotate(-28.66 45.6021 29.3781)" fill="#FFD738"/>
</svg>
