<svg width="75" height="73" viewBox="0 0 75 73" fill="none" xmlns="http://www.w3.org/2000/svg">
<path d="M14.0791 6.38391C12.7797 1.70944 18.2045 -1.91015 21.9916 1.10451L35.5745 11.917C37.268 13.265 39.6356 13.3634 41.4382 12.1607L55.8895 2.51844C59.9169 -0.168748 65.0105 3.87858 63.3259 8.42739L57.2718 24.7755C56.5189 26.8084 57.1536 29.0947 58.8446 30.4407L72.4466 41.2684C76.2323 44.282 73.9556 50.403 69.1247 50.1995L51.8118 49.4704C49.6488 49.3793 47.6718 50.6984 46.9171 52.7363L40.8767 69.0473C39.1912 73.5987 32.6904 73.3343 31.3914 68.6614L26.7242 51.8722C26.144 49.7851 24.2915 48.3114 22.1337 48.2205L4.78142 47.4897C-0.0467785 47.2864 -1.78775 41.0021 2.23967 38.3149L16.6909 28.6727C18.4935 27.4699 19.3208 25.2398 18.7397 23.1495L14.0791 6.38391Z" fill="#FFD738"/>
</svg>
