<svg width="587" height="216" viewBox="0 0 587 216" fill="none" xmlns="http://www.w3.org/2000/svg">
<path d="M0 30.5304C0 45.2736 12.1418 56.813 25.4865 63.0803C45.1622 72.321 58.6034 90.9185 58.6035 112.355C58.6035 134.719 43.9761 153.991 22.9025 162.774C10.7513 167.839 0 178.189 0 191.353C0 204.898 10.98 215.878 24.5245 215.878H561.514C575.058 215.878 586.038 204.898 586.038 191.354C586.038 178.189 575.287 167.839 563.135 162.775C542.061 153.991 527.434 134.719 527.434 112.355C527.434 90.9183 540.875 72.3206 560.551 63.0801C573.896 56.8128 586.038 45.2734 586.038 30.5301V27.4654C586.038 12.2967 573.741 0 558.573 0H27.4654C12.2967 0 0 12.2967 0 27.4654V30.5304Z" fill="#1565C0"/>
<line x1="137.875" y1="8.23918" x2="137.875" y2="207.638" stroke="#FFD738" stroke-width="10.9862" stroke-linecap="round" stroke-dasharray="21.97 21.97"/>
</svg>
