<svg width="747" height="65" viewBox="0 0 747 65" fill="none" xmlns="http://www.w3.org/2000/svg">
<path d="M0 0H747V35C747 51.5685 733.569 65 717 65H30C13.4315 65 0 51.5685 0 35V0Z" fill="#FFD738"/>
<circle cx="689.611" cy="31.6108" r="22.6108" fill="#FF6DA3"/>
<rect x="678.121" y="23.8281" width="23.7228" height="3.7067" rx="1.85335" fill="#FFD738"/>
<rect x="678.121" y="29.7549" width="23.7228" height="3.7067" rx="1.85335" fill="#FFD738"/>
<rect x="678.121" y="35.6885" width="23.7228" height="3.7067" rx="1.85335" fill="#FFD738"/>
<path d="M67.4098 26.5613C68.6787 26.5613 69.7163 27.0834 70.5226 28.1277C71.3422 29.1587 71.7519 30.454 71.7519 32.0138C71.7519 33.7321 71.362 35.054 70.5821 35.9792C69.8155 36.9045 68.7448 37.3671 67.3701 37.3671C66.1541 37.3671 65.2156 36.9045 64.5547 35.9792H64.515V40.4403H60.5892V26.8191H64.3762V27.9492H64.4159C65.0503 27.0239 66.0483 26.5613 67.4098 26.5613ZM64.3762 31.9741C64.3762 33.6661 64.9512 34.512 66.1012 34.512C67.2512 34.512 67.8261 33.6661 67.8261 31.9741C67.8261 30.269 67.2512 29.4164 66.1012 29.4164C64.9512 29.4164 64.3762 30.269 64.3762 31.9741ZM83.7362 22.9329C83.5908 23.8053 83.3066 24.4728 82.8837 24.9355C82.4607 25.3981 81.8328 25.7021 81.0001 25.8475L78.9777 26.2044C77.9996 26.3763 77.2726 26.6671 76.7967 27.0768C76.3341 27.4866 76.0499 28.055 75.9441 28.782H76.0036C76.453 28.1475 76.9685 27.6915 77.5501 27.4139C78.145 27.1231 78.8455 26.9777 79.6518 26.9777C81.0265 26.9777 82.1302 27.4469 82.963 28.3854C83.8089 29.3239 84.2319 30.573 84.2319 32.1327C84.2319 33.6925 83.7296 34.9548 82.725 35.9197C81.7337 36.8847 80.3854 37.3671 78.6803 37.3671C76.8959 37.3671 75.5212 36.8054 74.5562 35.6818C73.6045 34.5451 73.1287 32.8796 73.1287 30.6854C73.1287 28.7555 73.5186 27.209 74.2985 26.0458C75.0784 24.8694 76.2085 24.1358 77.6889 23.845L79.1561 23.5476C79.5527 23.4683 79.8104 23.2634 79.9294 22.9329H83.7362ZM77.0346 32.1724C77.0346 33.7718 77.5766 34.5715 78.6605 34.5715C79.7576 34.5715 80.3061 33.7718 80.3061 32.1724C80.3061 30.573 79.751 29.7733 78.6406 29.7733C77.57 29.7733 77.0346 30.573 77.0346 32.1724ZM89.7019 26.8191V32.1922H89.7614L92.7156 26.8191H96.6414V37.1094H92.8742V31.5974H92.8148L89.8605 37.1094H85.9347V26.8191H89.7019ZM109.498 26.8191V37.1094H105.572V29.7535H102.717V37.1094H98.7914V26.8191H109.498ZM116.664 26.5613C120.551 26.5613 122.494 28.6564 122.494 32.8465H114.959C115.025 33.5074 115.23 34.0097 115.574 34.3534C115.931 34.6838 116.393 34.8491 116.962 34.8491C117.742 34.8491 118.29 34.6045 118.607 34.1155H122.275C121.892 35.1729 121.225 35.9792 120.273 36.5344C119.321 37.0895 118.224 37.3671 116.982 37.3671C115.25 37.3671 113.856 36.8847 112.798 35.9197C111.741 34.9548 111.212 33.6462 111.212 31.994C111.212 30.4474 111.721 29.1587 112.739 28.1277C113.756 27.0834 115.065 26.5613 116.664 26.5613ZM118.726 30.8043C118.726 30.3153 118.561 29.9055 118.231 29.575C117.9 29.2446 117.484 29.0794 116.982 29.0794C115.845 29.0794 115.177 29.6544 114.979 30.8043H118.726ZM133.444 26.8191V29.7535H130.193V37.1094H126.267V29.7535H123.015V26.8191H133.444Z" fill="#FF6DA3"/>
<path d="M44.4893 18.8545C50.8785 18.8545 56.3408 24.7985 56.3408 32.502C56.3407 40.2053 50.8784 46.1494 44.4893 46.1494C38.1002 46.1492 32.6388 40.2052 32.6387 32.502C32.6387 24.7987 38.1002 18.8547 44.4893 18.8545Z" stroke="#FF6DA3" stroke-width="2.68532"/>
<mask id="path-8-inside-1_56_741" fill="white">
<path d="M50.3989 20.4854C53.6205 18.9462 57.0566 18.091 58.8676 18.3948C60.6786 18.6986 61.5022 19.9554 61.2224 21.988C60.9425 24.0207 59.5733 26.7267 57.3077 29.7247C55.0422 32.7227 51.9945 35.8615 48.5942 38.6988C45.1939 41.536 41.6124 43.9286 38.3546 45.5394C35.0968 47.1501 32.3269 47.8978 30.4353 47.677C28.5437 47.4563 27.6258 46.2782 27.811 44.3088C27.9961 42.3394 30.0672 38.5187 32.2595 35.5405L33.852 37.2374C32.1653 39.5288 31.8099 40.1898 31.6674 41.7049C31.525 43.2201 32.2312 44.1265 33.6865 44.2963C35.1418 44.4662 36.8048 42.9698 39.3112 41.7306C41.8176 40.4913 44.5731 38.6505 47.1891 36.4677C49.8052 34.2848 52.15 31.8699 53.893 29.5634C55.6361 27.2568 57.1575 26.096 57.3728 24.5322C57.5881 22.9683 56.9545 22.0014 55.5612 21.7677C54.1679 21.534 53.6397 21.6801 51.1612 22.8643L50.3989 20.4854Z"/>
</mask>
<path d="M50.3989 20.4854C53.6205 18.9462 57.0566 18.091 58.8676 18.3948C60.6786 18.6986 61.5022 19.9554 61.2224 21.988C60.9425 24.0207 59.5733 26.7267 57.3077 29.7247C55.0422 32.7227 51.9945 35.8615 48.5942 38.6988C45.1939 41.536 41.6124 43.9286 38.3546 45.5394C35.0968 47.1501 32.3269 47.8978 30.4353 47.677C28.5437 47.4563 27.6258 46.2782 27.811 44.3088C27.9961 42.3394 30.0672 38.5187 32.2595 35.5405L33.852 37.2374C32.1653 39.5288 31.8099 40.1898 31.6674 41.7049C31.525 43.2201 32.2312 44.1265 33.6865 44.2963C35.1418 44.4662 36.8048 42.9698 39.3112 41.7306C41.8176 40.4913 44.5731 38.6505 47.1891 36.4677C49.8052 34.2848 52.15 31.8699 53.893 29.5634C55.6361 27.2568 57.1575 26.096 57.3728 24.5322C57.5881 22.9683 56.9545 22.0014 55.5612 21.7677C54.1679 21.534 53.6397 21.6801 51.1612 22.8643L50.3989 20.4854Z" fill="#FF6DA3"/>
<path d="M50.3989 20.4854L48.4703 14.9986L43.6521 17.3006L45.3796 22.6925L50.3989 20.4854ZM32.2595 35.5405L36.0014 31.1331L31.9229 26.7872L28.2057 31.8369L32.2595 35.5405ZM33.852 37.2374L37.9057 40.941L41.1146 36.5817L37.5939 32.8301L33.852 37.2374ZM51.1612 22.8643L46.1419 25.0714L47.9756 30.7946L53.0899 28.3511L51.1612 22.8643ZM50.3989 20.4854L52.3276 25.9721C53.6457 25.3424 54.9861 24.8652 56.1218 24.5842C57.3882 24.2708 57.9398 24.3159 57.8888 24.3074L58.8676 18.3948L59.8465 12.4822C57.9844 12.1699 55.9125 12.4907 54.2027 12.9138C52.3622 13.3692 50.3738 14.0891 48.4703 14.9986L50.3989 20.4854ZM58.8676 18.3948L57.8888 24.3074C57.8868 24.307 57.706 24.2776 57.4335 24.1176C57.1447 23.948 56.7956 23.6549 56.4977 23.2003C55.856 22.221 55.9549 21.3285 55.9599 21.2922L61.2224 21.988L66.4848 22.6838C66.7696 20.6149 66.5967 18.0776 65.1604 15.8859C63.7308 13.7044 61.6516 12.785 59.8465 12.4822L58.8676 18.3948ZM61.2224 21.988L55.9599 21.2922C55.9623 21.2747 55.9474 21.3886 55.8569 21.65C55.768 21.9065 55.6241 22.2538 55.4026 22.6915C54.955 23.5761 54.2669 24.6799 53.3006 25.9586L57.3077 29.7247L61.3149 33.4908C63.7468 30.2726 65.9647 26.4616 66.4848 22.6838L61.2224 21.988ZM57.3077 29.7247L53.3006 25.9586C51.3629 28.5228 48.6472 31.3409 45.5212 33.9493L48.5942 38.6988L51.6671 43.4483C55.3417 40.3821 58.7215 36.9226 61.3149 33.4908L57.3077 29.7247ZM48.5942 38.6988L45.5212 33.9493C42.3972 36.556 39.1758 38.6925 36.3624 40.0835L38.3546 45.5394L40.3469 50.9953C44.0491 49.1648 47.9905 46.516 51.6671 43.4483L48.5942 38.6988ZM38.3546 45.5394L36.3624 40.0835C33.3542 41.5708 31.6566 41.7869 31.1814 41.7314L30.4353 47.677L29.6892 53.6227C32.9972 54.0088 36.8394 52.7295 40.3469 50.9953L38.3546 45.5394ZM30.4353 47.677L31.1814 41.7314C31.0496 41.716 31.7405 41.7606 32.4097 42.6194C33.1367 43.5525 33.1252 44.5208 33.1069 44.7152L27.811 44.3088L22.515 43.9024C22.3116 46.0662 22.6664 48.6082 24.2791 50.6779C25.8338 52.6733 27.9295 53.4173 29.6892 53.6227L30.4353 47.677ZM27.811 44.3088L33.1069 44.7152C33.0736 45.0699 33.0143 45.0934 33.1765 44.659C33.3135 44.292 33.5384 43.7845 33.8617 43.1604C34.5094 41.9095 35.3953 40.4912 36.3133 39.2441L32.2595 35.5405L28.2057 31.8369C26.9314 33.5681 25.6855 35.5492 24.7034 37.4456C23.8554 39.083 22.739 41.5198 22.515 43.9024L27.811 44.3088ZM32.2595 35.5405L28.5176 39.9479L30.11 41.6448L33.852 37.2374L37.5939 32.8301L36.0014 31.1331L32.2595 35.5405ZM33.852 37.2374L29.7982 33.5339C29.0033 34.6136 28.1556 35.7835 27.5485 37.0094C26.7773 38.5666 26.497 39.9628 26.3715 41.2985L31.6674 41.7049L36.9634 42.1113C36.9793 41.9413 36.9836 41.994 36.9454 42.1427C36.9002 42.319 36.8413 42.4573 36.8127 42.5151C36.8017 42.5373 36.8456 42.4449 37.0352 42.1613C37.2259 41.8761 37.4956 41.4981 37.9057 40.941L33.852 37.2374ZM31.6674 41.7049L26.3715 41.2985C26.1894 43.2352 26.502 45.5957 28.0125 47.5344C29.4651 49.3987 31.3988 50.062 32.9404 50.242L33.6865 44.2963L34.4326 38.3507C34.5189 38.3607 35.3718 38.4859 36.1431 39.4758C36.9723 40.54 37.003 41.6898 36.9634 42.1113L31.6674 41.7049ZM33.6865 44.2963L32.9404 50.242C35.3521 50.5234 37.406 49.3902 38.3283 48.8761C39.7373 48.0907 40.1402 47.7616 41.3035 47.1864L39.3112 41.7306L37.319 36.2747C36.5267 36.6664 35.827 37.0657 35.2512 37.4039C34.607 37.7822 34.2693 37.9912 33.8811 38.2076C33.5242 38.4065 33.4237 38.4379 33.4609 38.4253C33.5224 38.4044 33.8905 38.2874 34.4326 38.3507L33.6865 44.2963ZM39.3112 41.7306L41.3035 47.1864C44.2543 45.7275 47.3698 43.6305 50.262 41.2172L47.1891 36.4677L44.1162 31.7182C41.7764 33.6705 39.381 35.2551 37.319 36.2747L39.3112 41.7306ZM47.1891 36.4677L50.262 41.2172C53.1524 38.8054 55.8293 36.0698 57.9001 33.3295L53.893 29.5634L49.8859 25.7972C48.4707 27.67 46.4579 29.7642 44.1162 31.7182L47.1891 36.4677ZM53.893 29.5634L57.9001 33.3295C58.227 32.8969 58.558 32.4987 58.9182 32.0772C59.2314 31.7107 59.7069 31.167 60.0905 30.6921C60.8018 29.8114 62.2614 27.9438 62.6353 25.228L57.3728 24.5322L52.1104 23.8364C52.1932 23.2347 52.388 22.8221 52.4774 22.6592C52.543 22.5395 52.5441 22.5704 52.3211 22.8464C52.0796 23.1455 51.8344 23.4222 51.3654 23.971C50.9434 24.4647 50.4305 25.0765 49.8859 25.7972L53.893 29.5634ZM57.3728 24.5322L62.6353 25.228C62.8878 23.3935 62.7463 21.0459 61.4016 18.994C60.0636 16.9523 58.1363 16.1229 56.54 15.8551L55.5612 21.7677L54.5823 27.6803C54.3793 27.6462 53.4655 27.4172 52.7389 26.3083C52.0055 25.1893 52.0731 24.107 52.1104 23.8364L57.3728 24.5322ZM55.5612 21.7677L56.54 15.8551C55.5074 15.6819 54.3027 15.5723 52.7872 15.9545C51.5994 16.254 50.3811 16.8288 49.2325 17.3776L51.1612 22.8643L53.0899 28.3511C53.6996 28.0598 54.1029 27.8742 54.4016 27.7485C54.6976 27.624 54.7799 27.6064 54.7491 27.6142C54.6782 27.632 54.5527 27.6516 54.4242 27.6513C54.3364 27.6511 54.3434 27.6402 54.5823 27.6803L55.5612 21.7677ZM51.1612 22.8643L56.1805 20.6572L55.4183 18.2783L50.3989 20.4854L45.3796 22.6925L46.1419 25.0714L51.1612 22.8643Z" fill="#FF6DA3" mask="url(#path-8-inside-1_56_741)"/>
<mask id="path-10-inside-2_56_741" fill="white">
<ellipse cx="1.79022" cy="2.03397" rx="1.79022" ry="2.03397" transform="matrix(-1 0 0 1 50.021 27.3447)"/>
</mask>
<ellipse cx="1.79022" cy="2.03397" rx="1.79022" ry="2.03397" transform="matrix(-1 0 0 1 50.021 27.3447)" fill="#FF6DA3"/>
<path d="M46.4406 29.3787H48.8559C48.8559 29.3684 48.8523 29.3056 48.778 29.2211C48.6995 29.132 48.5112 28.9974 48.2308 28.9974V31.4127V33.828C45.6277 33.828 44.0253 31.537 44.0253 29.3787H46.4406ZM48.2308 31.4127V28.9974C47.9504 28.9974 47.762 29.132 47.6836 29.2211C47.6093 29.3056 47.6057 29.3684 47.6057 29.3787H50.021H52.4363C52.4363 31.537 50.8339 33.828 48.2308 33.828V31.4127ZM50.021 29.3787H47.6057C47.6057 29.3889 47.6093 29.4518 47.6836 29.5362C47.762 29.6253 47.9504 29.76 48.2308 29.76V27.3447V24.9294C50.8339 24.9294 52.4363 27.2204 52.4363 29.3787H50.021ZM48.2308 27.3447V29.76C48.5112 29.76 48.6995 29.6253 48.778 29.5362C48.8523 29.4518 48.8559 29.3889 48.8559 29.3787H46.4406H44.0253C44.0253 27.2204 45.6277 24.9294 48.2308 24.9294V27.3447Z" fill="#FF6DA3" mask="url(#path-10-inside-2_56_741)"/>
<mask id="path-12-inside-3_56_741" fill="white">
<ellipse cx="1.79022" cy="2.03397" rx="1.79022" ry="2.03397" transform="matrix(-1 0 0 1 41.5186 27.3447)"/>
</mask>
<ellipse cx="1.79022" cy="2.03397" rx="1.79022" ry="2.03397" transform="matrix(-1 0 0 1 41.5186 27.3447)" fill="#FF6DA3"/>
<path d="M37.9381 29.3787H40.3534C40.3534 29.3684 40.3498 29.3056 40.2755 29.2211C40.1971 29.132 40.0087 28.9974 39.7283 28.9974V31.4127V33.828C37.1252 33.828 35.5228 31.537 35.5228 29.3787H37.9381ZM39.7283 31.4127V28.9974C39.448 28.9974 39.2596 29.132 39.1812 29.2211C39.1068 29.3056 39.1033 29.3684 39.1033 29.3787H41.5186H43.9339C43.9339 31.537 42.3315 33.828 39.7283 33.828V31.4127ZM41.5186 29.3787H39.1033C39.1033 29.3889 39.1068 29.4518 39.1812 29.5362C39.2596 29.6253 39.448 29.76 39.7283 29.76V27.3447V24.9294C42.3315 24.9294 43.9339 27.2204 43.9339 29.3787H41.5186ZM39.7283 27.3447V29.76C40.0087 29.76 40.1971 29.6253 40.2755 29.5362C40.3498 29.4518 40.3534 29.3889 40.3534 29.3787H37.9381H35.5228C35.5228 27.2204 37.1252 24.9294 39.7283 24.9294V27.3447Z" fill="#FF6DA3" mask="url(#path-12-inside-3_56_741)"/>
<mask id="path-14-inside-4_56_741" fill="white">
<path d="M45.122 31.7909C45.4659 31.7518 45.7675 32.021 45.7675 32.3671V34.0721C45.7675 34.1173 45.7604 34.1605 45.7509 34.202C45.7617 34.2463 45.7685 34.293 45.7685 34.3417V36.0067C45.7683 36.3183 45.5223 36.5742 45.2109 36.5858L42.164 36.6981C41.5617 36.7201 41.3302 35.9231 41.8506 35.619L44.1679 34.2655L41.8144 33.2577C41.2678 33.0234 41.3866 32.2155 41.9775 32.1483L45.122 31.7909Z"/>
</mask>
<path d="M45.122 31.7909C45.4659 31.7518 45.7675 32.021 45.7675 32.3671V34.0721C45.7675 34.1173 45.7604 34.1605 45.7509 34.202C45.7617 34.2463 45.7685 34.293 45.7685 34.3417V36.0067C45.7683 36.3183 45.5223 36.5742 45.2109 36.5858L42.164 36.6981C41.5617 36.7201 41.3302 35.9231 41.8506 35.619L44.1679 34.2655L41.8144 33.2577C41.2678 33.0234 41.3866 32.2155 41.9775 32.1483L45.122 31.7909Z" fill="#FF6DA3"/>
<path d="M45.122 31.7909L47.346 51.3573L47.3476 51.3571L45.122 31.7909ZM45.7675 34.0721L65.4599 34.0846V34.0721H45.7675ZM45.7509 34.202L26.5487 29.8357L25.5228 34.3478L26.6136 38.8446L45.7509 34.202ZM45.7685 36.0067L65.4609 36.0199V36.0067H45.7685ZM45.2109 36.5858L45.9363 56.2648L45.9447 56.2645L45.2109 36.5858ZM42.164 36.6981L42.8835 56.3773L42.8894 56.3771L42.164 36.6981ZM41.8506 35.619L31.9188 18.6146L31.9157 18.6164L41.8506 35.619ZM44.1679 34.2655L54.0997 51.2699L87.8583 31.5525L51.9197 16.163L44.1679 34.2655ZM41.8144 33.2577L34.056 51.3573L34.0627 51.3602L41.8144 33.2577ZM41.9775 32.1483L39.7535 12.5819L39.7519 12.5821L41.9775 32.1483ZM45.122 31.7909L47.3476 51.3571C36.0129 52.6464 26.0752 43.7818 26.0752 32.3671H45.7675H65.4599C65.4599 20.2601 54.919 10.8572 42.8965 12.2247L45.122 31.7909ZM45.7675 32.3671H26.0752V34.0721H45.7675H65.4599V32.3671H45.7675ZM45.7675 34.0721L26.0752 34.0597C26.0764 32.0709 26.39 30.5339 26.5487 29.8357L45.7509 34.202L64.9532 38.5684C65.1308 37.787 65.4586 36.1637 65.4599 34.0846L45.7675 34.0721ZM45.7509 34.202L26.6136 38.8446C26.3294 37.6728 26.0761 36.1417 26.0761 34.3417H45.7685H65.4609C65.4609 32.4444 65.194 30.8197 64.8882 29.5595L45.7509 34.202ZM45.7685 34.3417H26.0761V36.0067H45.7685H65.4609V34.3417H45.7685ZM45.7685 36.0067L26.0762 35.9935C26.083 25.7508 34.1799 17.2911 44.4771 16.9071L45.2109 36.5858L45.9447 56.2645C56.8647 55.8573 65.4536 46.8857 65.4609 36.0199L45.7685 36.0067ZM45.2109 36.5858L44.4856 16.9068L41.4387 17.0191L42.164 36.6981L42.8894 56.3771L45.9363 56.2648L45.2109 36.5858ZM42.164 36.6981L41.4445 17.0189C61.2988 16.293 68.9494 42.5925 51.7854 52.6216L41.8506 35.619L31.9157 18.6164C13.7109 29.2537 21.8247 57.1473 42.8835 56.3773L42.164 36.6981ZM41.8506 35.619L51.7823 52.6234L54.0997 51.2699L44.1679 34.2655L34.2362 17.2611L31.9188 18.6146L41.8506 35.619ZM44.1679 34.2655L51.9197 16.163L49.5662 15.1552L41.8144 33.2577L34.0627 51.3602L36.4162 52.368L44.1679 34.2655ZM41.8144 33.2577L49.5728 15.1581C67.6051 22.8876 63.676 49.4996 44.2031 51.7145L41.9775 32.1483L39.7519 12.5821C19.0971 14.9315 14.9306 43.1592 34.056 51.3573L41.8144 33.2577ZM41.9775 32.1483L44.2015 51.7147L47.346 51.3573L45.122 31.7909L42.898 12.2245L39.7535 12.5819L41.9775 32.1483Z" fill="#FF6DA3" mask="url(#path-14-inside-4_56_741)"/>
</svg>
