<svg width="110" height="81" viewBox="0 0 110 81" fill="none" xmlns="http://www.w3.org/2000/svg">
<path d="M0 0H76.5522C94.62 0 109.267 14.6468 109.267 32.7146V47.7633C109.267 65.8311 94.6199 80.4779 76.5522 80.4779H32.7146C14.6468 80.4779 0 65.8311 0 47.7633V0Z" fill="#FFD738"/>
<path d="M83.837 16.4553C85.7876 16.1829 87.5227 17.8114 87.3951 19.7768C87.0997 24.3254 86.8378 31.9386 87.8236 37.6272C88.5639 41.8989 90.3405 47.005 92.2635 51.703C93.5096 54.7474 89.4338 57.8927 86.9321 55.7566L73.5454 44.325C68.3464 48.8883 60.8222 57.5476 55.5162 61.9165C48.3721 67.7989 42.2363 70.1485 31.4794 65.7066C20.7226 61.2646 9.80988 52.5122 13.376 40.9293C15.4535 34.1817 23.616 31.585 28.9516 36.1401C34.287 40.6951 37.6632 47.9302 45.9733 45.2478C52.8171 43.0385 56.7754 38.7653 59.298 32.1586L45.506 20.3813C43.0514 18.2853 45.3188 13.9966 48.4653 14.716C54.9924 16.2086 62.6375 17.6089 68.626 17.696C73.4672 17.7663 79.8216 17.0161 83.837 16.4553Z" fill="#FF6DA3"/>
</svg>
