<svg width="749" height="403" viewBox="0 0 749 403" fill="none" xmlns="http://www.w3.org/2000/svg">
<path d="M0.000488281 122.281C0.000488281 68.4649 35.0913 24.8383 78.3781 24.8383L592.955 0C665.441 5.09504 693.776 51.8485 689.518 105.404C685.726 153.11 652.202 159.264 609.089 173.315C595.913 177.608 582.351 180.779 568.535 181.847L78.378 219.723C35.0913 219.723 0.000488281 176.097 0.000488281 122.281Z" fill="#FFD738"/>
<path d="M198.301 258.447C198.301 313.207 153.91 357.598 99.1511 357.598V357.598C44.3919 357.598 0.000850611 313.207 0.000845824 258.447L0.000833314 115.353C0.000831962 99.8804 12.5435 87.3378 28.0156 87.3378L198.301 87.3378L198.301 258.447Z" fill="#FFD738"/>
<path d="M162.596 253.229C162.596 253.229 145.713 227.411 98.2319 227.411C50.7505 227.411 34.6068 253.229 34.6068 253.229" stroke="#191919" stroke-width="3.53419" stroke-linecap="round"/>
<path d="M135.224 378.163L113.076 378.163L113.076 316.128L135.224 316.128L135.224 378.163Z" fill="#FFD738"/>
<path d="M79.3081 378.163L57.1605 378.163L57.1605 322.92L79.3081 322.92L79.3081 378.163Z" fill="#FFD738"/>
<ellipse cx="124.152" cy="386.542" rx="16.7285" ry="16.0748" transform="rotate(180 124.152 386.542)" fill="#FFD738"/>
<ellipse cx="68.2368" cy="386.542" rx="16.7285" ry="16.0748" transform="rotate(180 68.2368 386.542)" fill="#FFD738"/>
<ellipse cx="96.6689" cy="288.078" rx="35.6953" ry="34.3004" transform="rotate(180 96.6689 288.078)" fill="white"/>
<ellipse cx="96.5491" cy="287.968" rx="30.1584" ry="28.9799" transform="rotate(180 96.5491 287.968)" fill="#191919"/>
<rect x="633.903" y="74.2773" width="41.7473" height="109.862" rx="20.8736" transform="rotate(-81.7961 633.903 74.2773)" fill="#FFD738"/>
<rect x="631.156" y="131.826" width="41.7473" height="109.862" rx="20.8736" transform="rotate(-63.4546 631.156 131.826)" fill="#FFD738"/>
</svg>
