<svg width="587" height="230" viewBox="0 0 587 230" fill="none" xmlns="http://www.w3.org/2000/svg">
<path d="M586.038 34.2202C586.038 48.9364 573.898 60.4763 560.714 67.0139C540.95 76.8142 527.435 96.6405 527.435 119.504C527.435 142.813 541.482 162.966 561.878 172.556C574.541 178.51 586.038 189.501 586.038 203.494C586.038 217.918 574.346 229.61 559.922 229.61H26.1159C11.6925 229.61 0 217.918 0 203.494C0 189.501 11.4972 178.51 24.1605 172.556C44.5561 162.966 58.6035 142.814 58.6035 119.504C58.6034 96.6404 45.0884 76.8141 25.3242 67.0138C12.1398 60.4762 0 48.9363 0 34.22V27.4654C0 12.2967 12.2967 0 27.4654 0H558.573C573.741 0 586.038 12.2967 586.038 27.4654V34.2202Z" fill="#FF6DA3"/>
</svg>
