<svg width="246" height="307" viewBox="0 0 246 307" fill="none" xmlns="http://www.w3.org/2000/svg">
<circle cx="123" cy="163.001" r="123" fill="#1565C0"/>
<mask id="path-2-outside-1_5_487" maskUnits="userSpaceOnUse" x="69" y="112" width="110" height="110" fill="black">
<rect fill="white" x="69" y="112" width="110" height="110"/>
<path d="M72.8211 173.092V159.099C72.8211 156.983 73.4875 155.258 74.8201 153.925C76.2312 152.514 77.9558 151.809 79.994 151.809H109.391V122.529C109.391 120.413 110.057 118.688 111.39 117.355C112.801 115.944 114.565 115.239 116.682 115.239H130.557C132.674 115.239 134.398 115.944 135.731 117.355C137.142 118.688 137.848 120.413 137.848 122.529V151.809H168.656C170.772 151.809 172.497 152.514 173.83 153.925C175.241 155.258 175.946 156.983 175.946 159.099V173.092C175.946 175.209 175.241 176.933 173.83 178.266C172.497 179.599 170.772 180.265 168.656 180.265H137.848V211.073C137.848 213.19 137.142 214.954 135.731 216.365C134.398 217.697 132.674 218.364 130.557 218.364H116.682C114.565 218.364 112.801 217.697 111.39 216.365C110.057 214.954 109.391 213.19 109.391 211.073V180.265H79.994C77.8774 180.265 76.1528 179.599 74.8201 178.266C73.4875 176.933 72.8211 175.209 72.8211 173.092Z"/>
</mask>
<path d="M72.8211 173.092V159.099C72.8211 156.983 73.4875 155.258 74.8201 153.925C76.2312 152.514 77.9558 151.809 79.994 151.809H109.391V122.529C109.391 120.413 110.057 118.688 111.39 117.355C112.801 115.944 114.565 115.239 116.682 115.239H130.557C132.674 115.239 134.398 115.944 135.731 117.355C137.142 118.688 137.848 120.413 137.848 122.529V151.809H168.656C170.772 151.809 172.497 152.514 173.83 153.925C175.241 155.258 175.946 156.983 175.946 159.099V173.092C175.946 175.209 175.241 176.933 173.83 178.266C172.497 179.599 170.772 180.265 168.656 180.265H137.848V211.073C137.848 213.19 137.142 214.954 135.731 216.365C134.398 217.697 132.674 218.364 130.557 218.364H116.682C114.565 218.364 112.801 217.697 111.39 216.365C110.057 214.954 109.391 213.19 109.391 211.073V180.265H79.994C77.8774 180.265 76.1528 179.599 74.8201 178.266C73.4875 176.933 72.8211 175.209 72.8211 173.092Z" fill="#FFD738"/>
<path d="M74.8201 153.925L72.688 151.793L74.8201 153.925ZM109.391 151.809V154.824H112.406V151.809H109.391ZM111.39 117.355L113.522 119.487L111.39 117.355ZM135.731 117.355L133.539 119.426L133.598 119.488L133.661 119.547L135.731 117.355ZM137.848 151.809H134.832V154.824H137.848V151.809ZM173.83 153.925L171.637 155.996L171.697 156.058L171.759 156.117L173.83 153.925ZM173.83 178.266L171.759 176.074L171.728 176.104L171.697 176.134L173.83 178.266ZM137.848 180.265V177.25H134.832V180.265H137.848ZM135.731 216.365L137.863 218.497L135.731 216.365ZM111.39 216.365L109.198 218.435L109.257 218.498L109.32 218.557L111.39 216.365ZM109.391 180.265H112.406V177.25H109.391V180.265ZM72.8211 173.092H75.8364V159.099H72.8211H69.8058V173.092H72.8211ZM72.8211 159.099H75.8364C75.8364 157.675 76.2568 156.753 76.9523 156.057L74.8201 153.925L72.688 151.793C70.7181 153.763 69.8058 156.29 69.8058 159.099H72.8211ZM74.8201 153.925L76.9523 156.057C77.7844 155.225 78.7364 154.824 79.994 154.824V151.809V148.793C77.1753 148.793 74.6779 149.803 72.688 151.793L74.8201 153.925ZM79.994 151.809V154.824H109.391V151.809V148.793H79.994V151.809ZM109.391 151.809H112.406V122.529H109.391H106.376V151.809H109.391ZM109.391 122.529H112.406C112.406 121.105 112.827 120.183 113.522 119.487L111.39 117.355L109.258 115.223C107.288 117.193 106.376 119.72 106.376 122.529H109.391ZM111.39 117.355L113.522 119.487C114.331 118.679 115.311 118.254 116.682 118.254V115.239V112.223C113.819 112.223 111.271 113.21 109.258 115.223L111.39 117.355ZM116.682 115.239V118.254H130.557V115.239V112.223H116.682V115.239ZM130.557 115.239V118.254C131.928 118.254 132.831 118.676 133.539 119.426L135.731 117.355L137.923 115.285C135.966 113.213 133.42 112.223 130.557 112.223V115.239ZM135.731 117.355L133.661 119.547C134.41 120.256 134.832 121.159 134.832 122.529H137.848H140.863C140.863 119.666 139.874 117.12 137.801 115.163L135.731 117.355ZM137.848 122.529H134.832V151.809H137.848H140.863V122.529H137.848ZM137.848 151.809V154.824H168.656V151.809V148.793H137.848V151.809ZM168.656 151.809V154.824C170.026 154.824 170.929 155.246 171.637 155.996L173.83 153.925L176.022 151.855C174.065 149.783 171.518 148.793 168.656 148.793V151.809ZM173.83 153.925L171.759 156.117C172.509 156.826 172.931 157.729 172.931 159.099H175.946H178.961C178.961 156.236 177.972 153.69 175.9 151.733L173.83 153.925ZM175.946 159.099H172.931V173.092H175.946H178.961V159.099H175.946ZM175.946 173.092H172.931C172.931 174.463 172.509 175.366 171.759 176.074L173.83 178.266L175.9 180.458C177.972 178.501 178.961 175.955 178.961 173.092H175.946ZM173.83 178.266L171.697 176.134C171.002 176.829 170.08 177.25 168.656 177.25V180.265V183.28C171.465 183.28 173.992 182.368 175.962 180.398L173.83 178.266ZM168.656 180.265V177.25H137.848V180.265V183.28H168.656V180.265ZM137.848 180.265H134.832V211.073H137.848H140.863V180.265H137.848ZM137.848 211.073H134.832C134.832 212.444 134.407 213.424 133.599 214.233L135.731 216.365L137.863 218.497C139.877 216.483 140.863 213.936 140.863 211.073H137.848ZM135.731 216.365L133.599 214.233C132.903 214.928 131.981 215.348 130.557 215.348V218.364V221.379C133.366 221.379 135.893 220.467 137.863 218.497L135.731 216.365ZM130.557 218.364V215.348H116.682V218.364V221.379H130.557V218.364ZM116.682 218.364V215.348C115.259 215.348 114.259 214.927 113.46 214.173L111.39 216.365L109.32 218.557C111.344 220.468 113.871 221.379 116.682 221.379V218.364ZM111.39 216.365L113.582 214.294C112.828 213.496 112.406 212.496 112.406 211.073H109.391H106.376C106.376 213.884 107.287 216.411 109.198 218.435L111.39 216.365ZM109.391 211.073H112.406V180.265H109.391H106.376V211.073H109.391ZM109.391 180.265V177.25H79.994V180.265V183.28H109.391V180.265ZM79.994 180.265V177.25C78.5697 177.25 77.6477 176.829 76.9523 176.134L74.8201 178.266L72.688 180.398C74.6579 182.368 77.1852 183.28 79.994 183.28V180.265ZM74.8201 178.266L76.9523 176.134C76.2568 175.438 75.8364 174.517 75.8364 173.092H72.8211H69.8058C69.8058 175.901 70.7181 178.428 72.688 180.398L74.8201 178.266Z" fill="#FFD738" mask="url(#path-2-outside-1_5_487)"/>
</svg>
