<svg width="246" height="307" viewBox="0 0 246 307" fill="none" xmlns="http://www.w3.org/2000/svg">
<circle cx="123" cy="163.001" r="123" fill="#FFD738"/>
<mask id="path-2-outside-1_5_497" maskUnits="userSpaceOnUse" x="69" y="112" width="110" height="110" fill="black">
<rect fill="white" x="69" y="112" width="110" height="110"/>
<path d="M72.8211 173.092V159.099C72.8211 156.983 73.4875 155.258 74.8201 153.925C76.2312 152.514 77.9558 151.809 79.994 151.809H109.391V122.529C109.391 120.413 110.057 118.688 111.39 117.355C112.801 115.944 114.565 115.239 116.682 115.239H130.557C132.674 115.239 134.398 115.944 135.731 117.355C137.142 118.688 137.848 120.413 137.848 122.529V151.809H168.656C170.772 151.809 172.497 152.514 173.83 153.925C175.241 155.258 175.946 156.983 175.946 159.099V173.092C175.946 175.209 175.241 176.933 173.83 178.266C172.497 179.599 170.772 180.265 168.656 180.265H137.848V211.073C137.848 213.19 137.142 214.954 135.731 216.365C134.398 217.697 132.674 218.364 130.557 218.364H116.682C114.565 218.364 112.801 217.697 111.39 216.365C110.057 214.954 109.391 213.19 109.391 211.073V180.265H79.994C77.8774 180.265 76.1528 179.599 74.8201 178.266C73.4875 176.933 72.8211 175.209 72.8211 173.092Z"/>
</mask>
<path d="M72.8211 173.092V159.099C72.8211 156.983 73.4875 155.258 74.8201 153.925C76.2312 152.514 77.9558 151.809 79.994 151.809H109.391V122.529C109.391 120.413 110.057 118.688 111.39 117.355C112.801 115.944 114.565 115.239 116.682 115.239H130.557C132.674 115.239 134.398 115.944 135.731 117.355C137.142 118.688 137.848 120.413 137.848 122.529V151.809H168.656C170.772 151.809 172.497 152.514 173.83 153.925C175.241 155.258 175.946 156.983 175.946 159.099V173.092C175.946 175.209 175.241 176.933 173.83 178.266C172.497 179.599 170.772 180.265 168.656 180.265H137.848V211.073C137.848 213.19 137.142 214.954 135.731 216.365C134.398 217.697 132.674 218.364 130.557 218.364H116.682C114.565 218.364 112.801 217.697 111.39 216.365C110.057 214.954 109.391 213.19 109.391 211.073V180.265H79.994C77.8774 180.265 76.1528 179.599 74.8201 178.266C73.4875 176.933 72.8211 175.209 72.8211 173.092Z" fill="#1565C0"/>
<path d="M74.8201 153.925L72.6988 151.804L74.8201 153.925ZM109.391 151.809V154.809H112.391V151.809H109.391ZM111.39 117.355L113.511 119.477L111.39 117.355ZM135.731 117.355L133.55 119.415L133.609 119.477L133.671 119.536L135.731 117.355ZM137.848 151.809H134.848V154.809H137.848V151.809ZM173.83 153.925L171.649 155.985L171.707 156.047L171.77 156.106L173.83 153.925ZM173.83 178.266L171.77 176.085L171.739 176.114L171.708 176.145L173.83 178.266ZM137.848 180.265V177.265H134.848V180.265H137.848ZM135.731 216.365L137.852 218.486L135.731 216.365ZM111.39 216.365L109.209 218.425L109.268 218.487L109.33 218.546L111.39 216.365ZM109.391 180.265H112.391V177.265H109.391V180.265ZM72.8211 173.092H75.8211V159.099H72.8211H69.8211V173.092H72.8211ZM72.8211 159.099H75.8211C75.8211 157.671 76.2427 156.745 76.9414 156.047L74.8201 153.925L72.6988 151.804C70.7322 153.771 69.8211 156.294 69.8211 159.099H72.8211ZM74.8201 153.925L76.9414 156.047C77.7766 155.211 78.7324 154.809 79.994 154.809V151.809V148.809C77.1792 148.809 74.6858 149.817 72.6988 151.804L74.8201 153.925ZM79.994 151.809V154.809H109.391V151.809V148.809H79.994V151.809ZM109.391 151.809H112.391V122.529H109.391H106.391V151.809H109.391ZM109.391 122.529H112.391C112.391 121.101 112.813 120.175 113.511 119.477L111.39 117.355L109.269 115.234C107.302 117.201 106.391 119.724 106.391 122.529H109.391ZM111.39 117.355L113.511 119.477C114.323 118.665 115.307 118.239 116.682 118.239V115.239V112.239C113.823 112.239 111.279 113.224 109.269 115.234L111.39 117.355ZM116.682 115.239V118.239H130.557V115.239V112.239H116.682V115.239ZM130.557 115.239V118.239C131.931 118.239 132.839 118.662 133.55 119.415L135.731 117.355L137.912 115.295C135.958 113.226 133.416 112.239 130.557 112.239V115.239ZM135.731 117.355L133.671 119.536C134.424 120.248 134.848 121.155 134.848 122.529H137.848H140.848C140.848 119.67 139.86 117.128 137.791 115.174L135.731 117.355ZM137.848 122.529H134.848V151.809H137.848H140.848V122.529H137.848ZM137.848 151.809V154.809H168.656V151.809V148.809H137.848V151.809ZM168.656 151.809V154.809C170.03 154.809 170.937 155.232 171.649 155.985L173.83 153.925L176.011 151.865C174.057 149.796 171.515 148.809 168.656 148.809V151.809ZM173.83 153.925L171.77 156.106C172.523 156.818 172.946 157.725 172.946 159.099H175.946H178.946C178.946 156.24 177.958 153.698 175.889 151.744L173.83 153.925ZM175.946 159.099H172.946V173.092H175.946H178.946V159.099H175.946ZM175.946 173.092H172.946C172.946 174.466 172.523 175.374 171.77 176.085L173.83 178.266L175.889 180.447C177.958 178.493 178.946 175.951 178.946 173.092H175.946ZM173.83 178.266L171.708 176.145C171.01 176.843 170.084 177.265 168.656 177.265V180.265V183.265C171.461 183.265 173.984 182.354 175.951 180.387L173.83 178.266ZM168.656 180.265V177.265H137.848V180.265V183.265H168.656V180.265ZM137.848 180.265H134.848V211.073H137.848H140.848V180.265H137.848ZM137.848 211.073H134.848C134.848 212.448 134.421 213.432 133.61 214.243L135.731 216.365L137.852 218.486C139.863 216.476 140.848 213.932 140.848 211.073H137.848ZM135.731 216.365L133.61 214.243C132.911 214.942 131.985 215.364 130.557 215.364V218.364V221.364C133.362 221.364 135.886 220.453 137.852 218.486L135.731 216.365ZM130.557 218.364V215.364H116.682V218.364V221.364H130.557V218.364ZM116.682 218.364V215.364C115.255 215.364 114.251 214.941 113.45 214.184L111.39 216.365L109.33 218.546C111.351 220.454 113.875 221.364 116.682 221.364V218.364ZM111.39 216.365L113.571 214.305C112.814 213.503 112.391 212.5 112.391 211.073H109.391H106.391C106.391 213.88 107.301 216.404 109.209 218.425L111.39 216.365ZM109.391 211.073H112.391V180.265H109.391H106.391V211.073H109.391ZM109.391 180.265V177.265H79.994V180.265V183.265H109.391V180.265ZM79.994 180.265V177.265C78.5662 177.265 77.6402 176.843 76.9414 176.145L74.8201 178.266L72.6988 180.387C74.6654 182.354 77.1887 183.265 79.994 183.265V180.265ZM74.8201 178.266L76.9414 176.145C76.2427 175.446 75.8211 174.52 75.8211 173.092H72.8211H69.8211C69.8211 175.898 70.7322 178.421 72.6988 180.387L74.8201 178.266Z" fill="#1565C0" mask="url(#path-2-outside-1_5_497)"/>
</svg>
