<svg width="1440" height="1830" viewBox="0 0 1440 1830" fill="none" xmlns="http://www.w3.org/2000/svg">
<rect width="1440" height="1830" fill="black"/>
<path d="M42.1221 231.318V169.312C42.1221 168.017 42.5703 166.904 43.4668 165.975C44.3633 165.045 45.459 164.58 46.7539 164.58H111.4C112.695 164.58 113.791 165.045 114.688 165.975C115.617 166.904 116.082 168.017 116.082 169.312V231.318C116.082 232.613 115.601 233.726 114.638 234.655C113.708 235.552 112.596 236 111.301 236H102.037C100.742 236 99.6299 235.552 98.7002 234.655C97.7705 233.726 97.3057 232.613 97.3057 231.318V178.675H60.8984V231.318C60.8984 232.613 60.4336 233.726 59.5039 234.655C58.6074 235.552 57.5117 236 56.2168 236H46.8535C45.5586 236 44.4463 235.552 43.5166 234.655C42.5869 233.726 42.1221 232.613 42.1221 231.318ZM129.38 249.746V184.502C129.38 183.605 129.662 182.875 130.227 182.311C130.824 181.713 131.555 181.414 132.418 181.414H142.03C142.894 181.414 143.607 181.713 144.172 182.311C144.77 182.875 145.068 183.605 145.068 184.502V185.996C150.314 182.277 156.407 180.418 163.347 180.418C170.286 180.418 176.08 182.875 180.729 187.789C185.377 192.67 187.701 199.676 187.701 208.807C187.701 217.904 185.294 224.877 180.479 229.725C175.665 234.572 169.174 236.996 161.006 236.996C156.789 236.996 151.991 236.149 146.612 234.456V249.746C146.612 250.643 146.313 251.373 145.716 251.938C145.151 252.535 144.438 252.834 143.574 252.834H132.418C131.555 252.834 130.824 252.535 130.227 251.938C129.662 251.373 129.38 250.643 129.38 249.746ZM146.612 222.951C150.896 224.312 154.498 224.993 157.42 224.993C161.969 224.993 165.189 223.698 167.082 221.108C169.008 218.519 169.971 214.385 169.971 208.707C169.971 203.029 169.058 198.912 167.231 196.355C165.438 193.766 162.732 192.471 159.113 192.471C155.527 192.471 151.36 193.965 146.612 196.953V222.951ZM196.915 232.962V184.502C196.915 183.605 197.197 182.875 197.762 182.311C198.359 181.713 199.09 181.414 199.953 181.414H210.362C211.259 181.414 211.989 181.713 212.554 182.311C213.151 182.875 213.45 183.605 213.45 184.502V217.224L230.981 185C231.513 183.971 232.326 183.124 233.422 182.46C234.518 181.763 235.58 181.414 236.609 181.414H250.555C251.451 181.414 252.182 181.713 252.746 182.311C253.344 182.875 253.643 183.605 253.643 184.502V232.962C253.643 233.858 253.344 234.589 252.746 235.153C252.182 235.718 251.451 236 250.555 236H240.146C239.249 236 238.519 235.718 237.954 235.153C237.39 234.556 237.107 233.825 237.107 232.962V200.29L219.576 232.414C219.045 233.377 218.231 234.224 217.136 234.954C216.04 235.651 214.978 236 213.948 236H199.953C199.057 236 198.326 235.718 197.762 235.153C197.197 234.589 196.915 233.858 196.915 232.962ZM261.462 234.456C261.329 234.124 261.263 233.726 261.263 233.261C261.263 232.763 261.528 232.215 262.06 231.617L279.392 208.657L263.205 185.797C262.143 184.402 262.076 183.174 263.006 182.111C263.404 181.646 263.969 181.414 264.699 181.414H275.507C278.728 181.414 281.317 182.875 283.276 185.797L291.544 198.348L299.812 185.797C301.771 182.875 304.36 181.414 307.581 181.414H318.389C319.119 181.414 319.684 181.646 320.082 182.111C321.012 183.174 320.945 184.402 319.883 185.797L303.696 208.657L321.028 231.617C321.56 232.215 321.825 232.779 321.825 233.311C321.825 233.809 321.759 234.19 321.626 234.456C321.36 235.485 320.646 236 319.484 236H308.876C305.821 236 303.231 234.539 301.106 231.617L291.544 218.668L281.932 231.617C279.84 234.539 277.267 236 274.212 236H263.604C262.441 236 261.728 235.485 261.462 234.456ZM333.181 229.824C328.001 225.043 325.411 218.004 325.411 208.707C325.411 199.377 328.001 192.338 333.181 187.59C338.36 182.809 345.798 180.418 355.493 180.418C365.222 180.418 372.676 182.809 377.855 187.59C383.035 192.338 385.625 199.377 385.625 208.707C385.625 218.004 383.035 225.043 377.855 229.824C372.676 234.605 365.222 236.996 355.493 236.996C345.798 236.996 338.36 234.605 333.181 229.824ZM345.781 195.758C343.723 198.447 342.693 202.747 342.693 208.657C342.693 214.567 343.723 218.884 345.781 221.606C347.84 224.329 351.077 225.69 355.493 225.69C359.942 225.69 363.196 224.329 365.255 221.606C367.347 218.884 368.393 214.567 368.393 208.657C368.393 202.747 367.347 198.447 365.255 195.758C363.196 193.068 359.942 191.724 355.493 191.724C351.077 191.724 347.84 193.068 345.781 195.758ZM387.717 232.962V227.035C387.717 226.139 387.999 225.408 388.563 224.844C389.161 224.246 389.908 223.947 390.805 223.947H394.689L401.513 196.505C404.036 186.444 412.37 181.414 426.515 181.414H449.126C450.022 181.414 450.753 181.713 451.317 182.311C451.915 182.875 452.214 183.605 452.214 184.502V232.962C452.214 233.825 451.915 234.556 451.317 235.153C450.753 235.718 450.022 236 449.126 236H390.805C389.908 236 389.161 235.718 388.563 235.153C387.999 234.556 387.717 233.825 387.717 232.962ZM410.976 223.947H434.981V193.467H425.967C421.152 193.467 418.098 195.907 416.803 200.788L410.976 223.947ZM464.466 232.962V184.502C464.466 183.605 464.748 182.875 465.312 182.311C465.91 181.713 466.641 181.414 467.504 181.414H477.913C478.81 181.414 479.54 181.713 480.104 182.311C480.702 182.875 481.001 183.605 481.001 184.502V217.224L498.532 185C499.063 183.971 499.877 183.124 500.973 182.46C502.068 181.763 503.131 181.414 504.16 181.414H518.105C519.002 181.414 519.732 181.713 520.297 182.311C520.895 182.875 521.193 183.605 521.193 184.502V232.962C521.193 233.858 520.895 234.589 520.297 235.153C519.732 235.718 519.002 236 518.105 236H507.696C506.8 236 506.069 235.718 505.505 235.153C504.94 234.556 504.658 233.825 504.658 232.962V200.29L487.127 232.414C486.596 233.377 485.782 234.224 484.687 234.954C483.591 235.651 482.528 236 481.499 236H467.504C466.607 236 465.877 235.718 465.312 235.153C464.748 234.589 464.466 233.858 464.466 232.962ZM528.266 190.429V184.502C528.266 183.605 528.548 182.875 529.112 182.311C529.71 181.713 530.457 181.414 531.354 181.414H580.411C581.308 181.414 582.038 181.713 582.603 182.311C583.167 182.875 583.449 183.605 583.449 184.502V190.429C583.449 191.292 583.167 192.022 582.603 192.62C582.038 193.185 581.308 193.467 580.411 193.467H564.523V232.962C564.523 233.825 564.225 234.556 563.627 235.153C563.062 235.718 562.332 236 561.436 236H550.329C549.433 236 548.686 235.718 548.088 235.153C547.523 234.556 547.241 233.825 547.241 232.962V193.467H531.354C530.457 193.467 529.71 193.185 529.112 192.62C528.548 192.022 528.266 191.292 528.266 190.429ZM594.755 229.725C589.642 224.877 587.085 217.904 587.085 208.807C587.085 199.676 589.658 192.67 594.805 187.789C599.951 182.875 607.09 180.418 616.221 180.418C625.352 180.418 632.474 182.809 637.587 187.59C642.7 192.338 645.257 199.161 645.257 208.06V210.898C645.257 211.795 644.958 212.542 644.36 213.14C643.796 213.704 643.065 213.986 642.169 213.986H604.666C604.998 218.07 606.16 221.042 608.152 222.901C610.178 224.761 613.398 225.69 617.814 225.69C622.23 225.69 625.252 224.694 626.879 222.702C628.506 220.71 630.515 219.697 632.905 219.664H640.326C641.223 219.664 641.953 219.963 642.518 220.561C643.115 221.125 643.414 221.855 643.414 222.752C643.414 232.281 634.333 237.029 616.171 236.996C607.007 236.996 599.868 234.572 594.755 229.725ZM604.566 203.478H627.726C627.394 195.642 623.542 191.724 616.171 191.724C608.833 191.724 604.965 195.642 604.566 203.478ZM654.521 169.312C654.454 168.017 654.886 166.904 655.815 165.975C656.778 165.045 657.907 164.58 659.202 164.58H669.91C671.205 164.58 672.317 165.045 673.247 165.975C674.21 166.904 674.658 168.017 674.592 169.312L673.197 210.201C673.131 211.496 672.649 212.592 671.753 213.488C670.856 214.352 669.777 214.783 668.516 214.783H660.646C659.352 214.783 658.256 214.352 657.359 213.488C656.496 212.592 656.031 211.496 655.965 210.201L654.521 169.312ZM667.669 219.863C672.151 219.863 674.393 222.121 674.393 226.637V229.774C674.393 231.866 673.812 233.51 672.649 234.705C671.521 235.9 669.86 236.498 667.669 236.498H661.543C659.352 236.498 657.675 235.9 656.513 234.705C655.384 233.51 654.819 231.866 654.819 229.774V226.637C654.819 224.445 655.4 222.769 656.562 221.606C657.725 220.444 659.385 219.863 661.543 219.863H667.669Z" fill="white"/>
<path d="M40 367.582C40 394.422 62.1038 415.429 86.3975 426.838C122.216 443.66 146.685 477.516 146.686 516.541C146.686 557.252 120.057 592.337 81.6929 608.328C59.5723 617.548 40 636.389 40 660.354C40 685.012 59.9885 705 84.6455 705H1062.22C1086.88 705 1106.87 685.012 1106.87 660.355C1106.87 636.389 1087.29 617.548 1065.17 608.328C1026.81 592.338 1000.18 557.253 1000.18 516.541C1000.18 477.515 1024.65 443.659 1060.47 426.838C1084.76 415.428 1106.87 394.421 1106.87 367.582V362C1106.87 334.386 1084.48 312 1056.87 312H89.9999C62.3857 312 40 334.386 40 362V367.582Z" fill="#1565C0"/>
<path d="M40 1233.58C40 1260.42 62.1038 1281.43 86.3975 1292.84C122.216 1309.66 146.685 1343.52 146.686 1382.54C146.686 1423.25 120.057 1458.34 81.6929 1474.33C59.5723 1483.55 40 1502.39 40 1526.35C40 1551.01 59.9885 1571 84.6455 1571H1062.22C1086.88 1571 1106.87 1551.01 1106.87 1526.35C1106.87 1502.39 1087.29 1483.55 1065.17 1474.33C1026.81 1458.34 1000.18 1423.25 1000.18 1382.54C1000.18 1343.52 1024.65 1309.66 1060.47 1292.84C1084.76 1281.43 1106.87 1260.42 1106.87 1233.58V1228C1106.87 1200.39 1084.48 1178 1056.87 1178H89.9999C62.3857 1178 40 1200.39 40 1228V1233.58Z" fill="#FFD738"/>
<path d="M201.056 463.601C203.001 463.601 204.491 464.261 205.526 465.581C206.579 466.884 207.105 468.668 207.105 470.934C207.105 473.147 206.57 474.931 205.499 476.287C204.446 477.625 202.956 478.294 201.029 478.294C199.085 478.294 197.586 477.643 196.533 476.341C195.48 475.02 194.954 473.227 194.954 470.961C194.954 468.73 195.48 466.946 196.533 465.608C197.604 464.27 199.111 463.601 201.056 463.601ZM201.056 465.447C199.825 465.447 198.906 465.902 198.299 466.812C197.693 467.722 197.389 469.105 197.389 470.961C197.389 472.817 197.684 474.199 198.273 475.109C198.879 476.002 199.798 476.448 201.029 476.448C202.261 476.448 203.171 476.002 203.759 475.109C204.366 474.199 204.669 472.808 204.669 470.934C204.669 469.078 204.366 467.705 203.759 466.812C203.171 465.902 202.27 465.447 201.056 465.447ZM223.234 465.769H218.202V478H215.954V465.769H210.788V463.895H223.528L223.234 465.769ZM254.982 476.18V478H244.357V476.18H248.88V462.021L244.678 464.564L243.688 462.985L249.175 459.559H251.155V476.18H254.982ZM266.026 466.009C266.989 466.009 267.864 466.224 268.649 466.652C269.452 467.08 270.085 467.731 270.549 468.606C271.013 469.462 271.245 470.524 271.245 471.791C271.245 473.111 270.986 474.271 270.469 475.27C269.951 476.251 269.255 477.001 268.381 477.518C267.507 478.036 266.525 478.294 265.437 478.294C263.296 478.294 261.735 477.518 260.753 475.966C259.79 474.414 259.308 472.192 259.308 469.301C259.308 467.267 259.576 465.501 260.111 464.002C260.664 462.485 261.449 461.317 262.466 460.496C263.501 459.675 264.732 459.265 266.16 459.265C267.498 459.265 268.72 459.63 269.826 460.362L268.943 461.861C268.069 461.343 267.132 461.085 266.133 461.085C264.723 461.085 263.617 461.745 262.814 463.065C262.029 464.386 261.619 466.188 261.583 468.472C262.154 467.615 262.805 466.991 263.537 466.598C264.268 466.206 265.098 466.009 266.026 466.009ZM265.437 476.474C266.579 476.474 267.444 476.073 268.033 475.27C268.64 474.449 268.943 473.316 268.943 471.871C268.943 469.177 267.855 467.829 265.678 467.829C264.821 467.829 264.045 468.07 263.349 468.552C262.671 469.016 262.091 469.649 261.61 470.452C261.645 472.54 261.967 474.066 262.573 475.029C263.18 475.993 264.134 476.474 265.437 476.474ZM302.94 478H300.692V465.795H295.419L295.098 469.516C294.92 471.621 294.697 473.209 294.429 474.28C294.179 475.35 293.831 476.162 293.385 476.715C292.939 477.268 292.27 477.795 291.378 478.294L290.414 476.849C290.932 476.528 291.333 476.171 291.619 475.779C291.922 475.368 292.181 474.69 292.395 473.744C292.627 472.799 292.814 471.416 292.957 469.596L293.385 463.895H302.94V478ZM309.808 471.737C309.862 473.289 310.263 474.458 311.013 475.243C311.78 476.028 312.743 476.421 313.903 476.421C314.599 476.421 315.233 476.323 315.804 476.126C316.392 475.912 317.017 475.591 317.677 475.163L318.721 476.662C318.061 477.179 317.302 477.581 316.446 477.866C315.607 478.152 314.76 478.294 313.903 478.294C311.869 478.294 310.281 477.634 309.139 476.314C308.015 474.976 307.453 473.191 307.453 470.961C307.453 469.551 307.703 468.293 308.202 467.187C308.702 466.063 309.416 465.189 310.344 464.564C311.271 463.922 312.351 463.601 313.582 463.601C315.366 463.601 316.767 464.225 317.784 465.474C318.819 466.705 319.337 468.391 319.337 470.533C319.337 470.943 319.319 471.345 319.283 471.737H309.808ZM313.609 465.447C312.52 465.447 311.637 465.84 310.959 466.625C310.281 467.392 309.897 468.525 309.808 470.024H317.142C317.124 468.543 316.803 467.41 316.178 466.625C315.554 465.84 314.697 465.447 313.609 465.447ZM335.572 465.769H330.54V478H328.292V465.769H323.127V463.895H335.867L335.572 465.769Z" fill="#FFD738"/>
<path d="M202.056 1329.6C204.001 1329.6 205.491 1330.26 206.526 1331.58C207.579 1332.88 208.105 1334.67 208.105 1336.93C208.105 1339.15 207.57 1340.93 206.499 1342.29C205.446 1343.63 203.956 1344.29 202.029 1344.29C200.085 1344.29 198.586 1343.64 197.533 1342.34C196.48 1341.02 195.954 1339.23 195.954 1336.96C195.954 1334.73 196.48 1332.95 197.533 1331.61C198.604 1330.27 200.111 1329.6 202.056 1329.6ZM202.056 1331.45C200.825 1331.45 199.906 1331.9 199.299 1332.81C198.693 1333.72 198.389 1335.11 198.389 1336.96C198.389 1338.82 198.684 1340.2 199.273 1341.11C199.879 1342 200.798 1342.45 202.029 1342.45C203.261 1342.45 204.171 1342 204.759 1341.11C205.366 1340.2 205.669 1338.81 205.669 1336.93C205.669 1335.08 205.366 1333.7 204.759 1332.81C204.171 1331.9 203.27 1331.45 202.056 1331.45ZM224.234 1331.77H219.202V1344H216.954V1331.77H211.788V1329.89H224.528L224.234 1331.77ZM249.88 1325.29C251.896 1325.29 253.404 1325.92 254.403 1327.16C255.403 1328.41 255.902 1330.16 255.902 1332.41C255.902 1335 255.563 1337.06 254.885 1338.59C254.225 1340.13 253.199 1341.34 251.807 1342.23C250.433 1343.11 248.524 1343.88 246.08 1344.56L245.544 1342.85C248.167 1342.15 250.148 1341.2 251.486 1339.99C252.824 1338.77 253.502 1337.1 253.52 1334.98C253.056 1335.64 252.45 1336.18 251.7 1336.61C250.969 1337.04 250.121 1337.26 249.157 1337.26C248.14 1337.26 247.23 1337.01 246.427 1336.53C245.642 1336.05 245.027 1335.37 244.581 1334.5C244.135 1333.61 243.912 1332.56 243.912 1331.37C243.912 1330.08 244.17 1328.98 244.688 1328.07C245.223 1327.16 245.937 1326.48 246.829 1326.01C247.739 1325.53 248.756 1325.29 249.88 1325.29ZM249.532 1335.44C250.389 1335.44 251.147 1335.22 251.807 1334.79C252.467 1334.36 253.056 1333.76 253.574 1332.97C253.609 1330.83 253.333 1329.32 252.744 1328.45C252.155 1327.56 251.2 1327.11 249.88 1327.11C248.685 1327.11 247.784 1327.48 247.177 1328.21C246.57 1328.94 246.267 1330.02 246.267 1331.45C246.267 1332.8 246.543 1333.81 247.097 1334.47C247.668 1335.11 248.479 1335.44 249.532 1335.44ZM288.561 1342.15V1347.93H286.687L286.313 1344H277.213L276.811 1347.93H274.938V1342.15H275.901C276.347 1341.76 276.704 1341.3 276.972 1340.76C277.239 1340.21 277.463 1339.44 277.641 1338.46C277.837 1337.48 277.998 1336.14 278.123 1334.44L278.417 1329.89H287.517V1342.15H288.561ZM285.242 1331.74H280.478L280.291 1334.28C280.166 1336.07 280.014 1337.45 279.836 1338.43C279.657 1339.41 279.416 1340.18 279.113 1340.73C278.81 1341.29 278.381 1341.76 277.828 1342.15H278.069H285.242V1331.74ZM298.346 1329.6C300.291 1329.6 301.781 1330.26 302.816 1331.58C303.869 1332.88 304.395 1334.67 304.395 1336.93C304.395 1339.15 303.86 1340.93 302.789 1342.29C301.737 1343.63 300.247 1344.29 298.32 1344.29C296.375 1344.29 294.876 1343.64 293.823 1342.34C292.77 1341.02 292.244 1339.23 292.244 1336.96C292.244 1334.73 292.77 1332.95 293.823 1331.61C294.894 1330.27 296.401 1329.6 298.346 1329.6ZM298.346 1331.45C297.115 1331.45 296.196 1331.9 295.59 1332.81C294.983 1333.72 294.68 1335.11 294.68 1336.96C294.68 1338.82 294.974 1340.2 295.563 1341.11C296.17 1342 297.088 1342.45 298.32 1342.45C299.551 1342.45 300.461 1342 301.05 1341.11C301.656 1340.2 301.96 1338.81 301.96 1336.93C301.96 1335.08 301.656 1333.7 301.05 1332.81C300.461 1331.9 299.56 1331.45 298.346 1331.45ZM336.224 1342.18V1344H325.599V1342.18H330.122V1328.02L325.92 1330.56L324.93 1328.98L330.416 1325.56H332.397V1342.18H336.224ZM347.268 1332.01C348.231 1332.01 349.106 1332.22 349.891 1332.65C350.694 1333.08 351.327 1333.73 351.791 1334.61C352.255 1335.46 352.487 1336.52 352.487 1337.79C352.487 1339.11 352.228 1340.27 351.711 1341.27C351.193 1342.25 350.497 1343 349.623 1343.52C348.749 1344.04 347.767 1344.29 346.679 1344.29C344.538 1344.29 342.976 1343.52 341.995 1341.97C341.031 1340.41 340.55 1338.19 340.55 1335.3C340.55 1333.27 340.817 1331.5 341.353 1330C341.906 1328.49 342.691 1327.32 343.708 1326.5C344.743 1325.68 345.974 1325.26 347.401 1325.26C348.74 1325.26 349.962 1325.63 351.068 1326.36L350.185 1327.86C349.311 1327.34 348.374 1327.08 347.375 1327.08C345.965 1327.08 344.859 1327.74 344.056 1329.07C343.271 1330.39 342.86 1332.19 342.825 1334.47C343.396 1333.62 344.047 1332.99 344.779 1332.6C345.51 1332.21 346.34 1332.01 347.268 1332.01ZM346.679 1342.47C347.821 1342.47 348.686 1342.07 349.275 1341.27C349.882 1340.45 350.185 1339.32 350.185 1337.87C350.185 1335.18 349.097 1333.83 346.92 1333.83C346.063 1333.83 345.287 1334.07 344.591 1334.55C343.913 1335.02 343.333 1335.65 342.851 1336.45C342.887 1338.54 343.208 1340.07 343.815 1341.03C344.422 1341.99 345.376 1342.47 346.679 1342.47Z" fill="#1565C0"/>
<path d="M195.183 405.829C195.183 405.069 195.456 404.415 196.002 403.869C196.548 403.323 197.202 403.05 197.962 403.05H221.746C227.577 403.05 231.877 404.727 234.647 408.082C236.187 409.934 236.958 412.304 236.958 415.19C236.958 418.057 235.641 420.563 233.008 422.709C236.753 424.717 238.625 427.838 238.625 432.07C238.625 436.302 237.123 439.52 234.12 441.724C231.136 443.908 227.47 445 223.121 445H197.962C197.202 445 196.548 444.737 196.002 444.21C195.456 443.664 195.183 443.011 195.183 442.25V405.829ZM206.212 437.101H222.945C224.447 437.101 225.597 436.653 226.397 435.756C227.197 434.859 227.596 433.63 227.596 432.07C227.596 430.51 227.197 429.281 226.397 428.384C225.597 427.487 224.447 427.038 222.945 427.038H206.212V437.101ZM206.212 419.344H221.863C223.091 419.344 224.076 418.984 224.817 418.262C225.558 417.521 225.929 416.497 225.929 415.19C225.929 413.864 225.558 412.831 224.817 412.089C224.076 411.348 223.091 410.978 221.863 410.978H206.212V419.344ZM241.638 436.78C241.638 436.253 241.804 435.824 242.136 435.493C242.487 435.161 242.916 434.995 243.423 434.995H247.811C249.137 434.995 250.171 435.658 250.912 436.984C251.672 438.291 253.116 438.944 255.241 438.944H261.18C264.008 438.944 265.422 437.784 265.422 435.463C265.422 433.142 264.008 431.992 261.18 432.011H253.925C253.398 432.011 252.96 431.846 252.608 431.514C252.277 431.163 252.111 430.724 252.111 430.198V427.155C252.111 426.629 252.277 426.2 252.608 425.868C252.96 425.517 253.398 425.341 253.925 425.341H260.624C261.911 425.341 262.877 425.059 263.52 424.493C264.183 423.908 264.515 423.138 264.515 422.182C264.515 421.226 264.183 420.456 263.52 419.871C262.877 419.286 261.911 418.993 260.624 418.993H255.241C254.559 418.993 253.857 419.169 253.135 419.52C252.413 419.851 251.877 420.339 251.526 420.983C250.765 422.309 249.722 422.962 248.396 422.943H244.037C243.511 422.943 243.072 422.777 242.721 422.445C242.389 422.114 242.223 421.685 242.223 421.158C242.223 418.525 243.501 416.4 246.056 414.781C248.63 413.162 251.731 412.353 255.358 412.353H261.238C265.353 412.353 268.61 413.113 271.009 414.635C273.427 416.136 274.637 418.428 274.637 421.509C274.637 424.591 273.242 426.814 270.453 428.179C273.847 429.895 275.543 432.606 275.543 436.312C275.543 439.549 274.393 441.909 272.092 443.391C269.81 444.854 266.407 445.585 261.882 445.585H255.358C251.438 445.585 248.172 444.785 245.558 443.186C242.945 441.587 241.638 439.452 241.638 436.78ZM280.663 453.074V414.752C280.663 414.225 280.829 413.796 281.16 413.464C281.511 413.113 281.94 412.938 282.447 412.938H288.093C288.6 412.938 289.02 413.113 289.351 413.464C289.702 413.796 289.878 414.225 289.878 414.752V415.629C292.959 413.445 296.538 412.353 300.614 412.353C304.69 412.353 308.093 413.796 310.824 416.682C313.554 419.549 314.919 423.664 314.919 429.027C314.919 434.371 313.505 438.467 310.677 441.314C307.849 444.161 304.037 445.585 299.239 445.585C296.762 445.585 293.944 445.088 290.785 444.093V453.074C290.785 453.601 290.609 454.03 290.258 454.361C289.927 454.712 289.507 454.888 289 454.888H282.447C281.94 454.888 281.511 454.712 281.16 454.361C280.829 454.03 280.663 453.601 280.663 453.074ZM290.785 437.336C293.301 438.135 295.417 438.535 297.133 438.535C299.805 438.535 301.696 437.774 302.808 436.253C303.939 434.732 304.505 432.304 304.505 428.969C304.505 425.634 303.968 423.216 302.896 421.714C301.843 420.193 300.253 419.432 298.127 419.432C296.021 419.432 293.574 420.31 290.785 422.065V437.336ZM323.081 441.373C320.038 438.564 318.517 434.43 318.517 428.969C318.517 423.489 320.038 419.354 323.081 416.565C326.123 413.757 330.492 412.353 336.187 412.353C341.901 412.353 346.279 413.757 349.322 416.565C352.364 419.354 353.885 423.489 353.885 428.969C353.885 434.43 352.364 438.564 349.322 441.373C346.279 444.181 341.901 445.585 336.187 445.585C330.492 445.585 326.123 444.181 323.081 441.373ZM330.482 421.363C329.273 422.943 328.668 425.468 328.668 428.94C328.668 432.411 329.273 434.946 330.482 436.546C331.691 438.145 333.593 438.944 336.187 438.944C338.8 438.944 340.711 438.145 341.92 436.546C343.149 434.946 343.763 432.411 343.763 428.94C343.763 425.468 343.149 422.943 341.92 421.363C340.711 419.783 338.8 418.993 336.187 418.993C333.593 418.993 331.691 419.783 330.482 421.363ZM374.802 445.585C369.341 445.585 365.089 444.181 362.047 441.373C359.005 438.564 357.483 434.439 357.483 428.998C357.483 423.537 358.995 419.403 362.018 416.595C365.041 413.767 369.243 412.353 374.626 412.353C380.028 412.353 384.173 413.211 387.059 414.927C389.965 416.643 391.418 419.179 391.418 422.533C391.418 423.06 391.242 423.489 390.891 423.82C390.56 424.152 390.131 424.318 389.604 424.318H385.245C383.919 424.318 382.798 423.606 381.881 422.182C380.73 420.349 378.692 419.432 375.767 419.432C372.861 419.432 370.823 420.183 369.653 421.685C368.502 423.167 367.927 425.595 367.927 428.969C367.927 432.343 368.522 434.781 369.711 436.282C370.921 437.784 373.007 438.535 375.972 438.535C378.956 438.535 381.023 437.618 382.174 435.785C383.09 434.342 384.212 433.62 385.538 433.62H389.897C390.423 433.62 390.852 433.796 391.184 434.147C391.535 434.478 391.71 434.898 391.71 435.405C391.71 438.759 390.257 441.295 387.351 443.011C384.465 444.727 380.282 445.585 374.802 445.585ZM393.583 443.069L398.848 421.802C400.33 415.892 405.226 412.938 413.534 412.938H427.371C427.878 412.938 428.297 413.113 428.629 413.464C428.98 413.796 429.155 414.225 429.155 414.752V443.216C429.155 443.723 428.98 444.152 428.629 444.503C428.297 444.834 427.878 445 427.371 445H420.818C420.311 445 419.882 444.834 419.531 444.503C419.199 444.152 419.033 443.723 419.033 443.216V420.017H413.534C410.803 420.017 409.077 421.451 408.356 424.318L403.763 442.835C403.587 443.479 403.236 444.005 402.71 444.415C402.203 444.805 401.657 445 401.071 445H395.074C394.548 445 394.148 444.844 393.875 444.532C393.622 444.2 393.495 443.918 393.495 443.684C393.495 443.45 393.524 443.245 393.583 443.069ZM436.352 443.216V414.752C436.352 414.225 436.517 413.796 436.849 413.464C437.2 413.113 437.629 412.938 438.136 412.938H444.689C445.215 412.938 445.644 413.113 445.976 413.464C446.308 413.796 446.473 414.225 446.473 414.752V423.557H453.436C457.59 423.557 460.798 424.376 463.06 426.014C465.342 427.653 466.483 430.412 466.483 434.293C466.483 438.155 465.342 440.904 463.06 442.543C460.798 444.181 457.59 445 453.436 445H438.136C437.609 445 437.18 444.834 436.849 444.503C436.517 444.171 436.352 443.742 436.352 443.216ZM446.298 438.476H452.529C455.084 438.476 456.361 437.082 456.361 434.293C456.361 431.485 455.084 430.081 452.529 430.081H446.298V438.476ZM470.608 443.216V414.752C470.608 414.225 470.774 413.796 471.105 413.464C471.456 413.113 471.895 412.938 472.421 412.938H478.945C479.472 412.938 479.901 413.113 480.232 413.464C480.564 413.796 480.73 414.225 480.73 414.752V443.216C480.73 443.742 480.564 444.171 480.232 444.503C479.901 444.834 479.472 445 478.945 445H472.421C471.895 445 471.456 444.834 471.105 444.503C470.774 444.171 470.608 443.742 470.608 443.216ZM487.955 443.216V414.752C487.955 414.225 488.121 413.796 488.453 413.464C488.804 413.113 489.233 412.938 489.74 412.938H495.854C496.38 412.938 496.809 413.113 497.141 413.464C497.492 413.796 497.668 414.225 497.668 414.752V433.971L507.965 415.044C508.277 414.44 508.755 413.942 509.398 413.552C510.042 413.143 510.666 412.938 511.271 412.938H519.462C519.988 412.938 520.417 413.113 520.749 413.464C521.1 413.796 521.275 414.225 521.275 414.752V443.216C521.275 443.742 521.1 444.171 520.749 444.503C520.417 444.834 519.988 445 519.462 445H513.348C512.821 445 512.392 444.834 512.06 444.503C511.729 444.152 511.563 443.723 511.563 443.216V424.025L501.266 442.894C500.954 443.459 500.476 443.957 499.832 444.386C499.189 444.795 498.565 445 497.96 445H489.74C489.213 445 488.784 444.834 488.453 444.503C488.121 444.171 487.955 443.742 487.955 443.216ZM494.771 401.851C494.771 400.856 495.317 400.359 496.41 400.359H498.604C499.559 400.359 500.242 400.856 500.651 401.851C501.295 403.45 502.611 404.249 504.601 404.249C506.609 404.249 507.926 403.45 508.55 401.851C508.94 400.856 509.623 400.359 510.598 400.359H512.821C513.894 400.359 514.43 400.856 514.43 401.851C514.43 404.132 513.523 406.005 511.709 407.467C509.896 408.93 507.526 409.661 504.601 409.661C501.695 409.661 499.325 408.93 497.492 407.467C495.678 406.005 494.771 404.132 494.771 401.851ZM547.633 429.437V425.224C547.633 418.516 548.813 413.416 551.173 409.925C553.532 406.434 557.55 404.425 563.225 403.898L579.344 402.465C579.344 402.465 579.442 402.465 579.637 402.465C580.046 402.465 580.407 402.562 580.719 402.758C581.07 403.089 581.246 403.489 581.246 403.957V407.789C581.246 408.433 581.031 409.037 580.602 409.603C580.192 410.149 579.695 410.442 579.11 410.481L566.823 411.504C562.747 411.836 559.881 412.792 558.223 414.371C556.565 415.931 555.736 418.457 555.736 421.948C558.135 418.574 561.802 416.887 566.736 416.887C571.67 416.887 575.59 418.135 578.496 420.632C581.421 423.128 582.884 426.677 582.884 431.28C582.884 435.883 581.382 439.422 578.379 441.899C575.375 444.356 571.007 445.585 565.273 445.585C553.513 445.585 547.633 440.202 547.633 429.437ZM565.244 423.557C562.864 423.557 561.021 424.23 559.715 425.575C558.428 426.902 557.784 428.793 557.784 431.251C557.784 433.708 558.428 435.61 559.715 436.955C561.021 438.281 562.864 438.944 565.244 438.944C567.643 438.944 569.495 438.281 570.802 436.955C572.109 435.61 572.762 433.708 572.762 431.251C572.762 428.793 572.109 426.902 570.802 425.575C569.495 424.23 567.643 423.557 565.244 423.557ZM588.003 443.216V414.752C588.003 414.225 588.169 413.796 588.501 413.464C588.852 413.113 589.281 412.938 589.788 412.938H595.902C596.428 412.938 596.857 413.113 597.189 413.464C597.54 413.796 597.715 414.225 597.715 414.752V433.971L608.013 415.044C608.325 414.44 608.803 413.942 609.446 413.552C610.09 413.143 610.714 412.938 611.318 412.938H619.51C620.036 412.938 620.465 413.113 620.797 413.464C621.148 413.796 621.323 414.225 621.323 414.752V443.216C621.323 443.742 621.148 444.171 620.797 444.503C620.465 444.834 620.036 445 619.51 445H613.396C612.869 445 612.44 444.834 612.108 444.503C611.777 444.152 611.611 443.723 611.611 443.216V424.025L601.314 442.894C601.002 443.459 600.524 443.957 599.88 444.386C599.237 444.795 598.613 445 598.008 445H589.788C589.261 445 588.832 444.834 588.501 444.503C588.169 444.171 588.003 443.742 588.003 443.216ZM625.565 443.069L630.831 421.802C632.313 415.892 637.208 412.938 645.516 412.938H659.353C659.86 412.938 660.28 413.113 660.611 413.464C660.962 413.796 661.138 414.225 661.138 414.752V443.216C661.138 443.723 660.962 444.152 660.611 444.503C660.28 444.834 659.86 445 659.353 445H652.8C652.293 445 651.864 444.834 651.513 444.503C651.182 444.152 651.016 443.723 651.016 443.216V420.017H645.516C642.786 420.017 641.06 421.451 640.338 424.318L635.745 442.835C635.57 443.479 635.219 444.005 634.692 444.415C634.185 444.805 633.639 445 633.054 445H627.057C626.53 445 626.131 444.844 625.858 444.532C625.604 444.2 625.477 443.918 625.477 443.684C625.477 443.45 625.507 443.245 625.565 443.069ZM671.025 441.314C668.022 438.467 666.52 434.371 666.52 429.027C666.52 423.664 668.032 419.549 671.055 416.682C674.078 413.796 678.271 412.353 683.634 412.353C688.997 412.353 693.18 413.757 696.184 416.565C699.187 419.354 700.689 423.362 700.689 428.589V430.256C700.689 430.783 700.513 431.221 700.162 431.573C699.831 431.904 699.402 432.07 698.875 432.07H676.847C677.042 434.469 677.725 436.214 678.895 437.306C680.084 438.398 681.976 438.944 684.57 438.944C687.164 438.944 688.939 438.359 689.894 437.189C690.85 436.019 692.03 435.424 693.434 435.405H697.793C698.319 435.405 698.748 435.58 699.08 435.931C699.431 436.263 699.606 436.692 699.606 437.218C699.606 442.816 694.272 445.605 683.605 445.585C678.222 445.585 674.029 444.161 671.025 441.314ZM676.788 425.897H690.391C690.196 421.295 687.934 418.993 683.605 418.993C679.295 418.993 677.022 421.295 676.788 425.897ZM702.766 418.233V414.752C702.766 414.225 702.932 413.796 703.263 413.464C703.614 413.113 704.053 412.938 704.58 412.938H733.395C733.921 412.938 734.35 413.113 734.682 413.464C735.013 413.796 735.179 414.225 735.179 414.752V418.233C735.179 418.74 735.013 419.169 734.682 419.52C734.35 419.851 733.921 420.017 733.395 420.017H724.063V443.216C724.063 443.723 723.887 444.152 723.536 444.503C723.204 444.834 722.775 445 722.249 445H715.725C715.199 445 714.76 444.834 714.409 444.503C714.077 444.152 713.912 443.723 713.912 443.216V420.017H704.58C704.053 420.017 703.614 419.851 703.263 419.52C702.932 419.169 702.766 418.74 702.766 418.233Z" fill="#FFD738"/>
<path d="M192 1308.25V1305.44C192 1304.68 192.263 1304.04 192.79 1303.51C193.336 1302.98 193.989 1302.72 194.75 1302.72H197.032L202.473 1280.58C204.365 1272.89 210.703 1269.05 221.488 1269.05H237.285C238.045 1269.05 238.689 1269.31 239.216 1269.84C239.762 1270.37 240.035 1271.01 240.035 1271.77V1308.31C240.035 1309.07 239.762 1309.71 239.216 1310.24C238.689 1310.75 238.045 1311 237.285 1311H194.75C193.989 1311 193.336 1310.74 192.79 1310.21C192.263 1309.66 192 1309.01 192 1308.25ZM208.294 1302.72H229.035V1277.33H220.288C218.436 1277.33 216.905 1277.84 215.696 1278.85C214.486 1279.86 213.658 1281.28 213.209 1283.09L208.294 1302.72ZM250.537 1307.31C247.533 1304.47 246.032 1300.37 246.032 1295.03C246.032 1289.66 247.543 1285.55 250.566 1282.68C253.589 1279.8 257.782 1278.35 263.145 1278.35C268.508 1278.35 272.692 1279.76 275.695 1282.57C278.698 1285.35 280.2 1289.36 280.2 1294.59V1296.26C280.2 1296.78 280.025 1297.22 279.674 1297.57C279.342 1297.9 278.913 1298.07 278.386 1298.07H256.358C256.553 1300.47 257.236 1302.21 258.406 1303.31C259.596 1304.4 261.488 1304.94 264.081 1304.94C266.675 1304.94 268.45 1304.36 269.406 1303.19C270.361 1302.02 271.541 1301.42 272.945 1301.4H277.304C277.831 1301.4 278.26 1301.58 278.591 1301.93C278.942 1302.26 279.118 1302.69 279.118 1303.22C279.118 1308.82 273.784 1311.6 263.116 1311.59C257.733 1311.59 253.54 1310.16 250.537 1307.31ZM256.3 1291.9H269.903C269.708 1287.29 267.446 1284.99 263.116 1284.99C258.806 1284.99 256.534 1287.29 256.3 1291.9ZM282.277 1284.23V1280.75C282.277 1280.23 282.443 1279.8 282.775 1279.46C283.126 1279.11 283.564 1278.94 284.091 1278.94H312.906C313.432 1278.94 313.862 1279.11 314.193 1279.46C314.525 1279.8 314.69 1280.23 314.69 1280.75V1284.23C314.69 1284.74 314.525 1285.17 314.193 1285.52C313.862 1285.85 313.432 1286.02 312.906 1286.02H303.574V1309.22C303.574 1309.72 303.398 1310.15 303.047 1310.5C302.716 1310.83 302.287 1311 301.76 1311H295.237C294.71 1311 294.271 1310.83 293.92 1310.5C293.589 1310.15 293.423 1309.72 293.423 1309.22V1286.02H284.091C283.564 1286.02 283.126 1285.85 282.775 1285.52C282.443 1285.17 282.277 1284.74 282.277 1284.23ZM333.852 1311.59C328.391 1311.59 324.139 1310.18 321.097 1307.37C318.055 1304.56 316.533 1300.44 316.533 1295C316.533 1289.54 318.045 1285.4 321.068 1282.59C324.091 1279.77 328.293 1278.35 333.676 1278.35C339.078 1278.35 343.223 1279.21 346.109 1280.93C349.015 1282.64 350.468 1285.18 350.468 1288.53C350.468 1289.06 350.292 1289.49 349.941 1289.82C349.61 1290.15 349.181 1290.32 348.654 1290.32H344.295C342.969 1290.32 341.848 1289.61 340.931 1288.18C339.78 1286.35 337.742 1285.43 334.817 1285.43C331.911 1285.43 329.873 1286.18 328.703 1287.68C327.552 1289.17 326.977 1291.59 326.977 1294.97C326.977 1298.34 327.572 1300.78 328.761 1302.28C329.971 1303.78 332.057 1304.53 335.022 1304.53C338.006 1304.53 340.073 1303.62 341.224 1301.79C342.14 1300.34 343.262 1299.62 344.588 1299.62H348.947C349.473 1299.62 349.902 1299.8 350.234 1300.15C350.585 1300.48 350.76 1300.9 350.76 1301.4C350.76 1304.76 349.307 1307.29 346.402 1309.01C343.515 1310.73 339.332 1311.59 333.852 1311.59ZM387.883 1309.71C387.883 1310.57 387.376 1311 386.362 1311H380.833C378.961 1311 377.469 1310.08 376.357 1308.25L372.642 1302.19C371.043 1299.6 368.722 1298.3 365.68 1298.3V1309.22C365.68 1309.74 365.504 1310.17 365.153 1310.5C364.822 1310.83 364.402 1311 363.895 1311H357.342C356.816 1311 356.387 1310.83 356.055 1310.5C355.724 1310.17 355.558 1309.74 355.558 1309.22V1280.75C355.558 1280.23 355.724 1279.8 356.055 1279.46C356.406 1279.11 356.835 1278.94 357.342 1278.94H363.895C364.422 1278.94 364.851 1279.11 365.182 1279.46C365.514 1279.8 365.68 1280.23 365.68 1280.75V1291.63C369.073 1291.63 371.394 1290.32 372.642 1287.68L375.451 1281.72C375.841 1280.88 376.416 1280.21 377.177 1279.7C377.937 1279.19 378.756 1278.94 379.634 1278.94H385.163C386.138 1278.94 386.625 1279.32 386.625 1280.08C386.625 1280.51 386.469 1281.05 386.157 1281.72L382.384 1289.67C381.74 1291 380.862 1292.14 379.751 1293.1C378.639 1294.05 377.44 1294.67 376.153 1294.94C378.551 1295.66 380.628 1297.42 382.384 1300.21L387.357 1308.25C387.688 1308.82 387.864 1309.3 387.883 1309.71ZM392.125 1309.22V1280.75C392.125 1280.23 392.291 1279.8 392.623 1279.46C392.974 1279.11 393.403 1278.94 393.91 1278.94H400.024C400.55 1278.94 400.979 1279.11 401.311 1279.46C401.662 1279.8 401.837 1280.23 401.837 1280.75V1299.97L412.135 1281.04C412.447 1280.44 412.925 1279.94 413.568 1279.55C414.212 1279.14 414.836 1278.94 415.44 1278.94H423.632C424.158 1278.94 424.587 1279.11 424.919 1279.46C425.27 1279.8 425.445 1280.23 425.445 1280.75V1309.22C425.445 1309.74 425.27 1310.17 424.919 1310.5C424.587 1310.83 424.158 1311 423.632 1311H417.517C416.991 1311 416.562 1310.83 416.23 1310.5C415.899 1310.15 415.733 1309.72 415.733 1309.22V1290.03L405.436 1308.89C405.124 1309.46 404.646 1309.96 404.002 1310.39C403.359 1310.8 402.735 1311 402.13 1311H393.91C393.383 1311 392.954 1310.83 392.623 1310.5C392.291 1310.17 392.125 1309.74 392.125 1309.22ZM432.612 1309.22V1280.75C432.612 1280.23 432.778 1279.8 433.11 1279.46C433.461 1279.11 433.89 1278.94 434.397 1278.94H440.511C441.038 1278.94 441.467 1279.11 441.798 1279.46C442.149 1279.8 442.325 1280.23 442.325 1280.75V1299.97L452.622 1281.04C452.934 1280.44 453.412 1279.94 454.055 1279.55C454.699 1279.14 455.323 1278.94 455.928 1278.94H464.119C464.645 1278.94 465.074 1279.11 465.406 1279.46C465.757 1279.8 465.933 1280.23 465.933 1280.75V1309.22C465.933 1309.74 465.757 1310.17 465.406 1310.5C465.074 1310.83 464.645 1311 464.119 1311H458.005C457.478 1311 457.049 1310.83 456.718 1310.5C456.386 1310.15 456.22 1309.72 456.22 1309.22V1290.03L445.923 1308.89C445.611 1309.46 445.133 1309.96 444.489 1310.39C443.846 1310.8 443.222 1311 442.617 1311H434.397C433.87 1311 433.441 1310.83 433.11 1310.5C432.778 1310.17 432.612 1309.74 432.612 1309.22ZM439.429 1267.85C439.429 1266.86 439.975 1266.36 441.067 1266.36H443.261C444.216 1266.36 444.899 1266.86 445.309 1267.85C445.952 1269.45 447.269 1270.25 449.258 1270.25C451.267 1270.25 452.583 1269.45 453.207 1267.85C453.597 1266.86 454.28 1266.36 455.255 1266.36H457.478C458.551 1266.36 459.087 1266.86 459.087 1267.85C459.087 1270.13 458.18 1272 456.367 1273.47C454.553 1274.93 452.183 1275.66 449.258 1275.66C446.352 1275.66 443.982 1274.93 442.149 1273.47C440.335 1272 439.429 1270.13 439.429 1267.85ZM492.29 1295.44V1291.22C492.29 1284.52 493.47 1279.42 495.83 1275.92C498.19 1272.43 502.207 1270.42 507.882 1269.9L524.001 1268.46C524.001 1268.46 524.099 1268.46 524.294 1268.46C524.703 1268.46 525.064 1268.56 525.376 1268.76C525.727 1269.09 525.903 1269.49 525.903 1269.96V1273.79C525.903 1274.43 525.688 1275.04 525.259 1275.6C524.85 1276.15 524.352 1276.44 523.767 1276.48L511.481 1277.5C507.405 1277.84 504.538 1278.79 502.88 1280.37C501.222 1281.93 500.393 1284.46 500.393 1287.95C502.792 1284.57 506.459 1282.89 511.393 1282.89C516.327 1282.89 520.247 1284.14 523.153 1286.63C526.078 1289.13 527.541 1292.68 527.541 1297.28C527.541 1301.88 526.039 1305.42 523.036 1307.9C520.033 1310.36 515.664 1311.59 509.93 1311.59C498.17 1311.59 492.29 1306.2 492.29 1295.44ZM509.901 1289.56C507.522 1289.56 505.679 1290.23 504.372 1291.58C503.085 1292.9 502.441 1294.79 502.441 1297.25C502.441 1299.71 503.085 1301.61 504.372 1302.96C505.679 1304.28 507.522 1304.94 509.901 1304.94C512.3 1304.94 514.153 1304.28 515.459 1302.96C516.766 1301.61 517.419 1299.71 517.419 1297.25C517.419 1294.79 516.766 1292.9 515.459 1291.58C514.153 1290.23 512.3 1289.56 509.901 1289.56ZM532.66 1309.22V1280.75C532.66 1280.23 532.826 1279.8 533.158 1279.46C533.509 1279.11 533.938 1278.94 534.445 1278.94H540.559C541.086 1278.94 541.515 1279.11 541.846 1279.46C542.197 1279.8 542.373 1280.23 542.373 1280.75V1299.97L552.67 1281.04C552.982 1280.44 553.46 1279.94 554.103 1279.55C554.747 1279.14 555.371 1278.94 555.976 1278.94H564.167C564.693 1278.94 565.122 1279.11 565.454 1279.46C565.805 1279.8 565.98 1280.23 565.98 1280.75V1309.22C565.98 1309.74 565.805 1310.17 565.454 1310.5C565.122 1310.83 564.693 1311 564.167 1311H558.053C557.526 1311 557.097 1310.83 556.766 1310.5C556.434 1310.15 556.268 1309.72 556.268 1309.22V1290.03L545.971 1308.89C545.659 1309.46 545.181 1309.96 544.537 1310.39C543.894 1310.8 543.27 1311 542.665 1311H534.445C533.918 1311 533.489 1310.83 533.158 1310.5C532.826 1310.17 532.66 1309.74 532.66 1309.22ZM570.222 1309.07L575.488 1287.8C576.97 1281.89 581.865 1278.94 590.173 1278.94H604.01C604.517 1278.94 604.937 1279.11 605.268 1279.46C605.619 1279.8 605.795 1280.23 605.795 1280.75V1309.22C605.795 1309.72 605.619 1310.15 605.268 1310.5C604.937 1310.83 604.517 1311 604.01 1311H597.458C596.95 1311 596.521 1310.83 596.17 1310.5C595.839 1310.15 595.673 1309.72 595.673 1309.22V1286.02H590.173C587.443 1286.02 585.717 1287.45 584.995 1290.32L580.403 1308.84C580.227 1309.48 579.876 1310.01 579.349 1310.41C578.842 1310.8 578.296 1311 577.711 1311H571.714C571.188 1311 570.788 1310.84 570.515 1310.53C570.261 1310.2 570.135 1309.92 570.135 1309.68C570.135 1309.45 570.164 1309.24 570.222 1309.07ZM615.683 1307.31C612.679 1304.47 611.178 1300.37 611.178 1295.03C611.178 1289.66 612.689 1285.55 615.712 1282.68C618.735 1279.8 622.928 1278.35 628.291 1278.35C633.654 1278.35 637.838 1279.76 640.841 1282.57C643.844 1285.35 645.346 1289.36 645.346 1294.59V1296.26C645.346 1296.78 645.17 1297.22 644.819 1297.57C644.488 1297.9 644.059 1298.07 643.532 1298.07H621.504C621.699 1300.47 622.382 1302.21 623.552 1303.31C624.742 1304.4 626.633 1304.94 629.227 1304.94C631.821 1304.94 633.596 1304.36 634.551 1303.19C635.507 1302.02 636.687 1301.42 638.091 1301.4H642.45C642.976 1301.4 643.406 1301.58 643.737 1301.93C644.088 1302.26 644.264 1302.69 644.264 1303.22C644.264 1308.82 638.93 1311.6 628.262 1311.59C622.879 1311.59 618.686 1310.16 615.683 1307.31ZM621.446 1291.9H635.049C634.854 1287.29 632.591 1284.99 628.262 1284.99C623.952 1284.99 621.68 1287.29 621.446 1291.9ZM647.423 1284.23V1280.75C647.423 1280.23 647.589 1279.8 647.92 1279.46C648.271 1279.11 648.71 1278.94 649.237 1278.94H678.052C678.578 1278.94 679.007 1279.11 679.339 1279.46C679.67 1279.8 679.836 1280.23 679.836 1280.75V1284.23C679.836 1284.74 679.67 1285.17 679.339 1285.52C679.007 1285.85 678.578 1286.02 678.052 1286.02H668.72V1309.22C668.72 1309.72 668.544 1310.15 668.193 1310.5C667.862 1310.83 667.433 1311 666.906 1311H660.382C659.856 1311 659.417 1310.83 659.066 1310.5C658.734 1310.15 658.569 1309.72 658.569 1309.22V1286.02H649.237C648.71 1286.02 648.271 1285.85 647.92 1285.52C647.589 1285.17 647.423 1284.74 647.423 1284.23Z" fill="#1565C0"/>
<path d="M700 1412.78C700 1336.18 762.098 1274.08 838.7 1274.08C915.302 1274.08 977.4 1336.18 977.4 1412.78L977.4 1570.88L700 1570.88L700 1412.78Z" fill="#1565C0"/>
<path d="M749.948 1420.97C749.948 1420.97 773.565 1457.08 839.986 1457.08C906.407 1457.08 928.99 1420.97 928.99 1420.97" stroke="white" stroke-width="4.94393" stroke-linecap="round"/>
<path d="M788.236 1246.2L819.218 1246.2L819.218 1332.98L788.236 1332.98L788.236 1246.2Z" fill="#1565C0"/>
<path d="M866.459 1246.2L897.441 1246.2L897.441 1323.48L866.459 1323.48L866.459 1246.2Z" fill="#1565C0"/>
<ellipse cx="803.726" cy="1234.49" rx="23.4013" ry="22.4868" fill="#1565C0"/>
<ellipse cx="881.945" cy="1234.49" rx="23.4013" ry="22.4868" fill="#1565C0"/>
<ellipse cx="842.17" cy="1372.22" rx="49.9337" ry="47.9824" fill="white"/>
<ellipse cx="842.34" cy="1372.37" rx="42.1882" ry="40.5396" fill="#191919"/>
<path d="M239.125 1485.55C227.68 1485.55 218.323 1482.98 211.056 1477.85C203.789 1472.67 200.156 1465.08 200.156 1455.09C200.156 1445.1 204.539 1437.76 213.305 1433.09C207.173 1428.04 204.107 1422.05 204.107 1415.1C204.107 1410.06 205.129 1405.65 207.173 1401.88C209.217 1398.11 212.056 1395.16 215.689 1393.03C222.82 1388.85 231.699 1386.76 242.327 1386.76H255.135C265.854 1386.76 274.756 1388.85 281.842 1393.03C285.43 1395.16 288.246 1398.11 290.29 1401.88C292.379 1405.65 293.424 1410.06 293.424 1415.1C293.424 1422.09 290.335 1428.09 284.158 1433.09C292.924 1437.72 297.307 1445.05 297.307 1455.09C297.307 1465.08 293.673 1472.67 286.406 1477.85C279.139 1482.98 269.783 1485.55 258.337 1485.55H239.125ZM229.724 1447.19C227.135 1448.78 225.84 1451.57 225.84 1455.57C225.84 1459.57 227.135 1462.36 229.724 1463.95C232.358 1465.54 236.468 1466.33 242.055 1466.33H255.408C260.994 1466.33 265.082 1465.54 267.671 1463.95C270.305 1462.36 271.622 1459.57 271.622 1455.57C271.622 1451.57 270.305 1448.78 267.671 1447.19C265.082 1445.6 260.994 1444.8 255.408 1444.8H242.055C236.468 1444.8 232.358 1445.6 229.724 1447.19ZM232.789 1408.36C230.2 1409.85 228.906 1412.42 228.906 1416.05C228.906 1419.69 230.2 1422.28 232.789 1423.82C235.424 1425.36 239.534 1426.14 245.121 1426.14H252.07C257.656 1426.14 261.744 1425.36 264.333 1423.82C266.967 1422.28 268.284 1419.69 268.284 1416.05C268.284 1412.42 266.967 1409.85 264.333 1408.36C261.744 1406.81 257.656 1406.04 252.07 1406.04H245.121C239.534 1406.04 235.424 1406.81 232.789 1408.36ZM304.256 1436.15C304.256 1427.02 305.505 1419.19 308.003 1412.65C310.547 1406.11 314.135 1401 318.767 1397.32C327.579 1390.28 339.07 1386.76 353.24 1386.76H358.009C372.18 1386.76 383.671 1390.28 392.482 1397.32C402.156 1405.04 406.994 1417.98 406.994 1436.15C406.994 1454.41 402.156 1467.38 392.482 1475.05C383.671 1482.05 372.18 1485.55 358.009 1485.55H353.24C339.07 1485.55 327.579 1482.05 318.767 1475.05C309.093 1467.38 304.256 1454.41 304.256 1436.15ZM355.625 1406.04C338.502 1406.04 329.94 1416.1 329.94 1436.22C329.94 1456.3 338.502 1466.33 355.625 1466.33C372.748 1466.33 381.309 1456.3 381.309 1436.22C381.309 1416.1 372.748 1406.04 355.625 1406.04ZM415.305 1436.15C415.305 1427.02 416.554 1419.19 419.052 1412.65C421.596 1406.11 425.184 1401 429.817 1397.32C438.628 1390.28 450.119 1386.76 464.29 1386.76H469.058C483.229 1386.76 494.72 1390.28 503.531 1397.32C513.206 1405.04 518.043 1417.98 518.043 1436.15C518.043 1454.41 513.206 1467.38 503.531 1475.05C494.72 1482.05 483.229 1485.55 469.058 1485.55H464.29C450.119 1485.55 438.628 1482.05 429.817 1475.05C420.142 1467.38 415.305 1454.41 415.305 1436.15ZM466.674 1406.04C449.551 1406.04 440.99 1416.1 440.99 1436.22C440.99 1456.3 449.551 1466.33 466.674 1466.33C483.797 1466.33 492.358 1456.3 492.358 1436.22C492.358 1416.1 483.797 1406.04 466.674 1406.04ZM535.733 1485V1466.02H523.594V1456.96H535.733V1444.54H523.594V1433.93H535.733V1385.38H561.964C574.149 1385.38 583.172 1387.84 589.032 1392.77C594.985 1397.7 597.962 1404.87 597.962 1414.26C597.962 1423.75 594.753 1431.19 588.334 1436.58C581.916 1441.89 572.475 1444.54 560.01 1444.54H548.29V1456.96H571.312V1466.02H548.29V1485H535.733ZM558.197 1433.93C566.661 1433.93 573.219 1432.54 577.87 1429.75C582.614 1426.96 584.986 1421.93 584.986 1414.68C584.986 1408.35 583.032 1403.66 579.126 1400.59C575.219 1397.52 569.126 1395.98 560.848 1395.98H548.29V1433.93H558.197Z" fill="#1565C0"/>
<path d="M877.923 391C925.535 391 964.133 452.681 964.133 528.768C964.133 534.601 963.904 540.349 963.464 545.991C994.296 571.25 1014 609.807 1014 653.01C1014 671.405 1010.43 688.957 1003.95 705H751.054C744.572 688.957 741 671.405 741 653.01C741 609.437 761.043 570.589 792.331 545.344C791.923 539.909 791.712 534.378 791.712 528.768C791.712 452.681 830.31 391 877.923 391Z" fill="#4BDEFF"/>
<ellipse cx="877.714" cy="443.67" rx="26.7142" ry="25.6703" fill="white"/>
<ellipse cx="877.805" cy="443.755" rx="22.5704" ry="21.6884" fill="#191919"/>
<ellipse cx="877.714" cy="510.44" rx="26.7142" ry="25.6703" fill="white"/>
<ellipse cx="877.805" cy="510.52" rx="22.5704" ry="21.6884" fill="#191919"/>
<path d="M802 548C802 548 824.301 562 880.69 562C937.079 562 954 548 954 548" stroke="#1565C0" stroke-width="4.94393" stroke-linecap="round"/>
<path d="M333 800.582C333 827.422 355.104 848.429 379.397 859.838C415.216 876.66 439.685 910.516 439.686 949.541C439.686 990.252 413.057 1025.34 374.693 1041.33C352.572 1050.55 333 1069.39 333 1093.35C333 1118.01 352.989 1138 377.646 1138H1355.22C1379.88 1138 1399.87 1118.01 1399.87 1093.35C1399.87 1069.39 1380.29 1050.55 1358.17 1041.33C1319.81 1025.34 1293.18 990.253 1293.18 949.541C1293.18 910.515 1317.65 876.659 1353.47 859.838C1377.76 848.428 1399.87 827.421 1399.87 800.582V795C1399.87 767.386 1377.48 745 1349.87 745H383C355.386 745 333 767.386 333 795V800.582Z" fill="#FF6DA3"/>
<path d="M802.319 909.153V914.934H800.446L800.071 911H790.971L790.569 914.934H788.696V909.153H789.659C790.105 908.761 790.462 908.297 790.73 907.761C790.998 907.208 791.221 906.441 791.399 905.46C791.595 904.478 791.756 903.14 791.881 901.445L792.175 896.895H801.275V909.153H802.319ZM799 898.742H794.236L794.049 901.284C793.924 903.069 793.772 904.452 793.594 905.433C793.415 906.414 793.175 907.182 792.871 907.735C792.568 908.288 792.14 908.761 791.586 909.153H791.827H799V898.742ZM812.105 896.601C814.049 896.601 815.539 897.261 816.574 898.581C817.627 899.884 818.153 901.668 818.153 903.934C818.153 906.147 817.618 907.931 816.547 909.287C815.495 910.625 814.005 911.294 812.078 911.294C810.133 911.294 808.634 910.643 807.581 909.341C806.529 908.02 806.002 906.227 806.002 903.961C806.002 901.73 806.529 899.946 807.581 898.608C808.652 897.27 810.16 896.601 812.105 896.601ZM812.105 898.447C810.873 898.447 809.954 898.902 809.348 899.812C808.741 900.722 808.438 902.105 808.438 903.961C808.438 905.817 808.732 907.199 809.321 908.109C809.928 909.002 810.847 909.448 812.078 909.448C813.309 909.448 814.219 909.002 814.808 908.109C815.414 907.199 815.718 905.808 815.718 903.934C815.718 902.078 815.414 900.705 814.808 899.812C814.219 898.902 813.318 898.447 812.105 898.447ZM843.88 892.291C845.896 892.291 847.404 892.916 848.403 894.165C849.403 895.414 849.902 897.163 849.902 899.411C849.902 901.998 849.563 904.059 848.885 905.594C848.225 907.128 847.199 908.341 845.807 909.234C844.433 910.108 842.524 910.884 840.08 911.562L839.544 909.849C842.167 909.153 844.148 908.199 845.486 906.985C846.824 905.772 847.502 904.104 847.52 901.98C847.056 902.64 846.45 903.185 845.7 903.613C844.969 904.041 844.121 904.255 843.157 904.255C842.14 904.255 841.23 904.014 840.427 903.533C839.642 903.051 839.027 902.373 838.581 901.499C838.135 900.606 837.912 899.563 837.912 898.367C837.912 897.082 838.17 895.985 838.688 895.075C839.223 894.165 839.937 893.478 840.829 893.014C841.739 892.532 842.756 892.291 843.88 892.291ZM843.532 902.435C844.389 902.435 845.147 902.221 845.807 901.793C846.467 901.365 847.056 900.758 847.574 899.973C847.609 897.832 847.333 896.324 846.744 895.45C846.155 894.558 845.2 894.111 843.88 894.111C842.685 894.111 841.784 894.477 841.177 895.209C840.57 895.94 840.267 897.02 840.267 898.447C840.267 899.803 840.543 900.812 841.097 901.472C841.668 902.114 842.479 902.435 843.532 902.435ZM881.892 911H879.644V898.795H874.371L874.05 902.516C873.871 904.621 873.648 906.209 873.381 907.28C873.131 908.35 872.783 909.162 872.337 909.715C871.891 910.268 871.222 910.795 870.329 911.294L869.366 909.849C869.883 909.528 870.285 909.171 870.57 908.779C870.874 908.368 871.132 907.69 871.347 906.744C871.579 905.799 871.766 904.416 871.909 902.596L872.337 896.895H881.892V911ZM888.76 904.737C888.813 906.289 889.215 907.458 889.964 908.243C890.732 909.028 891.695 909.421 892.855 909.421C893.551 909.421 894.184 909.323 894.755 909.126C895.344 908.912 895.969 908.591 896.629 908.163L897.673 909.662C897.012 910.179 896.254 910.581 895.398 910.866C894.559 911.152 893.711 911.294 892.855 911.294C890.821 911.294 889.233 910.634 888.091 909.314C886.967 907.976 886.405 906.191 886.405 903.961C886.405 902.551 886.654 901.293 887.154 900.187C887.654 899.063 888.367 898.189 889.295 897.564C890.223 896.922 891.303 896.601 892.534 896.601C894.318 896.601 895.719 897.225 896.736 898.474C897.771 899.705 898.288 901.391 898.288 903.533C898.288 903.943 898.27 904.345 898.235 904.737H888.76ZM892.561 898.447C891.472 898.447 890.589 898.84 889.911 899.625C889.233 900.392 888.849 901.525 888.76 903.024H896.093C896.076 901.543 895.754 900.41 895.13 899.625C894.505 898.84 893.649 898.447 892.561 898.447ZM914.524 898.769H909.492V911H907.244V898.769H902.078V896.895H914.818L914.524 898.769Z" fill="#FFD738"/>
<path d="M790.183 875.309V838.829C790.183 838.03 790.447 837.366 790.973 836.84C791.5 836.313 792.163 836.05 792.962 836.05H825.902C826.663 836.05 827.306 836.323 827.833 836.869C828.379 837.415 828.652 838.069 828.652 838.829V841.579C828.652 842.34 828.389 842.993 827.862 843.539C827.355 844.066 826.721 844.329 825.961 844.329H801.212V851.408H815.663C820.402 851.408 824.244 852.53 827.189 854.772C830.134 856.996 831.607 860.311 831.607 864.719C831.607 869.107 830.134 872.422 827.189 874.665C824.244 876.888 820.402 878 815.663 878H792.816C792.075 878 791.451 877.746 790.944 877.239C790.437 876.713 790.183 876.069 790.183 875.309ZM801.212 869.721H815.663C818.94 869.721 820.578 868.044 820.578 864.69C820.578 861.335 818.94 859.658 815.663 859.658H801.212V869.721ZM836.989 876.216V847.752C836.989 847.225 837.155 846.796 837.487 846.464C837.838 846.113 838.267 845.938 838.774 845.938H844.888C845.414 845.938 845.844 846.113 846.175 846.464C846.526 846.796 846.702 847.225 846.702 847.752V866.971L856.999 848.044C857.311 847.44 857.789 846.942 858.432 846.552C859.076 846.143 859.7 845.938 860.305 845.938H868.496C869.022 845.938 869.451 846.113 869.783 846.464C870.134 846.796 870.309 847.225 870.309 847.752V876.216C870.309 876.742 870.134 877.171 869.783 877.503C869.451 877.834 869.022 878 868.496 878H862.382C861.855 878 861.426 877.834 861.094 877.503C860.763 877.152 860.597 876.723 860.597 876.216V857.025L850.3 875.894C849.988 876.459 849.51 876.957 848.866 877.386C848.223 877.795 847.599 878 846.994 878H838.774C838.247 878 837.818 877.834 837.487 877.503C837.155 877.171 836.989 876.742 836.989 876.216ZM874.551 876.069L879.817 854.802C881.299 848.892 886.194 845.938 894.502 845.938H908.339C908.846 845.938 909.266 846.113 909.597 846.464C909.948 846.796 910.124 847.225 910.124 847.752V876.216C910.124 876.723 909.948 877.152 909.597 877.503C909.266 877.834 908.846 878 908.339 878H901.787C901.279 878 900.85 877.834 900.499 877.503C900.168 877.152 900.002 876.723 900.002 876.216V853.017H894.502C891.772 853.017 890.046 854.451 889.324 857.318L884.732 875.835C884.556 876.479 884.205 877.005 883.678 877.415C883.171 877.805 882.625 878 882.04 878H876.043C875.517 878 875.117 877.844 874.844 877.532C874.59 877.2 874.463 876.918 874.463 876.684C874.463 876.45 874.493 876.245 874.551 876.069ZM920.012 874.314C917.008 871.467 915.507 867.371 915.507 862.027C915.507 856.664 917.018 852.549 920.041 849.682C923.064 846.796 927.257 845.353 932.62 845.353C937.983 845.353 942.166 846.757 945.17 849.565C948.173 852.354 949.675 856.362 949.675 861.589V863.256C949.675 863.783 949.499 864.221 949.148 864.573C948.817 864.904 948.388 865.07 947.861 865.07H925.833C926.028 867.469 926.711 869.214 927.881 870.306C929.071 871.398 930.962 871.944 933.556 871.944C936.15 871.944 937.925 871.359 938.88 870.189C939.836 869.019 941.016 868.424 942.42 868.405H946.779C947.305 868.405 947.734 868.58 948.066 868.931C948.417 869.263 948.593 869.692 948.593 870.218C948.593 875.816 943.259 878.605 932.591 878.585C927.208 878.585 923.015 877.161 920.012 874.314ZM925.775 858.897H939.378C939.183 854.295 936.92 851.993 932.591 851.993C928.281 851.993 926.009 854.295 925.775 858.897ZM951.752 851.233V847.752C951.752 847.225 951.918 846.796 952.249 846.464C952.6 846.113 953.039 845.938 953.566 845.938H982.381C982.907 845.938 983.336 846.113 983.668 846.464C983.999 846.796 984.165 847.225 984.165 847.752V851.233C984.165 851.74 983.999 852.169 983.668 852.52C983.336 852.851 982.907 853.017 982.381 853.017H973.049V876.216C973.049 876.723 972.873 877.152 972.522 877.503C972.191 877.834 971.762 878 971.235 878H964.711C964.185 878 963.746 877.834 963.395 877.503C963.063 877.152 962.898 876.723 962.898 876.216V853.017H953.566C953.039 853.017 952.6 852.851 952.249 852.52C951.918 852.169 951.752 851.74 951.752 851.233ZM1009.41 876.216V847.752C1009.41 847.225 1009.58 846.796 1009.91 846.464C1010.26 846.113 1010.69 845.938 1011.2 845.938H1021.26C1022.41 845.938 1023.29 846.659 1023.89 848.103L1031.03 865.538L1038.17 848.103C1038.77 846.659 1039.65 845.938 1040.8 845.938H1050.86C1051.39 845.938 1051.82 846.113 1052.15 846.464C1052.5 846.796 1052.68 847.225 1052.68 847.752V876.216C1052.68 876.742 1052.5 877.171 1052.15 877.503C1051.82 877.834 1051.39 878 1050.86 878H1044.52C1043.99 878 1043.56 877.834 1043.23 877.503C1042.9 877.152 1042.73 876.723 1042.73 876.216V857.932L1035.24 875.952C1034.64 877.317 1033.71 878 1032.46 878H1029.6C1028.37 878 1027.45 877.317 1026.85 875.952L1019.36 857.932V876.216C1019.36 876.742 1019.18 877.171 1018.83 877.503C1018.5 877.834 1018.07 878 1017.54 878H1011.2C1010.67 878 1010.24 877.834 1009.91 877.503C1009.58 877.171 1009.41 876.742 1009.41 876.216ZM1061.89 875.894C1059.32 874.099 1058.03 871.564 1058.03 868.288C1058.03 865.011 1059.32 862.495 1061.89 860.74C1064.49 858.985 1067.82 858.107 1071.9 858.107H1081.58C1081.58 855.826 1081.1 854.236 1080.15 853.339C1079.19 852.442 1077.51 851.993 1075.12 851.993C1072.74 851.993 1071.06 852.588 1070.08 853.778C1069.13 854.948 1067.95 855.533 1066.54 855.533H1062.19C1061.66 855.533 1061.22 855.367 1060.87 855.036C1060.54 854.685 1060.37 854.256 1060.37 853.749C1060.37 848.151 1065.69 845.353 1076.31 845.353C1080.96 845.353 1084.68 846.396 1087.49 848.483C1090.3 850.55 1091.7 853.758 1091.7 858.107V876.216C1091.7 876.742 1091.54 877.171 1091.2 877.503C1090.87 877.834 1090.44 878 1089.92 878H1084.27C1083.75 878 1083.32 877.834 1082.98 877.503C1082.65 877.152 1082.49 876.723 1082.49 876.216V875.309C1079.41 877.512 1075.85 878.605 1071.81 878.585C1067.79 878.585 1064.49 877.688 1061.89 875.894ZM1072.6 864.748C1071.23 864.748 1070.15 865.08 1069.35 865.743C1068.57 866.406 1068.18 867.264 1068.18 868.317C1068.18 869.37 1068.59 870.238 1069.41 870.921C1070.23 871.603 1071.39 871.944 1072.89 871.944C1075.9 871.944 1078.79 871.067 1081.58 869.312V864.748H1072.6ZM1096 876.069L1101.27 854.802C1102.75 848.892 1107.65 845.938 1115.95 845.938H1129.79C1130.3 845.938 1130.72 846.113 1131.05 846.464C1131.4 846.796 1131.58 847.225 1131.58 847.752V876.216C1131.58 876.723 1131.4 877.152 1131.05 877.503C1130.72 877.834 1130.3 878 1129.79 878H1123.24C1122.73 878 1122.3 877.834 1121.95 877.503C1121.62 877.152 1121.45 876.723 1121.45 876.216V853.017H1115.95C1113.22 853.017 1111.5 854.451 1110.78 857.318L1106.18 875.835C1106.01 876.479 1105.66 877.005 1105.13 877.415C1104.62 877.805 1104.08 878 1103.49 878H1097.49C1096.97 878 1096.57 877.844 1096.29 877.532C1096.04 877.2 1095.91 876.918 1095.91 876.684C1095.91 876.45 1095.94 876.245 1096 876.069ZM1138.77 876.216V847.752C1138.77 847.225 1138.94 846.796 1139.27 846.464C1139.62 846.113 1140.05 845.938 1140.56 845.938H1147.11C1147.64 845.938 1148.06 846.113 1148.4 846.464C1148.73 846.796 1148.89 847.225 1148.89 847.752V856.557H1155.86C1160.01 856.557 1163.22 857.376 1165.48 859.014C1167.76 860.653 1168.9 863.412 1168.9 867.293C1168.9 871.155 1167.76 873.904 1165.48 875.543C1163.22 877.181 1160.01 878 1155.86 878H1140.56C1140.03 878 1139.6 877.834 1139.27 877.503C1138.94 877.171 1138.77 876.742 1138.77 876.216ZM1148.72 871.476H1154.95C1157.5 871.476 1158.78 870.082 1158.78 867.293C1158.78 864.485 1157.5 863.081 1154.95 863.081H1148.72V871.476ZM1173.03 876.216V847.752C1173.03 847.225 1173.19 846.796 1173.53 846.464C1173.88 846.113 1174.31 845.938 1174.84 845.938H1181.37C1181.89 845.938 1182.32 846.113 1182.65 846.464C1182.98 846.796 1183.15 847.225 1183.15 847.752V876.216C1183.15 876.742 1182.98 877.171 1182.65 877.503C1182.32 877.834 1181.89 878 1181.37 878H1174.84C1174.31 878 1173.88 877.834 1173.53 877.503C1173.19 877.171 1173.03 876.742 1173.03 876.216ZM1190.38 876.216V847.752C1190.38 847.225 1190.54 846.796 1190.87 846.464C1191.22 846.113 1191.65 845.938 1192.16 845.938H1198.71C1199.22 845.938 1199.64 846.113 1199.97 846.464C1200.32 846.796 1200.5 847.225 1200.5 847.752V870.921H1209.65V847.752C1209.65 847.225 1209.82 846.796 1210.15 846.464C1210.5 846.113 1210.94 845.938 1211.47 845.938H1217.99C1218.52 845.938 1218.95 846.113 1219.28 846.464C1219.61 846.796 1219.78 847.225 1219.78 847.752V870.921H1228.96V847.752C1228.96 847.225 1229.13 846.796 1229.46 846.464C1229.81 846.113 1230.24 845.938 1230.75 845.938H1237.27C1237.8 845.938 1238.22 846.113 1238.56 846.464C1238.91 846.796 1239.08 847.225 1239.08 847.752V876.216C1239.08 876.723 1238.91 877.152 1238.56 877.503C1238.22 877.834 1237.8 878 1237.27 878H1192.16C1191.65 878 1191.22 877.834 1190.87 877.503C1190.54 877.152 1190.38 876.723 1190.38 876.216ZM1248.36 875.894C1245.78 874.099 1244.49 871.564 1244.49 868.288C1244.49 865.011 1245.78 862.495 1248.36 860.74C1250.95 858.985 1254.28 858.107 1258.36 858.107H1268.04C1268.04 855.826 1267.57 854.236 1266.61 853.339C1265.65 852.442 1263.98 851.993 1261.58 851.993C1259.2 851.993 1257.52 852.588 1256.55 853.778C1255.59 854.948 1254.41 855.533 1253.01 855.533H1248.65C1248.12 855.533 1247.68 855.367 1247.33 855.036C1247 854.685 1246.83 854.256 1246.83 853.749C1246.83 848.151 1252.15 845.353 1262.78 845.353C1267.42 845.353 1271.14 846.396 1273.95 848.483C1276.76 850.55 1278.17 853.758 1278.17 858.107V876.216C1278.17 876.742 1278 877.171 1277.67 877.503C1277.34 877.834 1276.91 878 1276.38 878H1270.74C1270.21 878 1269.78 877.834 1269.45 877.503C1269.12 877.152 1268.95 876.723 1268.95 876.216V875.309C1265.87 877.512 1262.31 878.605 1258.27 878.585C1254.26 878.585 1250.95 877.688 1248.36 875.894ZM1259.06 864.748C1257.7 864.748 1256.62 865.08 1255.82 865.743C1255.04 866.406 1254.65 867.264 1254.65 868.317C1254.65 869.37 1255.06 870.238 1255.87 870.921C1256.69 871.603 1257.85 871.944 1259.36 871.944C1262.36 871.944 1265.26 871.067 1268.04 869.312V864.748H1259.06Z" fill="#FFD738"/>
<path d="M469 979.778C469 903.176 531.098 841.078 607.7 841.078C684.302 841.078 746.4 903.176 746.4 979.778L746.4 1137.88L469 1137.88L469 979.778Z" fill="#FFD738"/>
<path d="M518.948 987.969C518.948 987.969 542.565 1024.08 608.986 1024.08C675.407 1024.08 697.99 987.969 697.99 987.969" stroke="#191919" stroke-width="4.94393" stroke-linecap="round"/>
<path d="M557.236 813.203L588.218 813.203L588.218 899.983L557.236 899.983L557.236 813.203Z" fill="#FFD738"/>
<path d="M635.456 813.203L666.438 813.203L666.438 890.482L635.456 890.482L635.456 813.203Z" fill="#FFD738"/>
<ellipse cx="572.726" cy="801.487" rx="23.4013" ry="22.4868" fill="#FFD738"/>
<ellipse cx="650.943" cy="801.487" rx="23.4013" ry="22.4868" fill="#FFD738"/>
<ellipse cx="611.17" cy="939.225" rx="49.9337" ry="47.9824" fill="white"/>
<ellipse cx="611.34" cy="939.368" rx="42.1882" ry="40.5396" fill="#191919"/>
<path d="M793.475 1025.36C793.475 1022.64 794.269 1020.71 795.859 1019.57C797.449 1018.39 798.993 1017.8 800.492 1017.8H808.531C812.755 1017.8 816.07 1020.39 818.478 1025.57C820.885 1030.74 826.426 1033.33 835.101 1033.33H844.843C850.43 1033.33 854.518 1032.54 857.106 1030.95C859.695 1029.36 860.99 1026.66 860.99 1022.84C860.99 1019.03 859.695 1016.32 857.106 1014.73C854.518 1013.14 850.43 1012.35 844.843 1012.35H832.58C830.809 1012.35 829.287 1011.74 828.016 1010.51C826.744 1009.24 826.108 1007.72 826.108 1005.95V1000.36C826.108 998.678 826.721 997.202 827.948 995.93C829.174 994.613 830.627 993.955 832.308 993.955H842.323C848.363 993.955 852.746 993.16 855.471 991.57C858.242 989.98 859.627 987.278 859.627 983.463C859.627 979.648 858.242 976.968 855.471 975.424C852.746 973.834 848.363 973.039 842.323 973.039H837.281C828.561 973.039 822.792 975.832 819.976 981.419C817.933 985.688 814.867 987.823 810.779 987.823H802.672C800.492 987.823 798.789 987.028 797.562 985.439C796.336 983.849 795.723 982.123 795.723 980.261C795.723 975.083 797.699 970.428 801.65 966.295C805.601 962.116 810.529 958.982 816.434 956.893C822.338 954.804 828.493 953.759 834.897 953.759H844.298C871.64 953.759 885.312 963.706 885.312 983.599C885.312 991.911 882.2 998.428 875.978 1003.15C883.109 1007.65 886.674 1014.21 886.674 1022.84C886.674 1033.33 883.313 1040.92 876.591 1045.6C869.915 1050.23 860.127 1052.55 847.228 1052.55H832.716C822.543 1052.55 813.459 1050.05 805.465 1045.05C797.471 1040.01 793.475 1033.45 793.475 1025.36ZM895.122 1003.15C895.122 994.023 896.371 986.188 898.869 979.648C901.413 973.107 905.001 967.998 909.633 964.319C918.445 957.279 929.936 953.759 944.106 953.759H948.875C963.046 953.759 974.537 957.279 983.348 964.319C993.023 972.04 997.86 984.984 997.86 1003.15C997.86 1021.41 993.023 1034.38 983.348 1042.05C974.537 1049.05 963.046 1052.55 948.875 1052.55H944.106C929.936 1052.55 918.445 1049.05 909.633 1042.05C899.959 1034.38 895.122 1021.41 895.122 1003.15ZM946.491 973.039C929.368 973.039 920.806 983.1 920.806 1003.22C920.806 1023.3 929.368 1033.33 946.491 1033.33C963.614 1033.33 972.175 1023.3 972.175 1003.22C972.175 983.1 963.614 973.039 946.491 973.039ZM1006.17 1003.15C1006.17 994.023 1007.42 986.188 1009.92 979.648C1012.46 973.107 1016.05 967.998 1020.68 964.319C1029.49 957.279 1040.98 953.759 1055.16 953.759H1059.92C1074.1 953.759 1085.59 957.279 1094.4 964.319C1104.07 972.04 1108.91 984.984 1108.91 1003.15C1108.91 1021.41 1104.07 1034.38 1094.4 1042.05C1085.59 1049.05 1074.1 1052.55 1059.92 1052.55H1055.16C1040.98 1052.55 1029.49 1049.05 1020.68 1042.05C1011.01 1034.38 1006.17 1021.41 1006.17 1003.15ZM1057.54 973.039C1040.42 973.039 1031.86 983.1 1031.86 1003.22C1031.86 1023.3 1040.42 1033.33 1057.54 1033.33C1074.66 1033.33 1083.22 1023.3 1083.22 1003.22C1083.22 983.1 1074.66 973.039 1057.54 973.039ZM1126.6 1052V952.378H1152.83C1165.02 952.378 1174.04 954.843 1179.9 959.773C1185.85 964.703 1188.83 971.865 1188.83 981.26C1188.83 987.585 1187.39 993.027 1184.5 997.585C1181.62 1002.05 1177.34 1005.49 1171.67 1007.91C1166.08 1010.33 1159.16 1011.54 1150.88 1011.54H1139.16V1052H1126.6ZM1114.46 1033.02V1023.96H1162.18V1033.02H1114.46ZM1114.46 1011.54V1000.93H1146.41V1011.54H1114.46ZM1149.06 1000.93C1154.74 1000.93 1159.53 1000.33 1163.43 999.119C1167.43 997.91 1170.5 995.91 1172.64 993.12C1174.78 990.329 1175.85 986.515 1175.85 981.678C1175.85 975.353 1173.9 970.656 1169.99 967.586C1166.08 964.517 1159.99 962.982 1151.71 962.982H1139.16V1000.93H1149.06Z" fill="#FFD738"/>
<circle cx="1274" cy="509" r="123" fill="#1565C0"/>
<mask id="path-36-outside-1_5_413" maskUnits="userSpaceOnUse" x="1220" y="457.999" width="110" height="110" fill="black">
<rect fill="white" x="1220" y="457.999" width="110" height="110"/>
<path d="M1223.82 519.091V505.098C1223.82 502.982 1224.49 501.257 1225.82 499.924C1227.23 498.513 1228.96 497.808 1230.99 497.808H1260.39V468.528C1260.39 466.412 1261.06 464.687 1262.39 463.354C1263.8 461.943 1265.57 461.238 1267.68 461.238H1281.56C1283.67 461.238 1285.4 461.943 1286.73 463.354C1288.14 464.687 1288.85 466.412 1288.85 468.528V497.808H1319.66C1321.77 497.808 1323.5 498.513 1324.83 499.924C1326.24 501.257 1326.95 502.982 1326.95 505.098V519.091C1326.95 521.208 1326.24 522.932 1324.83 524.265C1323.5 525.598 1321.77 526.264 1319.66 526.264H1288.85V557.072C1288.85 559.189 1288.14 560.953 1286.73 562.364C1285.4 563.696 1283.67 564.363 1281.56 564.363H1267.68C1265.57 564.363 1263.8 563.696 1262.39 562.364C1261.06 560.953 1260.39 559.189 1260.39 557.072V526.264H1230.99C1228.88 526.264 1227.15 525.598 1225.82 524.265C1224.49 522.932 1223.82 521.208 1223.82 519.091Z"/>
</mask>
<path d="M1223.82 519.091V505.098C1223.82 502.982 1224.49 501.257 1225.82 499.924C1227.23 498.513 1228.96 497.808 1230.99 497.808H1260.39V468.528C1260.39 466.412 1261.06 464.687 1262.39 463.354C1263.8 461.943 1265.57 461.238 1267.68 461.238H1281.56C1283.67 461.238 1285.4 461.943 1286.73 463.354C1288.14 464.687 1288.85 466.412 1288.85 468.528V497.808H1319.66C1321.77 497.808 1323.5 498.513 1324.83 499.924C1326.24 501.257 1326.95 502.982 1326.95 505.098V519.091C1326.95 521.208 1326.24 522.932 1324.83 524.265C1323.5 525.598 1321.77 526.264 1319.66 526.264H1288.85V557.072C1288.85 559.189 1288.14 560.953 1286.73 562.364C1285.4 563.696 1283.67 564.363 1281.56 564.363H1267.68C1265.57 564.363 1263.8 563.696 1262.39 562.364C1261.06 560.953 1260.39 559.189 1260.39 557.072V526.264H1230.99C1228.88 526.264 1227.15 525.598 1225.82 524.265C1224.49 522.932 1223.82 521.208 1223.82 519.091Z" fill="#FFD738"/>
<path d="M1225.82 499.924L1223.69 497.792L1225.82 499.924ZM1260.39 497.808V500.823H1263.41V497.808H1260.39ZM1262.39 463.354L1264.52 465.486L1262.39 463.354ZM1286.73 463.354L1284.54 465.425L1284.6 465.487L1284.66 465.546L1286.73 463.354ZM1288.85 497.808H1285.83V500.823H1288.85V497.808ZM1324.83 499.924L1322.64 501.995L1322.7 502.057L1322.76 502.116L1324.83 499.924ZM1324.83 524.265L1322.76 522.073L1322.73 522.103L1322.7 522.133L1324.83 524.265ZM1288.85 526.264V523.249H1285.83V526.264H1288.85ZM1286.73 562.364L1288.86 564.496L1286.73 562.364ZM1262.39 562.364L1260.2 564.434L1260.26 564.497L1260.32 564.556L1262.39 562.364ZM1260.39 526.264H1263.41V523.249H1260.39V526.264ZM1223.82 519.091H1226.84V505.098H1223.82H1220.81V519.091H1223.82ZM1223.82 505.098H1226.84C1226.84 503.674 1227.26 502.752 1227.95 502.056L1225.82 499.924L1223.69 497.792C1221.72 499.762 1220.81 502.289 1220.81 505.098H1223.82ZM1225.82 499.924L1227.95 502.056C1228.78 501.224 1229.74 500.823 1230.99 500.823V497.808V494.792C1228.18 494.792 1225.68 495.802 1223.69 497.792L1225.82 499.924ZM1230.99 497.808V500.823H1260.39V497.808V494.792H1230.99V497.808ZM1260.39 497.808H1263.41V468.528H1260.39H1257.38V497.808H1260.39ZM1260.39 468.528H1263.41C1263.41 467.104 1263.83 466.182 1264.52 465.486L1262.39 463.354L1260.26 461.222C1258.29 463.192 1257.38 465.719 1257.38 468.528H1260.39ZM1262.39 463.354L1264.52 465.486C1265.33 464.678 1266.31 464.253 1267.68 464.253V461.238V458.222C1264.82 458.222 1262.27 459.209 1260.26 461.222L1262.39 463.354ZM1267.68 461.238V464.253H1281.56V461.238V458.222H1267.68V461.238ZM1281.56 461.238V464.253C1282.93 464.253 1283.83 464.675 1284.54 465.425L1286.73 463.354L1288.92 461.284C1286.97 459.212 1284.42 458.222 1281.56 458.222V461.238ZM1286.73 463.354L1284.66 465.546C1285.41 466.255 1285.83 467.158 1285.83 468.528H1288.85H1291.86C1291.86 465.665 1290.87 463.119 1288.8 461.162L1286.73 463.354ZM1288.85 468.528H1285.83V497.808H1288.85H1291.86V468.528H1288.85ZM1288.85 497.808V500.823H1319.66V497.808V494.792H1288.85V497.808ZM1319.66 497.808V500.823C1321.03 500.823 1321.93 501.245 1322.64 501.995L1324.83 499.924L1327.02 497.854C1325.06 495.782 1322.52 494.792 1319.66 494.792V497.808ZM1324.83 499.924L1322.76 502.116C1323.51 502.825 1323.93 503.728 1323.93 505.098H1326.95H1329.96C1329.96 502.235 1328.97 499.689 1326.9 497.732L1324.83 499.924ZM1326.95 505.098H1323.93V519.091H1326.95H1329.96V505.098H1326.95ZM1326.95 519.091H1323.93C1323.93 520.462 1323.51 521.365 1322.76 522.073L1324.83 524.265L1326.9 526.457C1328.97 524.5 1329.96 521.954 1329.96 519.091H1326.95ZM1324.83 524.265L1322.7 522.133C1322 522.828 1321.08 523.249 1319.66 523.249V526.264V529.279C1322.46 529.279 1324.99 528.367 1326.96 526.397L1324.83 524.265ZM1319.66 526.264V523.249H1288.85V526.264V529.279H1319.66V526.264ZM1288.85 526.264H1285.83V557.072H1288.85H1291.86V526.264H1288.85ZM1288.85 557.072H1285.83C1285.83 558.443 1285.41 559.423 1284.6 560.232L1286.73 562.364L1288.86 564.496C1290.88 562.482 1291.86 559.935 1291.86 557.072H1288.85ZM1286.73 562.364L1284.6 560.232C1283.9 560.927 1282.98 561.347 1281.56 561.347V564.363V567.378C1284.37 567.378 1286.89 566.466 1288.86 564.496L1286.73 562.364ZM1281.56 564.363V561.347H1267.68V564.363V567.378H1281.56V564.363ZM1267.68 564.363V561.347C1266.26 561.347 1265.26 560.926 1264.46 560.172L1262.39 562.364L1260.32 564.556C1262.34 566.467 1264.87 567.378 1267.68 567.378V564.363ZM1262.39 562.364L1264.58 560.293C1263.83 559.495 1263.41 558.495 1263.41 557.072H1260.39H1257.38C1257.38 559.883 1258.29 562.41 1260.2 564.434L1262.39 562.364ZM1260.39 557.072H1263.41V526.264H1260.39H1257.38V557.072H1260.39ZM1260.39 526.264V523.249H1230.99V526.264V529.279H1260.39V526.264ZM1230.99 526.264V523.249C1229.57 523.249 1228.65 522.828 1227.95 522.133L1225.82 524.265L1223.69 526.397C1225.66 528.367 1228.19 529.279 1230.99 529.279V526.264ZM1225.82 524.265L1227.95 522.133C1227.26 521.438 1226.84 520.516 1226.84 519.091H1223.82H1220.81C1220.81 521.9 1221.72 524.427 1223.69 526.397L1225.82 524.265Z" fill="#FFD738" mask="url(#path-36-outside-1_5_413)"/>
<circle cx="165" cy="945" r="123" fill="#FF6DA3"/>
<mask id="path-39-outside-2_5_413" maskUnits="userSpaceOnUse" x="111" y="893.999" width="110" height="110" fill="black">
<rect fill="white" x="111" y="893.999" width="110" height="110"/>
<path d="M114.821 955.091V941.098C114.821 938.982 115.487 937.257 116.82 935.924C118.231 934.513 119.956 933.808 121.994 933.808H151.391V904.528C151.391 902.412 152.057 900.687 153.39 899.354C154.801 897.943 156.565 897.238 158.682 897.238H172.557C174.674 897.238 176.398 897.943 177.731 899.354C179.142 900.687 179.848 902.412 179.848 904.528V933.808H210.656C212.772 933.808 214.497 934.513 215.83 935.924C217.241 937.257 217.946 938.982 217.946 941.098V955.091C217.946 957.208 217.241 958.932 215.83 960.265C214.497 961.598 212.772 962.264 210.656 962.264H179.848V993.072C179.848 995.189 179.142 996.953 177.731 998.364C176.398 999.696 174.674 1000.36 172.557 1000.36H158.682C156.565 1000.36 154.801 999.696 153.39 998.364C152.057 996.953 151.391 995.189 151.391 993.072V962.264H121.994C119.877 962.264 118.153 961.598 116.82 960.265C115.487 958.932 114.821 957.208 114.821 955.091Z"/>
</mask>
<path d="M114.821 955.091V941.098C114.821 938.982 115.487 937.257 116.82 935.924C118.231 934.513 119.956 933.808 121.994 933.808H151.391V904.528C151.391 902.412 152.057 900.687 153.39 899.354C154.801 897.943 156.565 897.238 158.682 897.238H172.557C174.674 897.238 176.398 897.943 177.731 899.354C179.142 900.687 179.848 902.412 179.848 904.528V933.808H210.656C212.772 933.808 214.497 934.513 215.83 935.924C217.241 937.257 217.946 938.982 217.946 941.098V955.091C217.946 957.208 217.241 958.932 215.83 960.265C214.497 961.598 212.772 962.264 210.656 962.264H179.848V993.072C179.848 995.189 179.142 996.953 177.731 998.364C176.398 999.696 174.674 1000.36 172.557 1000.36H158.682C156.565 1000.36 154.801 999.696 153.39 998.364C152.057 996.953 151.391 995.189 151.391 993.072V962.264H121.994C119.877 962.264 118.153 961.598 116.82 960.265C115.487 958.932 114.821 957.208 114.821 955.091Z" fill="#FFD738"/>
<path d="M116.82 935.924L114.688 933.792L116.82 935.924ZM151.391 933.808V936.823H154.406V933.808H151.391ZM153.39 899.354L155.522 901.486L153.39 899.354ZM177.731 899.354L175.539 901.425L175.598 901.487L175.661 901.546L177.731 899.354ZM179.848 933.808H176.832V936.823H179.848V933.808ZM215.83 935.924L213.637 937.995L213.697 938.057L213.759 938.116L215.83 935.924ZM215.83 960.265L213.759 958.073L213.728 958.103L213.697 958.133L215.83 960.265ZM179.848 962.264V959.249H176.832V962.264H179.848ZM177.731 998.364L179.863 1000.5L177.731 998.364ZM153.39 998.364L151.198 1000.43L151.257 1000.5L151.32 1000.56L153.39 998.364ZM151.391 962.264H154.406V959.249H151.391V962.264ZM114.821 955.091H117.836V941.098H114.821H111.806V955.091H114.821ZM114.821 941.098H117.836C117.836 939.674 118.257 938.752 118.952 938.056L116.82 935.924L114.688 933.792C112.718 935.762 111.806 938.289 111.806 941.098H114.821ZM116.82 935.924L118.952 938.056C119.784 937.224 120.736 936.823 121.994 936.823V933.808V930.792C119.175 930.792 116.678 931.802 114.688 933.792L116.82 935.924ZM121.994 933.808V936.823H151.391V933.808V930.792H121.994V933.808ZM151.391 933.808H154.406V904.528H151.391H148.376V933.808H151.391ZM151.391 904.528H154.406C154.406 903.104 154.827 902.182 155.522 901.486L153.39 899.354L151.258 897.222C149.288 899.192 148.376 901.719 148.376 904.528H151.391ZM153.39 899.354L155.522 901.486C156.331 900.678 157.311 900.253 158.682 900.253V897.238V894.222C155.819 894.222 153.271 895.209 151.258 897.222L153.39 899.354ZM158.682 897.238V900.253H172.557V897.238V894.222H158.682V897.238ZM172.557 897.238V900.253C173.928 900.253 174.831 900.675 175.539 901.425L177.731 899.354L179.923 897.284C177.966 895.212 175.42 894.222 172.557 894.222V897.238ZM177.731 899.354L175.661 901.546C176.41 902.255 176.832 903.158 176.832 904.528H179.848H182.863C182.863 901.665 181.874 899.119 179.801 897.162L177.731 899.354ZM179.848 904.528H176.832V933.808H179.848H182.863V904.528H179.848ZM179.848 933.808V936.823H210.656V933.808V930.792H179.848V933.808ZM210.656 933.808V936.823C212.026 936.823 212.929 937.245 213.637 937.995L215.83 935.924L218.022 933.854C216.065 931.782 213.518 930.792 210.656 930.792V933.808ZM215.83 935.924L213.759 938.116C214.509 938.825 214.931 939.728 214.931 941.098H217.946H220.961C220.961 938.235 219.972 935.689 217.9 933.732L215.83 935.924ZM217.946 941.098H214.931V955.091H217.946H220.961V941.098H217.946ZM217.946 955.091H214.931C214.931 956.462 214.509 957.365 213.759 958.073L215.83 960.265L217.9 962.457C219.972 960.5 220.961 957.954 220.961 955.091H217.946ZM215.83 960.265L213.697 958.133C213.002 958.828 212.08 959.249 210.656 959.249V962.264V965.279C213.465 965.279 215.992 964.367 217.962 962.397L215.83 960.265ZM210.656 962.264V959.249H179.848V962.264V965.279H210.656V962.264ZM179.848 962.264H176.832V993.072H179.848H182.863V962.264H179.848ZM179.848 993.072H176.832C176.832 994.443 176.407 995.423 175.599 996.232L177.731 998.364L179.863 1000.5C181.877 998.482 182.863 995.935 182.863 993.072H179.848ZM177.731 998.364L175.599 996.232C174.903 996.927 173.981 997.347 172.557 997.347V1000.36V1003.38C175.366 1003.38 177.893 1002.47 179.863 1000.5L177.731 998.364ZM172.557 1000.36V997.347H158.682V1000.36V1003.38H172.557V1000.36ZM158.682 1000.36V997.347C157.259 997.347 156.259 996.926 155.46 996.172L153.39 998.364L151.32 1000.56C153.344 1002.47 155.871 1003.38 158.682 1003.38V1000.36ZM153.39 998.364L155.582 996.293C154.828 995.495 154.406 994.495 154.406 993.072H151.391H148.376C148.376 995.883 149.287 998.41 151.198 1000.43L153.39 998.364ZM151.391 993.072H154.406V962.264H151.391H148.376V993.072H151.391ZM151.391 962.264V959.249H121.994V962.264V965.279H151.391V962.264ZM121.994 962.264V959.249C120.57 959.249 119.648 958.828 118.952 958.133L116.82 960.265L114.688 962.397C116.658 964.367 119.185 965.279 121.994 965.279V962.264ZM116.82 960.265L118.952 958.133C118.257 957.438 117.836 956.516 117.836 955.091H114.821H111.806C111.806 957.9 112.718 960.427 114.688 962.397L116.82 960.265Z" fill="#FFD738" mask="url(#path-39-outside-2_5_413)"/>
<circle cx="1273" cy="1377" r="123" fill="#FFD738"/>
<mask id="path-42-outside-3_5_413" maskUnits="userSpaceOnUse" x="1219" y="1326" width="110" height="110" fill="black">
<rect fill="white" x="1219" y="1326" width="110" height="110"/>
<path d="M1222.82 1387.09V1373.1C1222.82 1370.98 1223.49 1369.26 1224.82 1367.92C1226.23 1366.51 1227.96 1365.81 1229.99 1365.81H1259.39V1336.53C1259.39 1334.41 1260.06 1332.69 1261.39 1331.35C1262.8 1329.94 1264.57 1329.24 1266.68 1329.24H1280.56C1282.67 1329.24 1284.4 1329.94 1285.73 1331.35C1287.14 1332.69 1287.85 1334.41 1287.85 1336.53V1365.81H1318.66C1320.77 1365.81 1322.5 1366.51 1323.83 1367.92C1325.24 1369.26 1325.95 1370.98 1325.95 1373.1V1387.09C1325.95 1389.21 1325.24 1390.93 1323.83 1392.27C1322.5 1393.6 1320.77 1394.26 1318.66 1394.26H1287.85V1425.07C1287.85 1427.19 1287.14 1428.95 1285.73 1430.36C1284.4 1431.7 1282.67 1432.36 1280.56 1432.36H1266.68C1264.57 1432.36 1262.8 1431.7 1261.39 1430.36C1260.06 1428.95 1259.39 1427.19 1259.39 1425.07V1394.26H1229.99C1227.88 1394.26 1226.15 1393.6 1224.82 1392.27C1223.49 1390.93 1222.82 1389.21 1222.82 1387.09Z"/>
</mask>
<path d="M1222.82 1387.09V1373.1C1222.82 1370.98 1223.49 1369.26 1224.82 1367.92C1226.23 1366.51 1227.96 1365.81 1229.99 1365.81H1259.39V1336.53C1259.39 1334.41 1260.06 1332.69 1261.39 1331.35C1262.8 1329.94 1264.57 1329.24 1266.68 1329.24H1280.56C1282.67 1329.24 1284.4 1329.94 1285.73 1331.35C1287.14 1332.69 1287.85 1334.41 1287.85 1336.53V1365.81H1318.66C1320.77 1365.81 1322.5 1366.51 1323.83 1367.92C1325.24 1369.26 1325.95 1370.98 1325.95 1373.1V1387.09C1325.95 1389.21 1325.24 1390.93 1323.83 1392.27C1322.5 1393.6 1320.77 1394.26 1318.66 1394.26H1287.85V1425.07C1287.85 1427.19 1287.14 1428.95 1285.73 1430.36C1284.4 1431.7 1282.67 1432.36 1280.56 1432.36H1266.68C1264.57 1432.36 1262.8 1431.7 1261.39 1430.36C1260.06 1428.95 1259.39 1427.19 1259.39 1425.07V1394.26H1229.99C1227.88 1394.26 1226.15 1393.6 1224.82 1392.27C1223.49 1390.93 1222.82 1389.21 1222.82 1387.09Z" fill="#1565C0"/>
<path d="M1224.82 1367.92L1222.7 1365.8L1224.82 1367.92ZM1259.39 1365.81V1368.81H1262.39V1365.81H1259.39ZM1261.39 1331.35L1263.51 1333.48L1261.39 1331.35ZM1285.73 1331.35L1283.55 1333.41L1283.61 1333.48L1283.67 1333.54L1285.73 1331.35ZM1287.85 1365.81H1284.85V1368.81H1287.85V1365.81ZM1323.83 1367.92L1321.65 1369.98L1321.71 1370.05L1321.77 1370.11L1323.83 1367.92ZM1323.83 1392.27L1321.77 1390.08L1321.74 1390.11L1321.71 1390.14L1323.83 1392.27ZM1287.85 1394.26V1391.26H1284.85V1394.26H1287.85ZM1285.73 1430.36L1287.85 1432.49L1285.73 1430.36ZM1261.39 1430.36L1259.21 1432.42L1259.27 1432.49L1259.33 1432.54L1261.39 1430.36ZM1259.39 1394.26H1262.39V1391.26H1259.39V1394.26ZM1222.82 1387.09H1225.82V1373.1H1222.82H1219.82V1387.09H1222.82ZM1222.82 1373.1H1225.82C1225.82 1371.67 1226.24 1370.74 1226.94 1370.05L1224.82 1367.92L1222.7 1365.8C1220.73 1367.77 1219.82 1370.29 1219.82 1373.1H1222.82ZM1224.82 1367.92L1226.94 1370.05C1227.78 1369.21 1228.73 1368.81 1229.99 1368.81V1365.81V1362.81C1227.18 1362.81 1224.69 1363.82 1222.7 1365.8L1224.82 1367.92ZM1229.99 1365.81V1368.81H1259.39V1365.81V1362.81H1229.99V1365.81ZM1259.39 1365.81H1262.39V1336.53H1259.39H1256.39V1365.81H1259.39ZM1259.39 1336.53H1262.39C1262.39 1335.1 1262.81 1334.17 1263.51 1333.48L1261.39 1331.35L1259.27 1329.23C1257.3 1331.2 1256.39 1333.72 1256.39 1336.53H1259.39ZM1261.39 1331.35L1263.51 1333.48C1264.32 1332.66 1265.31 1332.24 1266.68 1332.24V1329.24V1326.24C1263.82 1326.24 1261.28 1327.22 1259.27 1329.23L1261.39 1331.35ZM1266.68 1329.24V1332.24H1280.56V1329.24V1326.24H1266.68V1329.24ZM1280.56 1329.24V1332.24C1281.93 1332.24 1282.84 1332.66 1283.55 1333.41L1285.73 1331.35L1287.91 1329.29C1285.96 1327.23 1283.42 1326.24 1280.56 1326.24V1329.24ZM1285.73 1331.35L1283.67 1333.54C1284.42 1334.25 1284.85 1335.15 1284.85 1336.53H1287.85H1290.85C1290.85 1333.67 1289.86 1331.13 1287.79 1329.17L1285.73 1331.35ZM1287.85 1336.53H1284.85V1365.81H1287.85H1290.85V1336.53H1287.85ZM1287.85 1365.81V1368.81H1318.66V1365.81V1362.81H1287.85V1365.81ZM1318.66 1365.81V1368.81C1320.03 1368.81 1320.94 1369.23 1321.65 1369.98L1323.83 1367.92L1326.01 1365.86C1324.06 1363.8 1321.51 1362.81 1318.66 1362.81V1365.81ZM1323.83 1367.92L1321.77 1370.11C1322.52 1370.82 1322.95 1371.72 1322.95 1373.1H1325.95H1328.95C1328.95 1370.24 1327.96 1367.7 1325.89 1365.74L1323.83 1367.92ZM1325.95 1373.1H1322.95V1387.09H1325.95H1328.95V1373.1H1325.95ZM1325.95 1387.09H1322.95C1322.95 1388.47 1322.52 1389.37 1321.77 1390.08L1323.83 1392.27L1325.89 1394.45C1327.96 1392.49 1328.95 1389.95 1328.95 1387.09H1325.95ZM1323.83 1392.27L1321.71 1390.14C1321.01 1390.84 1320.08 1391.26 1318.66 1391.26V1394.26V1397.26C1321.46 1397.26 1323.98 1396.35 1325.95 1394.39L1323.83 1392.27ZM1318.66 1394.26V1391.26H1287.85V1394.26V1397.26H1318.66V1394.26ZM1287.85 1394.26H1284.85V1425.07H1287.85H1290.85V1394.26H1287.85ZM1287.85 1425.07H1284.85C1284.85 1426.45 1284.42 1427.43 1283.61 1428.24L1285.73 1430.36L1287.85 1432.49C1289.86 1430.47 1290.85 1427.93 1290.85 1425.07H1287.85ZM1285.73 1430.36L1283.61 1428.24C1282.91 1428.94 1281.98 1429.36 1280.56 1429.36V1432.36V1435.36C1283.36 1435.36 1285.89 1434.45 1287.85 1432.49L1285.73 1430.36ZM1280.56 1432.36V1429.36H1266.68V1432.36V1435.36H1280.56V1432.36ZM1266.68 1432.36V1429.36C1265.26 1429.36 1264.25 1428.94 1263.45 1428.18L1261.39 1430.36L1259.33 1432.54C1261.35 1434.45 1263.87 1435.36 1266.68 1435.36V1432.36ZM1261.39 1430.36L1263.57 1428.3C1262.81 1427.5 1262.39 1426.5 1262.39 1425.07H1259.39H1256.39C1256.39 1427.88 1257.3 1430.4 1259.21 1432.42L1261.39 1430.36ZM1259.39 1425.07H1262.39V1394.26H1259.39H1256.39V1425.07H1259.39ZM1259.39 1394.26V1391.26H1229.99V1394.26V1397.26H1259.39V1394.26ZM1229.99 1394.26V1391.26C1228.57 1391.26 1227.64 1390.84 1226.94 1390.14L1224.82 1392.27L1222.7 1394.39C1224.67 1396.35 1227.19 1397.26 1229.99 1397.26V1394.26ZM1224.82 1392.27L1226.94 1390.14C1226.24 1389.45 1225.82 1388.52 1225.82 1387.09H1222.82H1219.82C1219.82 1389.9 1220.73 1392.42 1222.7 1394.39L1224.82 1392.27Z" fill="#1565C0" mask="url(#path-42-outside-3_5_413)"/>
<path d="M195.954 545.081C195.409 544.309 195.136 543.4 195.136 542.356C195.136 541.311 195.886 540.153 197.384 538.881L214.008 524.574C216.415 522.439 219.753 521.349 224.023 521.304H234.038C235.9 521.304 237.467 521.94 238.738 523.212C240.01 524.483 240.646 526.005 240.646 527.776V612.596C240.646 614.367 239.987 615.889 238.67 617.161C237.353 618.387 235.809 619 234.038 619H221.366C219.594 619 218.073 618.41 216.801 617.229C215.575 616.002 214.962 614.504 214.962 612.732V546.852L207.127 552.575C206.218 553.211 205.174 553.415 203.993 553.188C202.812 552.961 201.858 552.439 201.132 551.621L195.954 545.081ZM254.612 612.596V602.649C254.612 596.881 255.793 591.885 258.155 587.661C260.562 583.437 263.628 580.121 267.352 577.714C271.077 575.307 275.21 573.24 279.752 571.515C284.294 569.789 288.835 568.403 293.377 567.359C297.965 566.269 302.121 565.179 305.845 564.089C314.293 561.545 318.517 557.934 318.517 553.256C318.517 548.169 317.2 544.695 314.565 542.832C311.931 540.97 307.48 540.039 301.212 540.039H296.375C287.609 540.039 281.841 542.832 279.07 548.419C277.027 552.688 273.961 554.823 269.873 554.823H261.766C259.54 554.823 257.814 554.028 256.588 552.439C255.362 550.849 254.749 549.123 254.749 547.261C254.749 542.083 256.724 537.428 260.676 533.295C264.673 529.116 269.623 525.982 275.528 523.893C281.432 521.804 287.586 520.759 293.991 520.759H303.188C323.127 520.759 335.753 526.3 341.067 537.382C343.156 541.742 344.201 546.807 344.201 552.575C344.201 558.343 343.02 563.248 340.658 567.291C338.297 571.333 335.254 574.558 331.529 576.965C327.805 579.327 323.649 581.37 319.062 583.096C314.52 584.822 309.978 586.253 305.436 587.388C300.894 588.478 296.761 589.523 293.037 590.522C284.543 592.884 280.297 595.95 280.297 599.72H336.843C338.705 599.72 340.25 600.356 341.476 601.627C342.748 602.899 343.384 604.421 343.384 606.192V612.596C343.384 614.367 342.725 615.889 341.408 617.161C340.136 618.387 338.615 619 336.843 619H261.221C259.449 619 257.905 618.387 256.588 617.161C255.271 615.889 254.612 614.367 254.612 612.596ZM352.581 570.152C352.581 561.023 353.83 553.188 356.328 546.648C358.871 540.107 362.46 534.998 367.092 531.319C375.904 524.279 387.395 520.759 401.565 520.759H406.334C420.505 520.759 431.996 524.279 440.807 531.319C450.481 539.04 455.319 551.984 455.319 570.152C455.319 588.41 450.481 601.377 440.807 609.053C431.996 616.048 420.505 619.545 406.334 619.545H401.565C387.395 619.545 375.904 616.048 367.092 609.053C357.418 601.377 352.581 588.41 352.581 570.152ZM403.95 540.039C386.827 540.039 378.265 550.1 378.265 570.22C378.265 590.295 386.827 600.333 403.95 600.333C421.073 600.333 429.634 590.295 429.634 570.22C429.634 550.1 421.073 540.039 403.95 540.039ZM463.63 570.152C463.63 561.023 464.879 553.188 467.377 546.648C469.921 540.107 473.509 534.998 478.142 531.319C486.953 524.279 498.444 520.759 512.614 520.759H517.383C531.554 520.759 543.045 524.279 551.856 531.319C561.531 539.04 566.368 551.984 566.368 570.152C566.368 588.41 561.531 601.377 551.856 609.053C543.045 616.048 531.554 619.545 517.383 619.545H512.614C498.444 619.545 486.953 616.048 478.142 609.053C468.467 601.377 463.63 588.41 463.63 570.152ZM514.999 540.039C497.876 540.039 489.315 550.1 489.315 570.22C489.315 590.295 497.876 600.333 514.999 600.333C532.122 600.333 540.683 590.295 540.683 570.22C540.683 550.1 532.122 540.039 514.999 540.039ZM584.058 619V519.378H610.289C622.474 519.378 631.497 521.843 637.357 526.773C643.31 531.703 646.287 538.865 646.287 548.26C646.287 554.585 644.845 560.027 641.961 564.585C639.078 569.049 634.799 572.491 629.125 574.909C623.544 577.328 616.614 578.537 608.335 578.537H596.615V619H584.058ZM571.919 600.024V590.955H619.637V600.024H571.919ZM571.919 578.537V567.933H603.87V578.537H571.919ZM606.522 567.933C612.196 567.933 616.986 567.329 620.893 566.119C624.893 564.91 627.962 562.91 630.102 560.12C632.241 557.329 633.311 553.515 633.311 548.678C633.311 542.353 631.357 537.656 627.451 534.586C623.544 531.517 617.451 529.982 609.173 529.982H596.615V567.933H606.522Z" fill="#FFD738"/>
</svg>
