<svg width="160" height="417" viewBox="0 0 160 417" fill="none" xmlns="http://www.w3.org/2000/svg">
<ellipse cx="79.6279" cy="110.769" rx="69.956" ry="70.3527" fill="#FF6DAC"/>
<ellipse cx="79.6299" cy="97.2961" rx="30.5127" ry="30.6858" fill="white"/>
<ellipse cx="79.6334" cy="97.2967" rx="26.0475" ry="26.1952" fill="#080041"/>
<rect x="43.2109" y="416.129" width="109.271" height="23.0706" rx="11.5353" transform="rotate(-90 43.2109 416.129)" fill="#FF6DAC"/>
<rect x="93.7695" y="416.129" width="109.271" height="23.0706" rx="11.5353" transform="rotate(-90 93.7695 416.129)" fill="#FF6DAC"/>
<path d="M26.0469 279.914H133.958V324.827C133.958 339.704 121.898 351.764 107.021 351.764H52.9835C38.1068 351.764 26.0469 339.704 26.0469 324.827V279.914Z" fill="#FF6DAC"/>
<rect x="72.1211" y="16.5322" width="14.3092" height="37.3535" fill="#FF6DAC"/>
<ellipse cx="79.2767" cy="10.8693" rx="10.808" ry="10.8693" fill="#FF6DAC"/>
<rect x="26.0469" y="168.396" width="108.655" height="145.196" rx="26.9367" fill="#FFD738"/>
<ellipse cx="26.7917" cy="215.549" rx="26.7917" ry="26.9436" fill="#FFD738"/>
<ellipse cx="133.214" cy="215.549" rx="26.7917" ry="26.9436" fill="#FFD738"/>
</svg>
